<svg width="158" height="20" viewBox="0 0 158 20" xmlns="http://www.w3.org/2000/svg">
<path d="M10.8567 0.85892C10.2327 0.872908 9.59563 0.941112 8.96019 1.0571C5.56887 1.67684 2.02119 3.75298 0.970732 7.43595C0.454816 9.24195 0.70678 11.1911 1.40918 12.9472C1.42224 12.9816 1.43687 13.0153 1.45304 13.0483C3.53583 17.1109 6.95454 19.1324 10.6067 19.6647C14.2546 20.1964 18.1315 19.3673 21.6121 18.0424C25.669 16.5994 28.4371 13.7055 30.9849 11.4103C33.5058 9.13901 35.6754 7.53763 38.7025 7.71159C38.7986 7.73369 38.94 7.96339 39.0489 8.00691C37.977 9.23129 37.1489 10.5654 37.0579 11.9799C36.9564 13.5646 37.8978 14.8376 38.982 15.4305C40.0662 16.0235 41.2591 16.1693 42.3394 15.8295C43.7799 15.3764 44.7997 14.3467 45.071 13.1481C45.3418 11.9494 44.9907 10.7775 44.4303 9.7263C44.0548 9.02337 43.4682 8.444 42.9248 7.84023C43.9641 7.25054 45.0754 6.83534 46.1929 6.95951C49.2004 7.29369 51.4816 9.22415 53.795 11.6163C56.1085 14.0085 58.3499 16.8272 61.4628 18.3837C61.476 18.3892 61.4892 18.3945 61.5026 18.3995C64.7645 19.8867 68.4917 18.6596 70.4435 16.327C72.4313 14.206 72.0385 11.3662 70.5056 9.88519C69.7344 9.14018 68.6609 8.66914 67.5131 8.79842C66.3656 8.92768 65.2684 9.69779 64.5442 10.9523C64.4617 11.088 64.4071 11.2389 64.3836 11.396C64.3602 11.5531 64.3684 11.7134 64.4077 11.8673C64.4471 12.0212 64.5168 12.1657 64.6128 12.2923C64.7088 12.4189 64.8292 12.525 64.9668 12.6045C65.1044 12.6839 65.2564 12.735 65.4141 12.7549C65.5717 12.7747 65.7317 12.7628 65.8847 12.7199C66.0377 12.677 66.1805 12.604 66.3049 12.5051C66.4292 12.4062 66.5326 12.2834 66.6088 12.144C67.0538 11.3734 67.4493 11.2036 67.7809 11.1662C68.1124 11.1289 68.5049 11.2692 68.848 11.6007C69.5345 12.2636 69.9497 13.4168 68.7011 14.7245C68.6811 14.7443 68.6618 14.7649 68.6432 14.7861C67.4614 16.2175 64.6245 17.185 62.5071 16.2299C60.0556 14.994 57.908 12.4409 55.5073 9.95866C53.0987 7.46787 50.3306 5.01816 46.4574 4.58783C44.384 4.35743 42.53 5.18088 40.9698 6.28361C40.3614 5.92395 39.7872 5.46299 39.1193 5.3294C39.0702 5.31969 39.0205 5.31308 38.9706 5.30961C34.9434 5.02223 32.0301 7.26138 29.3905 9.63961C26.7505 12.0178 24.2306 14.5884 20.8027 15.8032C20.7935 15.8056 20.7844 15.8081 20.7753 15.8107C17.5408 17.0431 14.0039 17.7489 10.954 17.3043C7.92405 16.8627 5.3799 15.3943 3.61951 12.007C3.09101 10.6584 2.93698 9.23129 3.2626 8.09172C3.97825 5.58266 6.64466 3.90078 9.38937 3.39945C10.7619 3.14879 12.1166 3.20973 13.1038 3.52414C14.0888 3.83782 14.6425 4.32166 14.8612 4.97579C15.2854 6.29694 14.9991 7.21533 14.4545 7.91716C13.916 8.61054 13.0456 9.00433 12.4199 9.03016C12.0156 9.01601 11.5154 8.8254 11.2517 8.17703C11.1948 8.02903 11.1089 7.89387 10.9991 7.77948C10.8892 7.66508 10.7577 7.57374 10.6121 7.5108C10.4666 7.44787 10.3099 7.4146 10.1514 7.41295C9.9928 7.4113 9.8355 7.4413 9.68867 7.50119C9.54184 7.56108 9.40842 7.64966 9.29624 7.76175C9.18407 7.87383 9.09537 8.00717 9.03536 8.15395C8.97535 8.30074 8.94522 8.45802 8.94673 8.61659C8.94825 8.77516 8.98139 8.93183 9.0442 9.07744C9.67409 10.6267 11.1123 11.4071 12.4043 11.4295C12.4211 11.4298 12.438 11.4298 12.4548 11.4295C13.9154 11.3928 15.3507 10.648 16.3361 9.3793C17.3213 8.11059 17.7759 6.24226 17.1314 4.2421C17.1314 4.23821 17.1314 4.23432 17.1314 4.23043C16.6268 2.70784 15.3073 1.7231 13.833 1.25361C12.9117 0.9602 11.9033 0.83538 10.8629 0.858547L10.8567 0.85892ZM147.51 0.858944C146.469 0.83585 145.461 0.960587 144.54 1.254C143.065 1.72348 141.746 2.70822 141.241 4.23081C141.241 4.2347 141.241 4.23859 141.241 4.24248C140.597 6.24267 141.051 8.111 142.037 9.3797C143.022 10.6484 144.457 11.3932 145.918 11.4299C145.934 11.4302 145.95 11.4302 145.967 11.4299C147.259 11.4075 148.698 10.6271 149.328 9.07782C149.39 8.93231 149.423 8.77587 149.424 8.61763C149.425 8.45938 149.395 8.3025 149.335 8.15612C149.274 8.00975 149.186 7.8768 149.074 7.76505C148.962 7.65329 148.828 7.56496 148.682 7.5052C148.535 7.44544 148.378 7.41544 148.22 7.41697C148.062 7.41849 147.906 7.4515 147.76 7.51407C147.615 7.57664 147.483 7.66752 147.374 7.78141C147.264 7.8953 147.178 8.02992 147.12 8.17743C146.856 8.8258 146.357 9.01643 145.952 9.03056C145.327 9.00473 144.456 8.61092 143.918 7.91755C143.373 7.21572 143.087 6.29735 143.511 4.97619C143.73 4.32205 144.283 3.83821 145.269 3.52454C146.256 3.21013 147.61 3.14918 148.983 3.39986C151.728 3.90118 154.394 5.58305 155.11 8.09212C155.435 9.23169 155.28 10.6588 154.753 12.0074C152.992 15.3947 150.448 16.8631 147.418 17.3047C144.368 17.7493 140.831 17.0435 137.597 15.8111C137.588 15.8085 137.579 15.806 137.569 15.8036C134.142 14.5888 131.621 12.0182 128.982 9.64C126.342 7.26176 123.427 5.02262 119.4 5.30999C119.351 5.31353 119.302 5.32014 119.253 5.32978C118.585 5.46338 118.011 5.92435 117.403 6.28398C115.843 5.18127 113.988 4.35782 111.915 4.58821C108.042 5.01854 105.274 7.46826 102.865 9.95904C100.465 12.4413 98.3157 14.9944 95.8643 16.2303C93.7469 17.1854 90.9113 16.2178 89.7295 14.7865C89.7109 14.7652 89.6916 14.7446 89.6716 14.7247C88.4229 13.4171 88.8368 12.2639 89.523 11.601C89.8661 11.2695 90.2598 11.1292 90.5913 11.1665C90.9229 11.2038 91.3172 11.3737 91.7619 12.1443C91.8384 12.2833 91.9418 12.4056 92.0661 12.5041C92.1905 12.6025 92.3332 12.6752 92.486 12.7178C92.6388 12.7605 92.7985 12.7722 92.9558 12.7523C93.1132 12.7324 93.265 12.6813 93.4024 12.602C93.5398 12.5227 93.6599 12.4168 93.7558 12.2905C93.8517 12.1642 93.9215 12.02 93.961 11.8664C94.0005 11.7128 94.009 11.5529 93.9859 11.396C93.9628 11.239 93.9087 11.0883 93.8266 10.9526C93.1025 9.6981 92.0066 8.92799 90.8591 8.79872C89.7115 8.66944 88.6378 9.14048 87.8664 9.8855C86.3333 11.3665 85.9405 14.2063 87.9285 16.3273C89.8802 18.6599 93.6076 19.887 96.8694 18.3998C96.8827 18.3948 96.896 18.3895 96.9091 18.384C100.022 16.8275 102.263 14.0088 104.577 11.6167C106.89 9.22449 109.171 7.29401 112.179 6.95984C113.297 6.83566 114.408 7.25086 115.447 7.84054C114.904 8.44432 114.316 9.02368 113.94 9.72664C113.379 10.7779 113.03 11.9497 113.301 13.1484C113.572 14.347 114.592 15.3767 116.033 15.8299C117.113 16.1697 118.306 16.0238 119.39 15.4308C120.474 14.8379 121.416 13.565 121.314 11.9802C121.224 10.5657 120.395 9.23161 119.323 8.00723C119.432 7.96369 119.573 7.73397 119.668 7.71192C122.695 7.53794 124.866 9.13934 127.387 11.4106C129.935 13.7058 132.702 16.5997 136.759 18.0428C140.239 19.3676 144.116 20.1968 147.764 19.665C151.416 19.1327 154.836 17.1112 156.919 13.0486C156.935 13.0156 156.95 12.9819 156.963 12.9476C157.665 11.1915 157.917 9.2423 157.401 7.4363C156.35 3.75334 152.803 1.67719 149.412 1.05746C148.776 0.941442 148.14 0.873156 147.516 0.85925L147.51 0.858944ZM79.1812 6.96215C76.3826 6.96215 74.0927 9.25358 74.0925 12.0521C74.0925 14.8506 76.3826 17.1421 79.1812 17.1421C81.9798 17.1421 84.2713 14.8506 84.2713 12.0521C84.2713 9.25358 81.9798 6.96215 79.1812 6.96215ZM79.1812 8.99655C80.8816 8.99655 82.242 10.3517 82.242 12.0521C82.242 13.7525 80.8816 15.1129 79.1812 15.1129C77.481 15.1129 76.1256 13.7525 76.1256 12.0521C76.1256 10.3517 77.481 8.99655 79.1812 8.99655ZM40.9672 9.67118C41.4592 10.1581 42.0353 10.3075 42.3257 10.8512C42.7182 11.586 42.8293 12.2495 42.7443 12.6244C42.6589 12.9992 42.5058 13.2787 41.6234 13.5562C41.3557 13.6405 40.6087 13.6023 40.1259 13.3384C39.6432 13.0744 39.3899 12.8181 39.4341 12.1322C39.4706 11.5698 40.2662 10.5742 40.9672 9.67118ZM117.399 9.6712C118.1 10.5742 118.895 11.5698 118.931 12.1322C118.974 12.8181 118.723 13.0744 118.241 13.3384C117.758 13.6024 117.011 13.6405 116.743 13.5562C115.861 13.2787 115.706 12.9992 115.621 12.6244C115.535 12.2495 115.647 11.586 116.041 10.8511C116.331 10.3075 116.907 10.1581 117.399 9.6712Z"/>
</svg>
