<svg width="158" height="19" viewBox="0 0 158 19" fill="none" xmlns="http://www.w3.org/2000/svg">
<path d="M147.515 18.9691C148.139 18.9551 148.776 18.8869 149.411 18.7709C152.803 18.1512 156.35 16.075 157.401 12.392C157.917 10.5861 157.665 8.63686 156.962 6.88078C156.949 6.84643 156.935 6.81271 156.919 6.77971C154.836 2.71712 151.417 0.695596 147.765 0.163283C144.117 -0.368442 140.24 0.460738 136.759 1.78557C132.703 3.22864 129.934 6.12251 127.387 8.41772C124.866 10.689 122.696 12.2904 119.669 12.1164C119.573 12.0943 119.432 11.8646 119.323 11.8211C120.395 10.5967 121.223 9.26263 121.314 7.8481C121.415 6.26337 120.474 4.99041 119.39 4.39747C118.305 3.80454 117.112 3.65866 116.032 3.99848C114.592 4.45165 113.572 5.4813 113.301 6.67995C113.03 7.87861 113.381 9.05046 113.941 10.1017C114.317 10.8046 114.903 11.384 115.447 11.9878C114.408 12.5775 113.296 12.9927 112.179 12.8685C109.171 12.5343 106.89 10.6039 104.577 8.21166C102.263 5.81949 100.022 3.0008 96.9088 1.44431C96.8956 1.4388 96.8824 1.43353 96.869 1.4285C93.6071 -0.0587149 89.8799 1.16845 87.928 3.50096C85.9403 5.62206 86.3331 8.46182 87.866 9.94282C88.6371 10.6878 89.7107 11.1589 90.8585 11.0296C92.006 10.9003 93.1032 10.1302 93.8273 8.87575C93.9099 8.74001 93.9645 8.58914 93.988 8.43201C94.0114 8.27487 94.0032 8.11463 93.9638 7.9607C93.9245 7.80678 93.8548 7.66228 93.7588 7.53568C93.6628 7.40909 93.5424 7.30296 93.4048 7.22353C93.2672 7.1441 93.1151 7.09297 92.9575 7.07316C92.7999 7.05334 92.6399 7.06522 92.4869 7.10812C92.3339 7.15101 92.191 7.22405 92.0667 7.32294C91.9423 7.42183 91.839 7.54458 91.7628 7.68397C91.3178 8.45463 90.9223 8.62444 90.5907 8.6618C90.2592 8.69913 89.8667 8.55881 89.5235 8.22735C88.8371 7.56443 88.4219 6.41116 89.6705 5.10355C89.6905 5.08369 89.7098 5.06312 89.7284 5.04189C90.9102 3.6105 93.7471 2.64298 95.8645 3.59812C98.316 4.83402 100.464 7.38708 102.864 9.86935C105.273 12.3601 108.041 14.8098 111.914 15.2402C113.988 15.4706 115.842 14.6471 117.402 13.5444C118.01 13.9041 118.584 14.365 119.252 14.4986C119.301 14.5083 119.351 14.5149 119.401 14.5184C123.428 14.8058 126.341 12.5666 128.981 10.1884C131.621 7.81017 134.141 5.23956 137.569 4.02479C137.578 4.02242 137.587 4.01994 137.596 4.01734C140.831 2.78488 144.368 2.07913 147.418 2.5237C150.448 2.96531 152.992 4.43367 154.752 7.82104C155.281 9.16962 155.435 10.5967 155.109 11.7363C154.393 14.2453 151.727 15.9272 148.982 16.4285C147.61 16.6792 146.255 16.6183 145.268 16.3039C144.283 15.9902 143.729 15.5063 143.51 14.8522C143.086 13.5311 143.372 12.6127 143.917 11.9108C144.456 11.2175 145.326 10.8237 145.952 10.7978C146.356 10.812 146.856 11.0026 147.12 11.651C147.177 11.799 147.263 11.9341 147.373 12.0485C147.482 12.1629 147.614 12.2543 147.759 12.3172C147.905 12.3801 148.062 12.4134 148.22 12.4151C148.379 12.4167 148.536 12.3867 148.683 12.3268C148.83 12.2669 148.963 12.1783 149.075 12.0663C149.188 11.9542 149.276 11.8208 149.336 11.6741C149.396 11.5273 149.426 11.37 149.425 11.2114C149.423 11.0528 149.39 10.8962 149.327 10.7506C148.697 9.20129 147.259 8.42089 145.967 8.39853C145.95 8.39818 145.934 8.39818 145.917 8.39853C144.456 8.4352 143.021 9.17999 142.036 10.4487C141.05 11.7174 140.596 13.5857 141.24 15.5859C141.24 15.5898 141.24 15.5937 141.24 15.5976C141.745 17.1202 143.064 18.1049 144.539 18.5744C145.46 18.8678 146.468 18.9926 147.509 18.9695L147.515 18.9691ZM10.8618 18.9691C11.9021 18.9922 12.9107 18.8674 13.832 18.574C15.3063 18.1045 16.6256 17.1198 17.1305 15.5972C17.1305 15.5933 17.1305 15.5894 17.1305 15.5855C17.7748 13.5853 17.3203 11.717 16.3349 10.4483C15.3497 9.1796 13.9144 8.43481 12.4539 8.39815C12.4376 8.39781 12.4213 8.39781 12.405 8.39815C11.1129 8.4205 9.67349 9.20091 9.0436 10.7502C8.9814 10.8957 8.94878 11.0521 8.94766 11.2104C8.94654 11.3686 8.97694 11.5255 9.03708 11.6719C9.09721 11.8183 9.18587 11.9512 9.29791 12.063C9.40995 12.1747 9.54314 12.2631 9.68967 12.3228C9.8362 12.3826 9.99316 12.4126 10.1514 12.411C10.3096 12.4095 10.466 12.3765 10.6113 12.3139C10.7567 12.2514 10.8881 12.1605 10.998 12.0466C11.1079 11.9327 11.194 11.7981 11.2513 11.6506C11.5151 11.0022 12.015 10.8116 12.4194 10.7975C13.045 10.8233 13.9153 11.2171 14.4539 11.9105C14.9989 12.6123 15.2848 13.5307 14.8606 14.8518C14.6419 15.506 14.0881 15.9898 13.103 16.3035C12.116 16.6179 10.7612 16.6788 9.38875 16.4282C6.64404 15.9268 3.97764 14.245 3.26192 11.7359C2.93654 10.5963 3.09157 9.16925 3.61899 7.82065C5.37929 4.43329 7.92352 2.96492 10.9533 2.5233C14.0032 2.07874 17.5401 2.7845 20.7748 4.01695C20.7839 4.01955 20.793 4.02203 20.8021 4.0244C24.23 5.23918 26.7501 7.80977 29.39 10.188C32.0296 12.5663 34.9442 14.8054 38.9713 14.518C39.0206 14.5145 39.0696 14.5079 39.1182 14.4982C39.7862 14.3646 40.3603 13.9037 40.9689 13.544C42.529 14.6467 44.3832 15.4702 46.4566 15.2398C50.3296 14.8095 53.0975 12.3598 55.5064 9.86897C57.9068 7.38671 60.0559 4.83365 62.5073 3.59775C64.6247 2.64261 67.4603 3.61025 68.6421 5.04151C68.6607 5.06278 68.68 5.08337 68.7 5.10326C69.9487 6.41086 69.5348 7.56414 68.8486 8.22705C68.5055 8.55852 68.1117 8.69884 67.7802 8.6615C67.4487 8.62417 67.0543 8.45434 66.6097 7.68367C66.5332 7.54472 66.4298 7.42242 66.3054 7.32395C66.1811 7.22547 66.0384 7.1528 65.8856 7.11018C65.7328 7.06755 65.5731 7.05584 65.4157 7.07573C65.2584 7.09561 65.1066 7.1467 64.9692 7.22598C64.8318 7.30527 64.7117 7.41117 64.6158 7.53748C64.5198 7.66379 64.4501 7.80797 64.4105 7.96158C64.371 8.11519 64.3626 8.27514 64.3857 8.43205C64.4087 8.58897 64.4629 8.73971 64.545 8.87544C65.2691 10.1299 66.3649 10.9 67.5125 11.0293C68.6601 11.1586 69.7337 10.6875 70.5052 9.94251C72.0383 8.46151 72.4311 5.62176 70.4431 3.50066C68.4913 1.16815 64.764 -0.0590161 61.5022 1.42819C61.4889 1.43322 61.4756 1.43849 61.4625 1.444C58.3496 3.00048 56.1081 5.81919 53.7946 8.21135C51.4813 10.6035 49.2001 12.534 46.1928 12.8682C45.0749 12.9924 43.964 12.5771 42.9245 11.9875C43.4678 11.3837 44.0558 10.8043 44.4312 10.1014C44.9926 9.05014 45.3415 7.87829 45.0706 6.67965C44.7993 5.48098 43.7795 4.45133 42.3389 3.99815C41.2587 3.65835 40.0658 3.80422 38.9816 4.39717C37.8976 4.99009 36.9556 6.26306 37.0575 7.84778C37.148 9.26231 37.9768 10.5964 39.0486 11.8208C38.9397 11.8643 38.7988 12.094 38.7035 12.1161C35.6763 12.2901 33.5056 10.6887 30.9845 8.41742C28.4367 6.1222 25.6699 3.22831 21.613 1.78525C18.1323 0.460421 14.2555 -0.368761 10.6077 0.162972C6.95578 0.695268 3.53556 2.7168 1.45278 6.77939C1.4366 6.81238 1.42195 6.8461 1.40889 6.88044C0.706573 8.63652 0.454644 10.5857 0.970643 12.3917C2.0211 16.0747 5.56875 18.1508 8.95999 18.7706C9.59543 18.8866 10.2312 18.9549 10.8553 18.9688L10.8618 18.9691ZM79.1904 12.8659C81.989 12.8659 84.2789 10.5744 84.279 7.7759C84.279 4.9774 81.989 2.68595 79.1904 2.68595C76.3918 2.68595 74.1003 4.9774 74.1003 7.7759C74.1003 10.5744 76.3918 12.8659 79.1904 12.8659ZM79.1904 10.8315C77.49 10.8315 76.1296 9.4763 76.1296 7.7759C76.1296 6.07551 77.49 4.7151 79.1904 4.7151C80.8906 4.71511 82.246 6.07551 82.246 7.7759C82.246 9.4763 80.8906 10.8315 79.1904 10.8315ZM117.404 10.1568C116.912 9.66989 116.336 9.52049 116.046 8.97685C115.653 8.24203 115.542 7.5785 115.627 7.20365C115.713 6.8288 115.866 6.54929 116.748 6.27177C117.016 6.18751 117.763 6.22567 118.246 6.48963C118.728 6.75365 118.982 7.00995 118.937 7.69584C118.901 8.25817 118.105 9.25378 117.404 10.1568ZM40.9723 10.1568C40.2714 9.25377 39.4768 8.25817 39.4406 7.69585C39.3975 7.00995 39.6483 6.75365 40.1309 6.48963C40.6138 6.2256 41.3609 6.18752 41.6286 6.27177C42.5108 6.5493 42.666 6.8288 42.7509 7.20365C42.8362 7.5785 42.7244 8.24203 42.3309 8.97686C42.0404 9.52048 41.4644 9.66988 40.9723 10.1568Z" fill="#2E2E2E"/>
</svg>
