<svg width="82" height="21" viewBox="0 0 82 21" xmlns="http://www.w3.org/2000/svg">
<g clip-path="url(#clip0_118_981)">
<path d="M23.5355 8.76583C23.2487 8.45954 22.9868 8.16234 22.706 7.8841C20.5052 5.7029 17.8489 4.43224 14.8209 3.9402C12.3009 3.5308 9.79518 3.60662 7.33766 4.35719C4.99605 5.07212 3.00067 6.31928 1.52766 8.32534C0.716263 9.43073 0.168312 10.6559 0.0343323 12.0365C-0.145561 13.8977 0.380569 15.5778 1.46444 17.0668C3.21745 19.4739 5.63358 20.6294 8.5668 20.6354C10.0022 20.6385 11.3608 20.2473 12.4958 19.2912C13.7957 18.1965 14.2157 16.0812 13.4314 14.5695C12.9181 13.5793 12.06 13.0645 10.995 12.8841C10.1045 12.7332 9.24497 12.8386 8.45917 13.3253C8.06626 13.5687 7.77271 13.9008 7.63723 14.3542C7.53787 14.6885 7.61766 14.8667 7.94056 14.9902C8.42831 15.1775 8.92884 15.2048 9.43539 15.0691C9.74475 14.9865 9.96228 14.8045 10.0963 14.502C10.1542 14.3716 10.2844 14.273 10.3815 14.1601C10.4681 14.2897 10.5855 14.408 10.6359 14.5513C10.7744 14.9455 10.7684 15.3549 10.6615 15.7552C10.3981 16.7393 9.85389 17.5247 8.99809 18.0805C8.66615 18.2958 8.32368 18.3375 7.94282 18.1904C5.78185 17.3557 4.55874 15.7454 4.21175 13.483C3.86099 11.1927 4.73035 9.31625 6.38476 7.79085C8.01433 6.28895 9.97884 5.49669 12.1564 5.27455C16.3345 4.84923 19.7788 6.37311 22.6511 9.37387C23.1742 9.92049 23.5099 10.4883 23.6183 11.292C23.96 13.8394 25.281 15.8416 27.2937 17.3898C29.152 18.8197 31.2761 19.6271 33.559 20.0335C36.9311 20.6339 40.203 20.2033 43.3974 19.0251C46.3141 17.9501 48.9439 16.3579 51.4361 14.5141C53.4924 12.9933 55.3726 11.2662 57.2506 9.53384C58.8523 8.05696 60.5368 6.68622 62.4396 5.61268C63.9141 4.78023 65.4632 4.16158 67.1567 3.9584C69.195 3.71276 71.0955 4.14945 72.8598 5.16992C75.2391 6.54672 76.8935 8.52625 77.5822 11.2336C78.0759 13.173 77.9713 15.0812 77.0628 16.9023C76.0926 18.8477 74.095 19.9501 71.9498 19.7613C69.6082 19.5551 67.923 18.3322 66.7164 16.3723C66.4063 15.8682 66.185 15.3071 65.9336 14.7673C65.8342 14.5535 65.6265 14.4618 65.3307 14.524C65.0974 14.5725 65.0379 14.7112 65.0537 14.9387C65.1922 16.9705 66.2603 18.4133 67.9094 19.4694C69.4961 20.4846 71.2596 20.925 73.1233 20.9918C74.9342 21.0562 76.6744 20.7469 78.2822 19.8742C80.4484 18.7006 81.6979 16.8712 81.9455 14.4057C82.2782 11.0911 81.0566 8.34278 78.7504 6.05393C76.6504 3.96977 74.0641 2.83255 71.1821 2.38675C67.6851 1.84543 64.2702 2.18281 60.9854 3.5634C58.9901 4.40192 57.2152 5.6051 55.5796 7.01147C53.9185 8.43983 52.3009 9.91973 50.6571 11.3686C48.253 13.4876 45.6938 15.3799 42.7967 16.7696C40.5635 17.8409 38.2302 18.527 35.732 18.4262C32.4819 18.2958 29.8031 17.0062 27.9071 14.2836C26.258 11.9159 26.0803 9.38827 27.3644 6.81359C28.6959 4.1449 30.8095 2.36856 33.699 1.61723C35.4769 1.15476 37.184 1.38979 38.6803 2.51716C40.3964 3.8098 41.0528 5.59752 40.8902 7.71579C40.8202 8.63164 40.5063 9.45195 39.8748 10.1328C39.4977 10.5391 39.0589 10.8485 38.5237 11.0054C37.8448 11.204 37.2246 11.082 36.6864 10.6225C36.1422 10.1578 35.7832 9.57705 35.7418 8.84164C35.7185 8.42921 35.793 8.37311 36.1919 8.33747C36.4049 8.31852 36.6217 8.28971 36.8242 8.22451C37.3368 8.06075 37.4489 7.48456 37.0267 7.14718C36.8648 7.01829 36.6541 6.92883 36.4516 6.87728C35.659 6.67485 34.8822 6.75218 34.1303 7.0744C33.4235 7.3769 33.0939 7.94324 33.0796 8.6885C33.0562 9.88334 33.6388 10.7696 34.5684 11.4459C35.4159 12.0623 36.3906 12.3269 37.4165 12.4148C38.9927 12.5505 40.5078 12.3307 41.9138 11.5611C43.718 10.574 44.6544 8.77796 44.4436 6.71427C44.1636 3.97887 42.6658 2.12595 40.2655 0.959915C38.6314 0.167648 36.8814 -0.0469082 35.0877 0.00843676C32.9968 0.0721214 30.9863 0.479248 29.1355 1.49669C26.3137 3.04786 24.5396 5.44361 23.6266 8.52019C23.6092 8.57781 23.5949 8.63694 23.5769 8.69456C23.5716 8.71048 23.5596 8.72413 23.5347 8.76583H23.5355Z" />
</g>
<defs>
<clipPath id="clip0_118_981">
<rect width="82" height="21" fill="white" transform="matrix(-1 0 0 1 82 0)"/>
</clipPath>
</defs>
</svg>
