<svg width="82" height="21" viewBox="0 0 82 21" xmlns="http://www.w3.org/2000/svg">
<g clip-path="url(#clip0_118_978)">
<path d="M58.4645 8.76583C58.7513 8.45954 59.0132 8.16234 59.294 7.8841C61.4948 5.7029 64.1511 4.43224 67.1791 3.9402C69.6991 3.5308 72.2048 3.60662 74.6623 4.35719C77.004 5.07212 78.9993 6.31928 80.4723 8.32534C81.2837 9.43073 81.8317 10.6559 81.9657 12.0365C82.1456 13.8977 81.6194 15.5778 80.5356 17.0668C78.7826 19.4739 76.3664 20.6294 73.4332 20.6354C71.9978 20.6385 70.6392 20.2473 69.5042 19.2912C68.2043 18.1965 67.7843 16.0812 68.5686 14.5695C69.0819 13.5793 69.94 13.0645 71.005 12.8841C71.8955 12.7332 72.755 12.8386 73.5408 13.3253C73.9337 13.5687 74.2273 13.9008 74.3628 14.3542C74.4621 14.6885 74.3823 14.8667 74.0594 14.9902C73.5717 15.1775 73.0712 15.2048 72.5646 15.0691C72.2552 14.9865 72.0377 14.8045 71.9037 14.502C71.8458 14.3716 71.7156 14.273 71.6185 14.1601C71.5319 14.2897 71.4145 14.408 71.3641 14.5513C71.2256 14.9455 71.2316 15.3549 71.3385 15.7552C71.6019 16.7393 72.1461 17.5247 73.0019 18.0805C73.3338 18.2958 73.6763 18.3375 74.0572 18.1904C76.2181 17.3557 77.4413 15.7454 77.7883 13.483C78.139 11.1927 77.2696 9.31625 75.6152 7.79085C73.9857 6.28895 72.0212 5.49669 69.8436 5.27455C65.6655 4.84923 62.2212 6.37311 59.3489 9.37387C58.8258 9.92049 58.4901 10.4883 58.3817 11.292C58.04 13.8394 56.719 15.8416 54.7063 17.3898C52.848 18.8197 50.7239 19.6271 48.441 20.0335C45.0689 20.6339 41.797 20.2033 38.6026 19.0251C35.6859 17.9501 33.0561 16.3579 30.5639 14.5141C28.5076 12.9933 26.6274 11.2662 24.7494 9.53384C23.1477 8.05696 21.4632 6.68622 19.5604 5.61268C18.0859 4.78023 16.5368 4.16158 14.8433 3.9584C12.805 3.71276 10.9045 4.14945 9.14017 5.16992C6.76093 6.54672 5.10652 8.52625 4.41781 11.2336C3.92405 13.173 4.02867 15.0812 4.93717 16.9023C5.90738 18.8477 7.90501 19.9501 10.0502 19.7613C12.3918 19.5551 14.077 18.3322 15.2836 16.3723C15.5937 15.8682 15.815 15.3071 16.0664 14.7673C16.1658 14.5535 16.3735 14.4618 16.6693 14.524C16.9026 14.5725 16.9621 14.7112 16.9463 14.9387C16.8078 16.9705 15.7397 18.4133 14.0906 19.4694C12.5039 20.4846 10.7404 20.925 8.87673 20.9918C7.06577 21.0562 5.32555 20.7469 3.71781 19.8742C1.55158 18.7006 0.30212 16.8712 0.0544857 14.4057C-0.278202 11.0911 0.943409 8.34278 3.24964 6.05393C5.34964 3.96977 7.93587 2.83255 10.8179 2.38675C14.3149 1.84543 17.7298 2.18281 21.0146 3.5634C23.0099 4.40192 24.7848 5.6051 26.4204 7.01147C28.0815 8.43983 29.6991 9.91973 31.3429 11.3686C33.747 13.4876 36.3062 15.3799 39.2033 16.7696C41.4365 17.8409 43.7698 18.527 46.268 18.4262C49.5181 18.2958 52.1969 17.0062 54.0929 14.2836C55.742 11.9159 55.9197 9.38827 54.6356 6.81359C53.3041 4.1449 51.1905 2.36856 48.301 1.61723C46.5231 1.15476 44.816 1.38979 43.3197 2.51716C41.6036 3.8098 40.9472 5.59752 41.1098 7.71579C41.1798 8.63164 41.4937 9.45195 42.1252 10.1328C42.5023 10.5391 42.9411 10.8485 43.4763 11.0054C44.1552 11.204 44.7754 11.082 45.3136 10.6225C45.8578 10.1578 46.2168 9.57705 46.2582 8.84164C46.2815 8.42921 46.207 8.37311 45.8081 8.33747C45.5951 8.31852 45.3783 8.28971 45.1758 8.22451C44.6632 8.06075 44.5511 7.48456 44.9733 7.14718C45.1352 7.01829 45.3459 6.92883 45.5484 6.87728C46.341 6.67485 47.1178 6.75218 47.8697 7.0744C48.5765 7.3769 48.9061 7.94324 48.9204 8.6885C48.9438 9.88334 48.3612 10.7696 47.4316 11.4459C46.5841 12.0623 45.6094 12.3269 44.5835 12.4148C43.0073 12.5505 41.4922 12.3307 40.0862 11.5611C38.282 10.574 37.3456 8.77796 37.5564 6.71427C37.8364 3.97887 39.3342 2.12595 41.7345 0.959915C43.3686 0.167648 45.1186 -0.0469082 46.9123 0.00843676C49.0032 0.0721214 51.0137 0.479248 52.8645 1.49669C55.6863 3.04786 57.4604 5.44361 58.3734 8.52019C58.3908 8.57781 58.4051 8.63694 58.4231 8.69456C58.4284 8.71048 58.4404 8.72413 58.4653 8.76583H58.4645Z" />
</g>
<defs>
<clipPath id="clip0_118_978">
<rect width="82" height="21"/>
</clipPath>
</defs>
</svg>
