<svg width="27" height="27" viewBox="0 0 27 27" fill="none" xmlns="http://www.w3.org/2000/svg">
<g clip-path="url(#clip0_196_1815)">
<path d="M27 13.5C27 6.04336 20.9566 0 13.5 0C6.04336 0 0 6.04336 0 13.5C0 19.8281 4.36113 25.1437 10.241 26.6045V17.6238H7.45664V13.5H10.241V11.7229C10.241 7.12969 12.3188 4.99922 16.8328 4.99922C17.6871 4.99922 19.1637 5.16797 19.7701 5.33672V9.07031C19.4537 9.03867 18.9 9.01758 18.2092 9.01758C15.9943 9.01758 15.14 9.85605 15.14 12.034V13.5H19.5486L18.7893 17.6238H15.1348V26.8998C21.8215 26.093 27 20.4029 27 13.5Z" fill="white"/>
</g>
<defs>
<clipPath id="clip0_196_1815">
<rect width="27" height="27" fill="white"/>
</clipPath>
</defs>
</svg>
