<svg width="27" height="32" viewBox="0 0 27 32" fill="none" xmlns="http://www.w3.org/2000/svg">
<g clip-path="url(#clip0_196_1813)">
<path d="M13.506 8.81269C9.673 8.81269 6.58125 12.0189 6.58125 15.9939C6.58125 19.9689 9.673 23.1752 13.506 23.1752C17.3391 23.1752 20.4308 19.9689 20.4308 15.9939C20.4308 12.0189 17.3391 8.81269 13.506 8.81269ZM13.506 20.6627C11.029 20.6627 9.00402 18.5689 9.00402 15.9939C9.00402 13.4189 11.023 11.3252 13.506 11.3252C15.9891 11.3252 18.008 13.4189 18.008 15.9939C18.008 18.5689 15.983 20.6627 13.506 20.6627ZM22.3292 8.51894C22.3292 9.45019 21.606 10.1939 20.7141 10.1939C19.8161 10.1939 19.0989 9.44394 19.0989 8.51894C19.0989 7.59394 19.8221 6.84394 20.7141 6.84394C21.606 6.84394 22.3292 7.59394 22.3292 8.51894ZM26.9156 10.2189C26.8132 7.97519 26.319 5.98769 24.7339 4.35019C23.1549 2.71269 21.2384 2.20019 19.0748 2.08769C16.8449 1.95644 10.1612 1.95644 7.93125 2.08769C5.77366 2.19394 3.85715 2.70644 2.2721 4.34395C0.687057 5.98145 0.198888 7.96895 0.090406 10.2127C-0.0361563 12.5252 -0.0361557 19.4564 0.090407 21.7689C0.192863 24.0127 0.687059 26.0002 2.2721 27.6377C3.85715 29.2752 5.76764 29.7877 7.93126 29.9002C10.1612 30.0314 16.8449 30.0314 19.0748 29.9002C21.2384 29.7939 23.1549 29.2814 24.7339 27.6377C26.313 26.0002 26.8071 24.0127 26.9156 21.7689C27.0422 19.4564 27.0422 12.5314 26.9156 10.2189ZM24.0348 24.2502C23.5647 25.4752 22.6547 26.4189 21.4674 26.9127C19.6895 27.6439 15.4708 27.4752 13.506 27.4752C11.5413 27.4752 7.31652 27.6377 5.54465 26.9127C4.3634 26.4252 3.45335 25.4814 2.97724 24.2502C2.2721 22.4064 2.43483 18.0314 2.43483 15.9939C2.43483 13.9564 2.27813 9.5752 2.97724 7.73769C3.44733 6.5127 4.35737 5.56894 5.54465 5.07519C7.32255 4.34394 11.5413 4.51269 13.506 4.51269C15.4708 4.51269 19.6955 4.35019 21.4674 5.07519C22.6487 5.56269 23.5587 6.50644 24.0348 7.73769C24.74 9.58144 24.5772 13.9564 24.5772 15.9939C24.5772 18.0314 24.74 22.4127 24.0348 24.2502Z" fill="white"/>
</g>
<defs>
<clipPath id="clip0_196_1813">
<rect width="27" height="32" fill="white"/>
</clipPath>
</defs>
</svg>
