<svg width="22" height="22" viewBox="0 0 22 22" xmlns="http://www.w3.org/2000/svg">
<g clip-path="url(#clip0_118_1008)">
<path d="M16.7096 13.4513C16.2182 13.3322 15.7232 13.6392 15.6068 14.1315C15.4895 14.6237 15.7947 15.1178 16.287 15.2342C19.1341 15.9098 20.1663 16.9089 20.1663 17.4167C20.1663 18.5121 16.5107 20.1667 10.9998 20.1667C5.48979 20.1667 1.83331 18.5121 1.83331 17.4167C1.83331 16.9089 2.86639 15.9098 5.71164 15.2342C6.20478 15.1178 6.50912 14.6237 6.39178 14.1315C6.27538 13.6392 5.78039 13.3321 5.28905 13.4513C1.87821 14.2598 0 15.6678 0 17.4167C0 20.4252 5.53474 22 10.9998 22C16.4658 22 21.9996 20.4252 21.9996 17.4167C21.9996 15.6678 20.1214 14.2598 16.7096 13.4513Z" />
<path d="M11.0001 7.3338C11.5061 7.3338 11.9168 6.92316 11.9168 6.41717C11.9168 5.91118 11.5061 5.50053 11.0001 5.50053C10.4941 5.50053 10.0835 5.91118 10.0835 6.41717C10.0835 6.92316 10.4941 7.3338 11.0001 7.3338Z" />
<path d="M9.80685 17.0805L10.1799 17.8267C10.3358 18.1374 10.6529 18.3335 11.0003 18.3335C11.3477 18.3335 11.6649 18.1374 11.8207 17.8267L12.6109 16.2463C13.5724 14.3223 14.7586 12.4588 15.9053 10.6566L16.4278 9.83436C17.0749 8.81138 17.4169 7.62981 17.4169 6.41708C17.4169 4.59112 16.635 2.8458 15.2719 1.62852C13.9098 0.412144 12.0774 -0.170802 10.2505 0.0436941C7.3979 0.368188 5.04214 2.6653 4.64705 5.50509C4.41331 7.18805 4.83405 8.85912 5.83043 10.2121C7.3851 12.3185 8.59872 14.6624 9.80685 17.0805ZM11.0003 3.66718C12.5165 3.66718 13.7503 4.901 13.7503 6.41712C13.7503 7.93325 12.5165 9.16707 11.0003 9.16707C9.48421 9.16707 8.25038 7.93325 8.25038 6.41712C8.25038 4.901 9.48421 3.66718 11.0003 3.66718Z" />
</g>
<defs>
<clipPath id="clip0_118_1008">
<rect width="22" height="22" />
</clipPath>
</defs>
</svg>
