<svg width="27" height="28" viewBox="0 0 27 28" fill="none" xmlns="http://www.w3.org/2000/svg">
<g clip-path="url(#clip0_196_1817)">
<path d="M13.5 0.4375C6.04234 0.4375 0 6.50781 0 14C0 21.4922 6.04234 27.5625 13.5 27.5625C20.9577 27.5625 27 21.4922 27 14C27 6.50781 20.9577 0.4375 13.5 0.4375ZM19.7601 9.66328C19.5587 11.807 18.6768 17.0133 18.2304 19.4141C18.0399 20.4312 17.6698 20.7703 17.3105 20.8031C16.5266 20.8742 15.9333 20.2836 15.1712 19.7805C13.9845 18.9984 13.3095 18.5117 12.1609 17.7461C10.8272 16.8656 11.6927 16.3789 12.4494 15.5859C12.6508 15.3781 16.102 12.2227 16.1673 11.9383C16.1782 11.9 16.1837 11.7687 16.102 11.6977C16.0204 11.6266 15.906 11.6539 15.8244 11.6703C15.7046 11.6958 13.8067 12.9555 10.1304 15.4492C9.59335 15.8211 9.10524 16.0016 8.66613 15.9906C8.18165 15.9797 7.25625 15.7172 6.56492 15.493C5.72117 15.2195 5.04617 15.0719 5.10605 14.6016C5.13508 14.3573 5.47077 14.1076 6.1131 13.8523C10.047 12.1315 12.6708 10.9958 13.9845 10.4453C17.7351 8.88125 18.5135 8.60781 19.0198 8.59688C19.1341 8.59688 19.379 8.62422 19.5423 8.75547C19.6489 8.84961 19.7168 8.98021 19.7329 9.12187C19.7623 9.30073 19.7714 9.48236 19.7601 9.66328Z" fill="white"/>
</g>
<defs>
<clipPath id="clip0_196_1817">
<rect width="27" height="28" fill="white"/>
</clipPath>
</defs>
</svg>
