<svg width="102" height="128" viewBox="0 0 102 128" fill="none" xmlns="http://www.w3.org/2000/svg">
<g clip-path="url(#clip0_422_2480)">
<path d="M30.0082 118.215C24.1771 116.992 18.3319 115.854 12.5294 114.518C9.38629 113.792 6.30013 112.825 3.25662 111.744C2.68774 111.545 2.14731 110.308 2.17575 109.568C2.30375 106.994 2.54552 104.406 3.01485 101.874C3.8255 97.5789 4.80682 93.298 5.81658 89.0455C6.38546 86.6562 7.26722 84.338 7.80765 81.9344C8.20587 80.1424 8.26276 78.2651 8.50453 76.4304C9.15874 71.666 9.85562 66.9157 10.4814 62.1513C11.3063 55.8935 12.1027 49.6357 12.8565 43.3637C13.596 37.1629 14.2787 30.9477 14.9755 24.7326C15.004 24.5051 14.9755 24.2633 14.9755 23.8651C13.1125 23.7229 11.292 23.4953 9.48585 23.4953C7.59433 23.4953 5.7028 23.7371 3.81128 23.8509C2.27531 23.9362 1.50732 23.0686 1.32243 21.4757C1.22288 20.6082 0.739333 19.7975 0.42645 18.9584C0.298452 18.5886 -0.0286532 18.2046 -0.000209217 17.8491C0.270008 13.5255 0.881553 9.24464 3.12863 5.47575C5.30459 1.79219 8.7463 0.142415 13.0698 0.327304C16.0422 0.455304 19.0288 0.469526 22.0012 0.42686C32.4828 0.29886 42.9502 0.0570819 53.4175 0.000193046C58.893 -0.0282514 64.3684 0.185082 69.8439 0.412637C73.4705 0.55486 77.0971 0.881971 80.7237 1.20908C81.2073 1.25175 81.7761 1.64997 82.1175 2.03397C82.9566 2.98686 83.5254 4.22419 84.4783 5.00641C87.7209 7.6233 89.5556 11.0651 90.6933 14.9477C93.4382 24.3344 95.1448 33.906 95.4435 43.7051C95.5999 49.0953 95.8417 54.4855 96.2826 59.8615V53.0206C96.3821 53.0206 96.4817 53.0206 96.5812 53.0064C96.9794 60.018 97.207 67.0437 97.8328 74.0411C98.3732 80.0855 99.3972 86.0731 100.108 92.1033C100.265 93.3975 99.8238 94.7486 99.9234 96.0571C100.265 100.736 100.691 105.415 101.146 110.08C101.26 111.275 101.587 112.455 101.815 113.636C101.559 113.693 101.317 113.75 101.061 113.806C100.748 112.654 100.307 111.517 100.151 110.35C98.7003 98.9015 97.2923 87.4526 95.8986 75.9895C95.6995 74.3824 94.9457 72.4909 95.5288 71.2109C96.439 69.2197 95.9412 67.442 95.799 65.6073C94.903 53.7317 94.007 41.8562 92.9262 29.9949C92.2435 22.4997 90.1813 15.3744 86.0285 8.97441C85.9005 8.78953 85.7441 8.61886 85.4739 8.30597C85.7298 11.0082 86.2561 13.5255 86.1281 16.0002C85.7014 24.1353 84.5921 32.1424 81.0366 39.6233C76.386 49.4509 73.6412 59.89 71.5505 70.4855C70.6972 74.8375 70.4554 79.3033 69.9577 83.7264C69.9008 84.2242 69.9577 84.7362 70.3132 85.3193C70.5266 84.6224 70.7541 83.9255 71.0386 83.0295C69.1897 97.5931 67.3551 111.958 65.5204 126.322C67.6964 126.706 69.4315 126.137 73.0154 123.805C72.7736 124.302 72.6456 124.573 72.4465 124.957C72.7167 124.957 72.9443 125.014 73.115 124.957C77.1113 123.478 81.0366 121.799 85.1183 120.562C88.0907 119.652 91.248 119.339 94.8461 118.656C91.888 119.822 89.3991 120.804 86.6969 121.87C89.0436 122.084 95.3155 119.595 102.028 116.31C101.246 117.035 100.578 118.13 99.6389 118.443C95.0026 120.05 90.3804 122.07 85.5876 122.795C79.3157 123.748 73.4136 125.796 67.4404 127.616C65.4209 128.228 63.6716 128.185 61.7232 127.502C59.2485 126.635 56.7028 126.009 54.0575 125.639C55.2237 126.18 56.4041 126.706 57.5703 127.246C57.5277 127.346 57.485 127.46 57.4423 127.559C54.342 126.336 51.2842 124.957 48.1127 123.933C43.263 122.368 38.3138 121.046 33.4357 119.581C32.7814 119.382 32.2126 118.912 31.601 118.571C38.0294 120.164 44.4435 121.757 50.8718 123.35C50.8718 122.98 50.8007 122.88 50.7153 122.838C44.2586 120.619 37.7307 118.628 30.9041 117.817C30.6339 117.789 30.321 118.087 30.0224 118.23L30.0082 118.215ZM68.891 25.4864C68.8199 25.6713 68.7346 25.8562 68.6635 26.0411C67.7391 25.7424 66.7577 25.586 65.9186 25.1309C62.6476 23.3673 59.0779 23.41 55.5366 23.4384C54.214 23.4384 52.9055 24.1069 51.5687 24.1353C46.6621 24.2206 41.7697 24.1637 36.8631 24.1637C36.8205 24.3344 36.7778 24.4909 36.7352 24.6615C39.8213 25.7566 42.8933 26.8375 46.3492 28.0606C44.671 27.8046 43.263 27.8046 42.0115 27.3637C40.0347 26.6811 38.1431 25.714 36.2232 24.8606C34.2747 23.9789 31.7148 23.7229 30.1646 24.2064C33.6632 25.4011 37.3183 26.6526 40.9733 27.89C40.9164 28.0322 40.8595 28.1886 40.8169 28.3309C37.2187 27.1646 33.6205 25.9984 30.0082 24.8606C28.8562 24.5051 27.6758 24.1069 26.4811 24.0215C24.7603 23.8793 23.0109 24.0073 21.2759 24.0073C19.427 24.0073 17.5782 24.0073 15.6155 24.0073V30.7202C16.3551 29.4117 16.9097 28.4589 17.4502 27.4917C17.4786 27.5202 17.5213 27.5344 17.5497 27.5629C16.6964 29.7531 15.8431 31.9291 14.9898 34.1193C15.1604 34.1904 15.3311 34.2473 15.5017 34.3184C16.2413 32.7255 16.9808 31.1326 17.7346 29.5397C17.4075 33.3229 14.1791 36.1673 14.5773 40.434C15.5871 38.642 16.4831 37.0491 17.3648 35.4562C16.8528 37.4046 15.9711 39.1682 15.0609 40.9033C14.748 41.5006 14.1364 42.0269 14.0511 42.6526C13.2831 48.7966 12.6005 54.9549 11.9178 61.0989C11.7614 62.5211 11.6618 63.9575 11.5338 65.394C11.7329 65.4509 11.932 65.5077 12.1311 65.5646C13.8093 61.7957 15.5017 58.0126 17.1799 54.2437C15.644 59.5771 13.8947 64.7824 12.3302 70.0589C9.8414 78.4357 6.997 86.7131 5.77391 95.4313C5.29037 98.9015 4.13839 102.301 3.12863 105.671C2.06198 109.213 2.70197 110.692 6.0868 111.787C6.71256 111.986 7.36677 112.171 7.9641 112.427C14.108 115.058 20.6928 115.655 27.2775 116.352C22.3852 115.158 17.4786 113.963 12.5862 112.768C12.6289 112.626 12.6573 112.484 12.7 112.342C28.3015 115.57 43.903 118.827 58.7365 124.999C57.9828 124.9 57.2148 124.8 56.461 124.701C58.3526 125.54 60.2441 126.194 62.164 126.791C63.2307 127.133 64.6244 126.294 64.7382 125.255C65.2075 121.131 65.6342 117.006 66.1178 112.882C66.5729 108.957 67.0848 105.031 67.5684 101.106C67.995 97.5931 68.7773 94.066 68.763 90.5531C68.7204 79.346 69.9577 68.338 73.2856 57.6144C74.1247 54.9122 75.3763 52.3095 75.8598 49.5504C78.1922 36.4802 82.3592 23.7797 83.5397 10.482C83.6677 8.97441 84.1228 7.12553 82.7575 6.64197C81.1077 6.05886 81.4917 4.05353 79.9842 3.72641C79.5291 3.62686 78.946 3.44197 78.5904 3.61264C76.4713 4.6793 74.1105 5.50419 72.3896 7.05441C69.6875 9.47219 70.7683 14.4215 74.0109 16.1282C76.3007 17.3371 78.5478 18.6171 80.809 19.8686C80.7379 20.0109 80.6526 20.1531 80.5815 20.2953C78.2633 19.058 75.9451 17.8349 73.5274 16.5406C73.371 18.0624 73.627 18.8162 75.0776 19.2713C76.7558 19.8117 78.2349 20.9495 79.7993 21.8171C79.7282 21.9735 79.6571 22.1157 79.5717 22.2722C77.8935 21.4473 76.2154 20.6082 74.4945 19.7549C74.0536 20.722 76.0447 22.4002 73.4421 22.4429C73.6981 23.5095 73.6554 24.434 72.0483 24.0926C71.3657 23.9504 70.6403 23.9504 69.9435 23.8935C69.9435 24.05 69.915 24.2064 69.9008 24.3629C70.5692 24.7184 71.2519 25.074 71.9203 25.4153C71.8919 25.5006 71.8634 25.586 71.835 25.6713L67.7106 24.306C67.6822 24.4055 67.6537 24.5051 67.6253 24.6046C68.0235 24.9033 68.4359 25.2162 68.8341 25.5149L68.891 25.4864ZM2.47441 22.3006C4.46549 22.4855 6.17213 22.6277 7.87876 22.7984C10.9507 23.0971 13.9942 22.4286 17.0946 22.7273C20.5221 23.0544 23.9923 23.0402 27.434 23.026C31.7717 23.0117 36.1094 22.8411 40.4471 22.7415C42.9644 22.6846 45.4817 22.7415 47.9847 22.5566C54.8824 22.0304 61.7658 21.5753 68.6777 22.4855C69.659 22.6135 70.6688 22.6704 71.9061 22.7842C71.9061 21.0349 72.475 19.1149 71.7781 17.9771C70.4981 15.9006 69.8581 13.8811 69.9719 11.506C70.0003 10.9797 69.7301 10.4393 69.7159 9.91308C69.7159 9.38686 69.659 8.70419 69.9435 8.34864C71.4083 6.57086 72.9727 4.87841 74.3523 3.31397C74.5656 3.31397 74.2812 3.31397 74.0109 3.31397C61.6521 3.95397 49.3216 4.26686 36.92 3.25708C27.7184 2.5033 18.4172 2.95842 9.17296 2.71664C6.64145 2.64553 5.04859 3.6553 4.29483 5.85975C3.12863 9.31575 2.16153 12.8429 1.18021 16.3557C1.03799 16.882 1.1091 17.906 1.39354 18.0482C3.28507 18.9869 2.82996 20.5371 2.46019 22.3006H2.47441ZM21.2332 1.62153C37.304 2.44642 56.1624 4.15308 75.0776 1.62153H21.2332ZM83.7388 20.8357C82.7859 25.0171 81.9041 28.8286 80.9513 32.9957C83.3406 29.1557 84.3645 25.3869 83.7388 20.8357ZM10.6663 70.1726C10.4103 70.13 10.1685 70.1015 9.91251 70.0589L9.1303 75.6482C9.91251 73.8562 10.8227 72.0926 10.6663 70.1726Z" fill="#2E2E2E"/>
<path d="M86.6114 117.874C83.8666 119.822 80.7519 120.206 77.4951 119.78V119.225C78.3769 119.225 79.2729 119.282 80.1546 119.211C81.2213 119.125 82.3021 118.969 83.3403 118.741C84.4354 118.514 85.5163 118.172 86.6114 117.874Z" fill="#2E2E2E"/>
<path d="M87.8342 110.791C85.1605 112.014 82.4867 113.252 79.8272 114.475C79.7135 114.204 79.5855 113.948 79.4717 113.678C82.1739 112.583 84.876 111.488 87.5782 110.393C87.6635 110.521 87.7489 110.649 87.8342 110.791Z" fill="#2E2E2E"/>
<path d="M78.4902 111.218C80.8795 109.938 83.3826 108.601 85.7292 107.349C84.6057 109.042 81.0929 110.948 78.4902 111.218Z" fill="#2E2E2E"/>
<path d="M80.567 104.519C82.2878 103.111 84.0229 101.703 85.7438 100.309C85.8433 100.437 85.9571 100.565 86.0566 100.693C84.35 102.116 82.6434 103.552 80.9225 104.974C80.7945 104.818 80.6807 104.676 80.5527 104.519H80.567Z" fill="#2E2E2E"/>
<path d="M18.0049 51.456C16.2699 54.7698 14.5206 58.0835 12.7855 61.3973L12.373 61.1982C14.0655 57.8418 15.7579 54.4711 17.4361 51.1147C17.621 51.2284 17.8201 51.3564 18.0049 51.4702V51.456Z" fill="#2E2E2E"/>
<path d="M55.4653 28.416C52.5783 27.2356 49.7054 26.0551 46.8184 24.8747C46.8752 24.7182 46.9464 24.5618 47.0032 24.4053C49.9045 25.5431 52.8058 26.6667 55.7071 27.8044C55.6218 28.0036 55.5507 28.2169 55.4653 28.416Z" fill="#2E2E2E"/>
<path d="M28.6716 25.2444C31.9569 26.3538 35.2422 27.4631 38.5132 28.5724C38.4706 28.7147 38.4137 28.8569 38.371 28.9991C35.0857 27.9324 31.8005 26.8658 28.501 25.8133C28.5579 25.6284 28.6005 25.4293 28.6574 25.2444H28.6716Z" fill="#2E2E2E"/>
<path d="M20.152 25.5147C23.2666 26.2684 26.367 27.0222 29.4816 27.776C29.4532 27.8756 29.4389 27.9893 29.4105 28.0889C26.2817 27.4489 23.1528 26.7947 20.0098 26.1547C20.0524 25.9413 20.0951 25.728 20.1378 25.5004L20.152 25.5147Z" fill="#2E2E2E"/>
<path d="M81.6626 12.2311C79.5578 10.9795 77.4529 9.74221 75.3623 8.49066C75.4761 8.30577 75.5899 8.12088 75.7036 7.93599C77.8085 9.21599 79.9133 10.496 82.0182 11.776C81.9044 11.9324 81.7906 12.0747 81.6769 12.2311H81.6626Z" fill="#2E2E2E"/>
<path d="M18.7724 38.2435L14.3067 46.7484C14.1502 46.6631 13.9938 46.592 13.8516 46.5067L18.3173 38.016C18.4737 38.1013 18.6159 38.1724 18.7724 38.2578V38.2435Z" fill="#2E2E2E"/>
<path d="M61.5807 28.1315L55.707 25.7849C55.7924 25.5715 55.8777 25.3582 55.963 25.1449C57.9257 25.9271 59.8741 26.7093 61.8367 27.4915C61.7514 27.7049 61.666 27.9182 61.5807 28.1315Z" fill="#2E2E2E"/>
<path d="M76.7133 10.7378C78.2635 11.9182 79.7853 13.0702 81.307 14.2222C81.179 14.3929 81.0511 14.5636 80.9231 14.7342C79.444 13.5396 77.9791 12.3591 76.5142 11.1644C76.5 11.1644 76.5853 11.008 76.7133 10.752V10.7378Z" fill="#2E2E2E"/>
<path d="M63.6717 26.3395L58.0967 24.7751C58.1678 24.5618 58.2389 24.3342 58.31 24.1209C60.1304 24.7751 61.9366 25.4151 63.757 26.0693C63.7286 26.1547 63.7001 26.2542 63.6717 26.3395Z" fill="#2E2E2E"/>
<path d="M73.6121 12.5013C75.3757 13.5538 77.1392 14.6062 78.9027 15.6587C78.8316 15.7867 78.7605 15.9004 78.6894 16.0284C76.8974 14.976 75.1054 13.9378 73.3135 12.8853C73.413 12.7573 73.5126 12.6293 73.6121 12.5013Z" fill="#2E2E2E"/>
<path d="M13.9092 49.664C14.99 47.9431 16.0709 46.2222 17.1518 44.5013L17.4931 44.7147C16.4122 46.464 15.3314 48.2133 14.2647 49.9627C14.151 49.8631 14.0372 49.7778 13.9092 49.6782V49.664Z" fill="#2E2E2E"/>
<path d="M8.94531 19.2995C10.1542 19.0578 11.363 18.5884 12.5719 18.6169C19.9958 18.7449 27.4054 18.9867 34.8293 19.1858C35.0426 19.1858 35.2702 19.2284 35.4835 19.2569C35.4835 19.3991 35.4835 19.5555 35.4835 19.6978H9.05909C9.01642 19.5698 8.97376 19.4275 8.94531 19.2995Z" fill="#2E2E2E"/>
<path d="M57.4993 18.4035C61.4814 18.5742 65.4778 18.7591 69.46 18.9298C69.46 19.1573 69.4457 19.3849 69.4315 19.6124C65.4351 19.4275 61.4388 19.2427 57.4424 19.072C57.4566 18.8444 57.4708 18.6311 57.4993 18.4035Z" fill="#2E2E2E"/>
</g>
<defs>
<clipPath id="clip0_422_2480">
<rect width="102" height="128" fill="white"/>
</clipPath>
</defs>
</svg>
