<?xml version="1.0" encoding="UTF-8"?>
<svg fill="#ffffff" xmlns="http://www.w3.org/2000/svg" viewBox="0 0 660.24 660.24">
  <g>
    <path d="M405.94,168.07c1.23,3.12,2.44,6.26,3.69,9.37,.96,2.41,2.33,4.71,2.9,7.2,1.84,7.99,3.48,16.04,5.04,24.1,.93,4.81,3.33,8.01,8.05,9.86,7.65,2.99,13.37,8.48,18.23,15.04,1.48,2,3.63,3.98,5.91,4.83,5.8,2.18,10.46,5.72,13.13,11.1,4.87,9.81,11.79,14.46,22.92,11.19,1.61-.47,3.57-.53,5.19-.1,7.19,1.88,14.43,2.56,21.85,1.93,2.74-.23,4.06,1.49,4.68,4.29,.56,2.53,1.97,4.89,3.15,7.26,2.86,5.75,5.91,11.17,3.72,18.26-2.81,9.12-2.83,18.23-.27,27.89,8.61,32.54,5.42,63.35-16.37,90.59-.23,.29-.42,.65-.71,.86-8.97,6.53-11.87,16.49-15.24,26.31-6.65,19.38-17.87,35.12-37.09,43.87-7.25,3.3-14.71,6.18-22.23,8.83-4.8,1.69-9.81,3.19-14.84,3.77-9.76,1.14-16.27,7.61-23.54,13.01-11.2,8.32-22.97,15.62-37.25,17.18-3.91,.43-7.93-.02-11.89-.26-2.23-.13-4.44-.93-6.66-.94-13.31-.08-25.37-4.61-37.36-9.81-4.34-1.88-9.3-3.04-14.02-3.2-17.12-.57-30.72-8.49-42.02-20.34-6.42-6.74-13.25-10.94-22.34-13.46-16.41-4.55-28.2-16-35.92-30.87-4.19-8.07-9.04-13.13-17.9-16.85-22.44-9.42-35.65-27.09-38.17-51.75-.91-8.87,.56-17.65,3.49-26.14,1.06-3.06,2.03-6.16,2.86-9.29,1.04-3.97,.67-7.78-.96-11.67-7.74-18.42-4.73-35.61,6.4-51.74,.85-1.23,1.68-2.49,2.63-3.64,5.73-6.88,10.66-13.9,12.47-23.2,1.63-8.37,7.8-14.71,14.04-20.35,4.07-3.68,6.33-7.93,7.92-13.11,2.45-7.97,5.39-15.83,8.76-23.46,7.47-16.9,20.34-28.44,37.24-35.51,7.1-2.97,14.51-4.05,22.31-3.53,7.8,.52,14.24-3.68,20.95-7.07,8.32-4.19,16.83-8.22,25.64-11.16,11.84-3.95,24.21-3.61,36.26-.8,11.63,2.71,22.97,1.91,34.43-.48,7.75-1.62,15.66-2.31,23.33,0,3.17,.96,6.5,2.9,8.67,5.35,6.53,7.4,10.4,16.06,10.03,26.2-.36,.14-.72,.28-1.08,.42Zm103.07,136.43c.29-4.79-2.96-8.85-7.38-9.02-5.55-.21-11.12,.14-16.68,.25-2.36,.05-4.77,.4-7.09,.08-11.07-1.5-20.41-6.39-27.62-14.98-1.9-2.26-3.95-3.32-6.94-3.67-9.38-1.09-16.84-5.52-21.02-14.22-2.19-4.56-3.74-9.46-5.32-14.29-1.12-3.43-2.86-5.52-6.57-6.76-20.63-6.91-33.11-26.78-29-46.88,1.43-6.99,.75-12.97-2.78-18.93-5.01-8.46-3.47-16.45,1.97-24.11,.81-1.13,1.39-2.42,2.44-4.27-2.61-.16-4.46-.54-6.25-.34-5.57,.62-11.14,1.32-16.66,2.25-7.65,1.29-15.33,2.91-22.99,.73-23.13-6.58-44.52-1.94-64.62,10.06-8.65,5.16-17.67,7.59-27.7,7.69-5.26,.05-10.86,.77-15.68,2.73-10.08,4.11-18.52,10.76-24.87,19.78-6.8,9.66-10.27,20.77-13.31,31.96-2.11,7.79-5.49,14.1-12.55,18.67-4.89,3.17-7.76,8.4-9.5,14.67,2.18-.27,3.64-.45,5.09-.62,2.46-.28,4.56,.3,5.48,2.83,.95,2.63-.12,4.79-2.4,6.06-9.65,5.37-13.88,14.71-17.72,24.23-2.48,6.14-3.62,12.91-.87,19.02,3.71,8.24,8.07,16.31,13.12,23.79,3.65,5.41,8.98,9.66,13.33,14.63,.93,1.06,.82,3.03,1.19,4.57-1.5,.25-3.02,.79-4.48,.66-1.15-.11-2.38-.87-3.29-1.67-11.87-10.46-23.1-21.45-27.98-37.15-1.42-4.56-2.42-9.25-3.86-14.86-2.86,6.42-3.17,12.22-1.37,17.84,5.31,16.61,13.88,31.15,28.12,41.81,1.74,1.3,4.08,2.92,2.45,4.99-.96,1.22-4.3,1.78-5.86,1.07-3.33-1.51-6.39-3.83-9.22-6.21-3.77-3.17-7.23-6.72-11.54-10.77,1.16,2.76,1.68,4.99,2.89,6.75,8.15,11.85,17.91,21.87,32.28,25.87,5.5,1.53,11.22,2.34,16.86,3.3,2.82,.48,5.77,.3,8.53,.98,1.24,.31,2.82,1.89,2.99,3.07,.12,.87-1.64,2.34-2.86,2.97-1.14,.58-2.67,.47-4.04,.56-21.87,1.31-39.49-7.55-54.43-22.78-2.05-2.09-3.96-4.34-6.02-6.61-3.15,6.28-2.46,11.14,1.91,15.35,.81,.78,1.46,1.71,2.27,2.49,10.83,10.44,23.26,17.87,38.32,20.38,1.47,.25,3.07,.29,4.36,.93,1.09,.54,2.45,1.76,2.53,2.77,.07,.84-1.42,2.44-2.42,2.63-3.01,.57-6.21,1.22-9.16,.75-9.98-1.62-19.07-5.74-27.6-11.08-3.1-1.94-6.08-4.08-9.3-6.26-.07,.7-.22,1.09-.12,1.4,.27,.83,.58,1.65,.98,2.42,8.87,16.91,22.89,26.67,41.64,29.56,4.65,.72,9.46,.32,14.16,.76,1.56,.15,3.19,1.12,4.44,2.15,.45,.37,.29,2.48-.28,2.95-2.94,2.39-1.47,4.42,.37,6.27,8.11,8.17,17.06,14.92,28.8,17.1,4.15,.77,8.26,1.95,12.24,3.35,1.36,.48,2.27,2.22,3.38,3.39-1.48,.88-2.92,2.38-4.46,2.5-3.46,.26-7.02,.17-10.44-.37-16.1-2.51-28.61-11.1-38.82-23.44-.77-.93-1.57-1.82-2.36-2.73-.4,.89-.35,1.39-.14,1.81,8.05,16.9,20.31,28.57,39.51,31.32,5,.72,8.72,2.93,12.01,6.76,4.05,4.71,8.41,9.24,13.13,13.27,8.08,6.91,17.48,11.3,28.29,11.14,6.2-.09,11.75,1.37,17.34,3.75,6.86,2.92,13.9,5.45,20.93,7.96,1.46,.52,3.22,.22,5.66,.33-1.34-1.92-2.13-3.01-2.87-4.13-4.31-6.56-8.77-13.03-12.82-19.75-1.97-3.28-3.54-6.93-4.53-10.61-.43-1.59,.54-4.43,1.84-5.39,2.08-1.52,3.52,.69,4.56,2.45,1.95,3.34,3.74,6.78,5.82,10.03,2.2,3.45,6.64,5.15,11.08,4.21-2.53-3.21-4.9-6.21-7.24-9.23-.82-1.06-1.73-2.11-2.31-3.31-1.47-3.01-2.82-6.08-4.15-9.15-.84-1.93-1.87-3.86-2.25-5.89-.5-2.74,1.38-4.07,3.87-2.82,1.26,.64,2.36,1.82,3.22,2.98,1.92,2.61,3.56,5.43,5.48,8.03,2.8,3.79,6.26,4.69,10.57,2.8-1.44-1.94-2.9-3.79-4.23-5.74-3.22-4.74-6.51-9.44-9.43-14.36-.68-1.15-.01-3.11,.04-4.7,1.72,.37,3.49,.59,5.14,1.16,.72,.25,1.22,1.21,1.77,1.89,5.45,6.66,10.95,13.29,16.32,20.02,1.54,1.93,3.26,2.59,5.55,1.91,1.98-.59,3.94-1.25,6.45-2.05-1.27-1.76-2.16-3.06-3.11-4.32-4.65-6.17-9.43-12.25-13.92-18.54-1.33-1.87-2.1-4.25-2.66-6.51-.23-.94,.45-2.64,1.26-3.15,.75-.48,2.5-.22,3.3,.39,1.66,1.27,3.13,2.86,4.41,4.53,5.14,6.75,10.11,13.62,15.3,20.33,1.18,1.53,2.87,3.46,4.52,3.67,3.6,.46,5.1,1.82,5.58,5.47,.2,1.48,2.74,3.84,4,3.71,1.93-.2,3.96-1.96,5.34-3.58,.47-.56-.64-2.86-1.46-4.06-3.74-5.45-7.69-10.75-11.46-16.18-1.07-1.54-3-3.39-.79-5.21,2.14-1.77,4.26-.55,5.94,1.17,2.96,3.04,6.17,5.9,8.7,9.27,6.21,8.28,12.13,16.78,18.09,25.24,1.42,2.02,2.75,3.23,5.1,.78-.96-2.14-1.79-4.36-2.91-6.42-2.51-4.59-5.2-9.08-7.75-13.65-1.32-2.36-3.47-5.31-.58-7.33,2.76-1.93,4.62,1.37,6.33,3.09,2.01,2.02,3.53,4.53,5.48,6.62,.58,.62,1.88,.57,2.85,.83,.15-.96,.75-2.18,.38-2.85-1.99-3.59-3.98-7.21-6.43-10.5-4.39-5.9-9.27-11.44-13.55-17.41-1.24-1.73-2.3-5.57-1.42-6.45,2.66-2.69,5.06,.16,6.81,2.08,5.29,5.8,10.37,11.8,15.46,17.78,1.43,1.69,2.85,2.56,4.64,.69,1.55-1.61,4.68-2.69,1.88-5.88-4.53-5.15-8.84-10.48-13.36-15.64-1.8-2.06-4.74-4.15-2.32-6.89,2.46-2.78,5.29-.19,7.1,1.57,4.81,4.69,9.27,9.75,13.86,14.67,.99,1.06,1.99,2.11,2.95,3.13,3.17-1.71,2.66-3.6,.99-5.63-8.32-10.09-16.7-20.14-24.93-30.3-1.86-2.3-3.42-4.89-4.76-7.53-.43-.84-.13-2.7,.54-3.28,.64-.55,2.38-.4,3.31,.08,1.63,.85,3.23,1.98,4.46,3.35,7.19,7.96,14.25,16.03,21.38,24.04,2.36,2.65,4.8,5.21,7.48,8.11,1.61-2.39,2.71-4.2,3.98-5.87,2.29-2.99,2.48-5.79-.16-8.73-5.99-6.68-11.79-13.52-17.86-20.12-5.24-5.69-10.86-11.03-16.05-16.76-.95-1.05-.63-3.25-.9-4.91,1.61,.03,3.44-.41,4.77,.21,2.23,1.03,4.43,2.46,6.14,4.22,9.46,9.76,18.73,19.69,28.15,29.48,1.17,1.21,2.82,2.69,4.29,2.75,3.68,.13,4.77,.8,4.24,4.5-.72,5.03,2.77,7.7,5.56,11.59,2.15-4.5,3.89-8.15,.74-12.12-7.98-10.05-15.9-20.14-23.91-30.16-1.63-2.04-3.78-3.69-5.25-5.83-.85-1.24-.81-3.09-1.17-4.67,1.54-.1,3.23-.64,4.58-.18,1.83,.62,3.71,1.71,5.04,3.11,5.56,5.88,10.98,11.9,16.32,17.98,2.83,3.23,5.38,6.7,8.2,10.24,4.2-7.44,3.94-10.6-1.05-16.23-4.3-4.86-8.64-9.69-12.95-14.54-1.67-1.88-3.94-4.11-1.7-6.45,2.36-2.46,4.75,.11,6.4,1.64,5.47,5.1,10.71,10.44,15.93,15.8,.91,.94,1.25,2.42,2.05,4.04,2.17-2.55,2.98-3.65,3.93-4.6,2.44-2.44,2.7-4.69,.06-7.31-2.38-2.37-4.44-5.07-6.53-7.7-1.7-2.14-4.09-4.74-1.32-7.16,2.59-2.25,4.78,.6,6.67,2.22,2.62,2.24,5.02,4.72,7.55,7.13,3.1-4.45,3-5.45-.29-9-1.69-1.83-3.59-3.6-4.72-5.76-.85-1.61-.61-3.79-.85-5.72,1.83,.39,3.83,.45,5.45,1.26,1.87,.94,3.41,2.56,5.21,3.97,3.38-8.14,2.36-11.83-4.01-16.28-2.14-1.5-4.5-2.86-6.2-4.78-1-1.13-.88-3.25-1.26-4.93,1.57-.2,3.32-.93,4.67-.48,2.28,.77,4.31,2.29,7.2,3.92-.72-5.55-.68-10.31-3.61-14.58-1.11-1.61-1.23-3.89-1.81-5.87,1.94,.2,3.93,.19,5.79,.67,1.27,.33,2.46,1.23,3.53,2.07,5.09,4.02,10.12,8.11,15.17,12.18,.96,.77,1.94,1.53,3.47,2.74-.42-6.29-2.34-10.88-6.32-14.5-2.12-1.93-4.36-3.74-6.54-5.6-1.79-1.53-3.51-3.26-1.88-5.72,1.66-2.5,3.88-1.5,5.94-.33,1.23,.7,2.48,1.38,3.94,2.19Zm3.03,73.22c3.97-6.11,3.86-8.17-.31-13.13-1.77-2.1-3.43-4.28-5.13-6.43-1.59-2.01-3.15-4.03-5.38-6.88-1.2,4.68-4.03,8.27-1.36,11.94,3.65,5.01,7.96,9.53,12.19,14.51Zm-11.84-51.54c-1.74,13.7,8.24,19.93,15.5,27.91,.39-3.8,.47-7.46,.32-11.11-.03-.68-.95-1.37-1.55-1.96-3-2.95-6.1-5.8-9.03-8.81-1.86-1.9-3.5-4.02-5.23-6.04Zm-10.01,83.83c6.43-2.88,7.22-5.03,4.24-10.26-.86-1.51-1.57-3.12-2.37-4.67-1.34-2.59-2.71-5.16-4.65-8.85-1.76,2.2-3.1,3.55-4.01,5.13-.68,1.18-1.51,3.02-1.05,3.97,2.41,5.01,5.2,9.84,7.84,14.67Zm-30.65,54.59c3.03-2.85,5.82-5.45,8.55-8.11,.39-.38,.79-1.24,.61-1.62-1.78-3.86-3.67-7.67-5.55-11.54-8.96,5.61-9.64,9.47-3.61,21.26Zm43.21-68.25c5.87-6.17,5.96-7.1,1.59-13.43-.99-1.43-1.91-2.91-2.94-4.31-1.66-2.24-3.39-4.44-5.09-6.65-.44,.04-.87,.08-1.31,.12-.57,2.51-2.32,5.53-1.49,7.44,2.5,5.76,5.99,11.09,9.25,16.84Zm-125.71,106.56c-9.08-9.43-11.35-10.29-19.65-6.23,2.86,3.11,5.64,6.43,8.78,9.37,.84,.79,2.92,.93,4.12,.49,2.26-.82,4.29-2.26,6.75-3.64Zm-41.78-4.69c2.43,2.84,4.65,5.48,6.91,8.08,4.08,4.68,6.33,5.01,12.18,1.85-4.49-8.39-10.45-11.63-19.09-9.92Zm114.57-55.11c8.81-7.14,9.48-12.82,1.92-17.87-1.5,2.41-3.1,4.77-4.48,7.24-2.28,4.09-1.41,7.47,2.57,10.63Zm-18.33-198.94c1.58,5.79,2.49,11.36,8.05,14.2,1.06,.54,2.51,.32,3.78,.45-.11-1.37,.17-2.93-.41-4.07-1.96-3.85-4.13-7.59-6.42-11.26-.62-1-1.95-1.55-2.96-2.31-.72,1.05-1.44,2.1-2.05,2.98Zm43.34,201.1c4.37-6.45,3.15-14.22-2.8-19.05-4.35,7.19-3.67,12.16,2.8,19.05Zm8.55-19.37c.56-2.8,2.03-5.51,1.31-7.37-1.8-4.66-4.6-8.93-7.17-13.69-3.72,6.42-1.67,13.7,5.87,21.06Zm-79.27-209.18c0-1.34,.15-2.2-.02-2.99-1.38-6.11-4.09-12.03-2.12-18.57,.2-.67-.97-1.75-1.5-2.63-.95,.78-2.36,1.37-2.76,2.38-2.47,6.05,.67,17.07,6.41,21.82Zm-27.67,273.15c1.62,1.49,3.04,2.83,4.5,4.13,4.06,3.6,6.33,3.26,9.54-1.37-5.82-7.24-8.71-7.92-14.04-2.76Zm101.08-207.92c2.02-1.46,3.32-2.4,4.62-3.34-1.27-.75-2.47-1.66-3.82-2.23-3.73-1.56-7.51-2.99-11.29-4.44-1.21-.46-2.46-.82-3.69-1.22,.37,1.44,.27,3.63,1.19,4.19,4.13,2.57,8.55,4.68,12.99,7.03Zm-120.68,204.33c-4.41-6.62-8.12-8.02-14.61-5.7,2.98,7.04,7.76,8.98,14.61,5.7Zm35.94-329.44c-1.41,1.9-2.34,2.67-2.63,3.63-.91,3.09-1.84,6.22-2.24,9.4-.2,1.59,.56,3.38,1.19,4.96,.24,.59,1.33,1.04,2.08,1.12,.3,.03,.95-1.04,1.07-1.68,.78-4.27,1.59-8.54,2.09-12.84,.13-1.14-.78-2.39-1.57-4.59Zm43.76,309.21l-1.54-.13c-1.29,1.42-3.67,2.87-3.62,4.24,.08,2.06,1.86,4.05,2.92,6.07,1.65-1.15,4.61-2.23,4.67-3.47,.12-2.18-1.53-4.46-2.43-6.7Zm-73.21,12.95c2.96,4.51,5.62,5.2,9.62,2.19,.66-.5,1.07-2.42,.65-3.1-2.09-3.37-6.16-2.93-10.26,.91Zm70.12-22.47c-2.21-1.96-3.57-4.08-4.71-3.97-2.01,.19-3.88,1.75-5.81,2.73,1.26,1.71,2.37,4.62,3.83,4.81,1.74,.22,3.78-1.89,6.7-3.57Zm13.99,2.74c-.39-.04-.77-.08-1.16-.12-.46,1.3-1.38,2.63-1.27,3.88,.13,1.53,1.14,2.98,1.75,4.47,1.46,3.57,1.9,3.66,5.29,.81-1.53-2.99-3.07-6.01-4.61-9.03Zm-30.54,11.38c1.25,2.97,2.26,5.6,3.51,8.11,.27,.55,1.44,.98,2.13,.9,.71-.09,1.7-.74,1.93-1.37,.99-2.68-3.7-7.86-7.57-7.64Zm-22.98,5.71c-.51-.08-1.01-.16-1.52-.24-.52,1.49-1.9,3.84-1.42,4.32,2.17,2.16,4.88,3.79,7.39,5.61l.99-.89c-1.81-2.93-3.63-5.87-5.44-8.8Zm54.36-227.81c-.32,.2-.64,.39-.96,.59-.21,5.53,3.18,9.59,7.52,8.18-2.26-3.03-4.41-5.9-6.56-8.77Zm-7.81,203.96c3.48-2.52,1.34-4.59,0-6.51-.4-.57-1.57-.58-2.39-.85,.27,1.82,.44,3.66,.86,5.44,.15,.63,.88,1.12,1.54,1.92Z"/>
    <path d="M360.98,394.5c-.41,13.58-5.13,24.03-15.8,31.12-6.72,4.47-14.4,5.4-21.76,1.94-6.85-3.21-13.48-7.07-19.76-11.3-12.86-8.66-13.2-28.08-7.6-38.15,.9-1.61,2.13-3.09,3.43-4.4,1.99-2.01,4.46-2.23,6.85-.86,2.46,1.41,2.55,3.85,1.93,6.28-.46,1.8-1.27,3.51-1.77,5.3-.91,3.23,.44,6.18,3.14,7.21,1.8,.68,4.87-.31,6.64-1.58,4.3-3.08,8.12-6.81,12.22-10.16,2.19-1.79,2.84-3.92,2.41-6.62-.41-2.6-2.4-2.83-4.35-3.31-.84-.21-1.66-.55-2.42-.97-3.89-2.11-4.2-5.03-.5-7.42,6.1-3.94,12.78-3.97,19.37-1.53,9.97,3.7,14.2,12.02,16.26,21.68,.96,4.48,1.24,9.11,1.71,12.76Zm-43.85,10.23c-.08,.32-.16,.64-.23,.95,4.61,1.92,9.13,4.14,13.86,5.7,8.26,2.73,17.35-2.24,19.8-10.6,.29-.98,.04-2.49-.58-3.21-.4-.46-2.05-.12-2.97,.27-.85,.36-1.71,1.12-2.16,1.93-3.5,6.32-8.72,8.11-15.49,6.11-1.55-.46-3.12-1-4.71-1.11-2.49-.19-5.01-.05-7.51-.05Zm19.23-7.23c.58,.14,1.16,.28,1.75,.42,1.83-1.95,3.79-3.8,5.39-5.92,.4-.54-.1-2.22-.71-2.89-.38-.41-2.05-.25-2.63,.25-1.72,1.49-3.38,3.15-4.64,5.02-.39,.58,.53,2.06,.85,3.12Z"/>
    <path d="M265.58,370.89c-11.94,1.58-31.6-11.88-35.31-23.05-3.5-10.55-.97-23.34,7.39-29.52,2.24-1.65,5.35-2.34,8.18-2.93,4.33-.89,8.88-.83,13.11-2,19.6-5.45,37.61,7.11,38.89,27.36,.66,10.39-6.04,21.63-16.48,26.36-4.88,2.21-10.3,3.23-15.47,4.79-.1-.34-.21-.68-.31-1.02Zm-18.91-35.26c-.38,.19-.76,.38-1.14,.56,.1,1.15,.18,2.3,.32,3.45,1.52,12.81,25.78,23.68,38.08,12.39,1.02-.94,1.84-2.35,2.16-3.69,.2-.84-.47-2.23-1.2-2.82-.51-.41-1.91-.11-2.68,.31-1.29,.7-2.3,1.93-3.61,2.61-2.04,1.07-4.37,2.9-6.32,2.61-8.37-1.24-17.18-2.01-22.04-10.72-.95-1.7-2.37-3.15-3.57-4.71Zm17.29,1.03c2.89,4.45,7.46,5.13,10.51,2.17,.47-.46,1.02-1.4,.84-1.85-.25-.65-1.17-1.53-1.75-1.49-3.1,.24-6.17,.73-9.6,1.18Z"/>
    <path d="M277.66,263.32c-.05,13.91-10.43,25.18-24.28,27.26-10.18,1.53-18.73-1.42-25.25-9.55-5.08-6.33-10.49-12.65-11.3-21.1-.87-8.98,2.35-16.82,8.41-23.47,.41-.45,.96-.84,1.52-1.07,5.61-2.28,11.11-4.93,16.87-6.69,9.73-2.96,18.91,.58,25.35,9.1,5.94,7.85,8.21,16.9,8.68,25.53Zm-43.01,.54c-.23,.2-.47,.4-.7,.6,1.36,1.51,2.46,3.43,4.12,4.46,3.67,2.29,7.54,4.32,11.48,6.11,5.83,2.65,12.63,.92,15.66-3.74,1.19-1.84,2.26-4.02,.03-5.57-.6-.42-2.9,.88-3.91,1.9-4.65,4.66-6.98,4.98-12.82,2.13-4.5-2.2-9.23-3.94-13.86-5.88Zm-1.11-17.72c-.36,.09-.71,.19-1.07,.28,0,1.2-.3,2.5,.05,3.59,1.78,5.6,5.87,8.82,11.44,10.05,1.09,.24,2.47-.89,3.72-1.38-.88-.91-1.6-2.31-2.66-2.65-4.15-1.33-7.16-3.87-9.39-7.53-.54-.88-1.38-1.58-2.09-2.36Z"/>
    <path d="M375.92,299.15c4.73-1.9,9.21-3.7,13.98-5.61-.62-.84-1.07-1.51-1.58-2.13-3.84-4.66-2.66-8.73,3.05-10.52,5-1.57,9.82-.51,14.09,1.91,12.67,7.18,20.61,17.36,20.03,32.84-.44,11.79-8.42,22.46-19.92,25.71-2.75,.78-5.59,1.33-8.43,1.65-17.35,1.97-27.06-10.11-32.47-24.68-2.04-5.49-2.63-11.49-.76-17.28,.75-2.31,1.99-4.62,3.58-6.43,1.08-1.23,3.35-2.4,4.73-2.08,1.29,.31,2.19,2.56,3.09,4.07,.42,.71,.42,1.67,.62,2.56Zm6.49,20.24c.32,1.27,.36,1.76,.56,2.16,3.21,6.3,9.09,7.93,15.43,8.78,6.61,.88,12.05-1.07,15.86-6.7,1.44-2.13,1.91-4.81-.53-6.19-.83-.47-3.74,1.28-4.65,2.69-1.64,2.55-3.55,4.13-6.51,4.29-6.04,.33-12.19,1.08-17.14-3.76-.55-.53-1.5-.65-3.01-1.27Zm15-7.23c2.56,3.76,6.53,4.07,8.55,1.05,.51-.76,.6-2.21,.22-3.04-.27-.59-1.81-1.12-2.5-.88-2.13,.74-4.13,1.86-6.27,2.87Z"/>
    <path d="M326.37,183.64c-1.29,2.42-2.35,4.41-3.41,6.4,.24,.2,.47,.39,.71,.59,.73-.32,1.48-.59,2.17-.96,5.81-3.1,11.48-3.54,17.34,.16,3.89,2.46,8.24,4.17,12.19,6.54,8.14,4.9,11.02,12.18,8.55,21.44-2.67,10.04-8.33,17.89-18.02,22.07-3.04,1.31-6.89,1.85-10.14,1.34-6.13-.95-12.2-2.61-18.11-4.55-9.48-3.12-15.73-13.81-14.34-23.69,.19-1.36,.62-2.74,.51-4.07-.86-10.49,5.08-17.36,12.47-23.35,2.82-2.28,6.09-3.97,10.07-1.93Zm-6.53,14.31c-.38-.15-.76-.29-1.13-.44-1.15,.96-2.45,1.8-3.43,2.92-5,5.72-2.88,19.83,1.3,23.73,1.65,1.54,3.93,2.66,6.12,3.25,1.16,.31,2.74-.92,4.13-1.45-.83-1.09-1.44-2.72-2.54-3.16-2.9-1.17-3.85-3.27-4.76-6.07-2.04-6.28-4.56-12.38,.32-18.77Zm22.15,29.53c6.07-.51,12.61-7.74,12.02-13.26-.12-1.12-1.62-2.09-2.49-3.13-.93,1.08-2.6,2.12-2.64,3.23-.18,4.52-1.95,8.1-5.19,11.11-.58,.54-1.02,1.22-1.69,2.04Z"/>
    <path d="M357.24,277.86c.79,24.65-26.02,36.58-43.31,30.03-4.96-1.88-9.1-4.83-11.92-9.22-5.36-8.33-6.92-17.51-4.79-27.17,.47-2.11,1.57-4.24,2.89-5.98,2.89-3.8,7.49-3.34,10.17,.47,2.89,4.11,7.03,6.79,11.97,7.54,7.04,1.07,12.06-4.89,10.09-11.7-.95-3.3-2.34-6.81,.98-9.26,3.19-2.34,6.86-1.02,9.9,.73,9.26,5.31,14.34,13.2,14.01,24.57Zm-47.95,5.81c-.06,4.19,2.65,8.94,6.01,11.25,4.86,3.35,21.04,3.87,26.7-1.38,1.7-1.58,3.56-3.32,1.8-5.68-1.75-2.34-3.23,.16-4.73,.88-7.6,3.68-19.28,6.76-26.91-2.58-.67-.83-1.63-1.43-2.87-2.49Zm24.11-3.47c2.92,3.33,6.36,3.27,8.07,.64,.36-.55,.62-1.5,.38-2-.25-.51-1.28-1.06-1.8-.93-2.07,.55-4.08,1.37-6.65,2.28Z"/>
    <path d="M166.06,296.16c1.01-3.93,2.01-9.02,3.74-13.85,.53-1.48,3.21-3.34,4.63-3.13,2.86,.42,2.22,3.27,2.09,5.53-.32,5.69-1.05,11.44-.57,17.07,.3,3.5,1.86,7.33,4,10.13,3.5,4.59,7.94,8.48,11.99,12.66,.52,.54,1.37,.92,1.59,1.54,.52,1.51,.76,3.13,1.12,4.7-1.57,.05-3.48,.72-4.65,.07-9.57-5.39-18.44-11.65-22.02-22.76-1.08-3.36-1.16-7.05-1.91-11.95Z"/>
    <path d="M280.74,459.91c-12.23-.45-21.83-6.09-29.29-15.48-1.03-1.3-1.48-4.63-.63-5.52,1.72-1.8,4.24-1.16,6.27,.68,9.11,8.25,19.49,12.98,32.08,10.8,2.75-.48,5.31-1.91,8.03-2.65,1.5-.41,3.15-.3,4.73-.42-.25,1.71,.11,3.96-.86,5.03-4.37,4.85-10.26,6.8-16.6,7.54-1.23,.14-2.49,.02-3.74,.02Z"/>
    <path d="M318.08,164.22c-1.96,1.31-2.99,2.47-4.22,2.74-3.77,.82-7.6,1.41-11.43,1.9-11.2,1.42-20.13,7.65-29.18,13.63-1.14,.75-2.05,2.04-3.27,2.44-1.56,.51-3.76,1.06-4.91,.35-2.13-1.31-1.4-3.65,.12-5.16,3.61-3.58,7.08-7.46,11.23-10.31,8.12-5.57,17.38-8.73,27.11-10.02,3.33-.44,6.91,.43,10.28,1.13,1.29,.27,2.33,1.75,4.27,3.31Z"/>
    <path d="M283.89,479.99c-9.58-1.24-19.19-4.26-27.37-10.94-1.91-1.56-3.23-3.82-1.57-5.76,.81-.95,3.72-.82,5.35-.24,4.32,1.55,8.4,3.73,12.66,5.44,8.48,3.4,16.99,2.82,25.53,0,2.43-.8,5.62-2.92,7.28,.5,1.54,3.18-2.01,4.25-3.94,5.81-5.03,4.07-11.1,4.7-17.94,5.19Z"/>
    <path d="M237.07,179.29c1.06,.65,2.92,1.16,3.44,2.3,.41,.88-.65,2.67-1.43,3.8-.68,.98-1.78,1.77-2.85,2.36-8.68,4.8-14.13,12.4-18.41,21.03-.5,1-.76,2.35-1.57,2.9-.98,.67-2.57,1.13-3.61,.8-.78-.25-1.73-2.05-1.53-2.91,2.98-12.75,7.55-24.42,21.44-29.17,1.28-.44,2.63-.65,4.53-1.1Z"/>
    <path d="M312.66,439.69c-2.33-1.12-4.54-1.77-6.23-3.08-4.82-3.72-9.64-7.48-14.05-11.66-2.64-2.5-4.73-5.69-6.62-8.84-.62-1.04,.14-2.91,.27-4.4,1.49,.21,2.99,.39,4.48,.66,.33,.06,.61,.41,.9,.65,7.93,6.73,15.9,13.42,23.73,20.28,.91,.8,1.7,2.85,1.29,3.77-.5,1.13-2.31,1.69-3.77,2.63Z"/>
    <path d="M237.63,421.23c-7.83-1.29-14.79-2.57-20.83-6.63-1.21-.81-2.51-1.89-3.07-3.15-.57-1.29-.89-3.43-.19-4.34,.69-.9,2.98-1.32,4.22-.92,4.12,1.35,8.07,3.2,12.12,4.79,4.54,1.78,9.07,3.24,14.13,1.92,1.1-.29,3.37,.83,3.78,1.84,.38,.92-.69,3.3-1.71,3.77-2.88,1.32-6.06,2-8.46,2.73Z"/>
    <path d="M279.31,437.65c-8.21-2.2-15.65-4.02-21.24-9.65-1.31-1.32-2.14-3.36-2.53-5.22-.21-1.01,.69-2.68,1.61-3.36,.73-.54,2.43-.4,3.38,.08,6.72,3.41,13.42,6.86,19.96,10.61,1.68,.97,2.72,3.06,4.06,4.63-1.92,1.07-3.84,2.13-5.23,2.9Z"/>
    <path d="M452.29,308.68c-.52,6.86-1.86,14.17-7.73,19.64-1.04,.97-2.95,1.01-4.46,1.47-.32-1.64-1.21-3.42-.86-4.91,1.37-5.92,3.37-11.69,4.66-17.63,.91-4.15,2.71-7.35,5.05-6.7,3.8,1.06,3.38,4.4,3.34,8.11Z"/>
    <path d="M374.81,234.3c.71-1.11,1.3-3.09,2.26-3.3,1.42-.3,3.5,.24,4.58,1.22,1.5,1.36,2.16,3.61,3.5,5.21,3.25,3.87,6.88,7.45,9.96,11.45,1.06,1.38,.94,3.67,1.35,5.55-1.58-.04-3.36,.38-4.7-.21-6.67-2.93-12.07-7.33-14.95-14.27-.71-1.7-1.24-3.48-2.01-5.65Z"/>
    <path d="M384.1,397.88c-.28,6.68-3.06,11.96-7.08,16.77-1.55,1.86-3.74,2.86-5.44,1.19-.86-.84-.68-3.86,.17-5.12,3.05-4.52,3.64-9.41,3.34-14.6-.1-1.74-.29-3.53,.03-5.21,.25-1.3,1.22-3.47,1.9-3.48,1.49-.03,3.8,.68,4.36,1.79,1.34,2.67,1.87,5.76,2.72,8.67Z"/>
    <path d="M232.32,438.44c-4.89-2-9.87-3.79-14.62-6.08-2.39-1.15-3.04-3.69-1.7-6.12,1.37-2.48,3.46-1.69,5.54-.82,6.42,2.67,12.83,5.31,20.01,5.3,1.12,0,2.25,1.69,3.38,2.6-1,1.06-1.83,2.75-3.02,3.05-2.99,.75-6.14,.87-9.23,1.24-.12,.28-.25,.56-.37,.84Z"/>
    <path d="M301.57,315.77c-9.71,.14-17.17-6.31-17.1-14.19,.01-1.36,.97-3.68,1.83-3.86,1.36-.28,3.91,.48,4.39,1.52,2.39,5.16,6.93,7.55,11.41,10.26,1.16,.7,2.05,2.78,2.01,4.2-.02,.87-2.03,1.69-2.55,2.08Z"/>
    <path d="M206.67,375.07c-5.91-1.28-11.06-2.1-16.01-3.61-2.21-.67-4.35-2.44-5.84-4.26-.83-1.01-.89-3.64-.12-4.68,.72-.98,2.96-.97,4.56-1.14,.65-.07,1.45,.39,2.04,.81,4.73,3.39,10.04,5.21,15.71,6.38,1.31,.27,2.24,2.34,3.35,3.58-1.29,1.02-2.58,2.05-3.68,2.92Z"/>
    <path d="M241.61,404.83c-7.25-1-12.74-3.43-17.37-7.61-2.12-1.92-3.01-4.44-.86-6.92,2.15-2.48,4.1-.78,6.16,.55,4.15,2.68,8.52,5.02,12.63,7.77,1.34,.89,2.13,2.61,3.17,3.95-1.46,.89-2.92,1.77-3.73,2.26Z"/>
    <path d="M429.76,345.23c-.24,6.86-6.93,15.23-12.36,16.34-1.11,.23-2.99-.19-3.5-.96-.53-.82-.18-2.62,.39-3.67,2.37-4.34,4.77-8.69,7.58-12.75,.92-1.33,3.36-2.76,4.61-2.4,1.57,.45,2.63,2.69,3.28,3.44Z"/>
    <path d="M270.12,218.8c.01-2.85,2.61-4.71,5-3.36,2.53,1.43,4.97,3.37,6.81,5.61,2.27,2.76,4,6,5.69,9.18,.45,.84,.27,2.62-.36,3.26-.66,.67-2.75,1.07-3.25,.59-4.62-4.47-9.06-9.13-13.49-13.8-.37-.39-.32-1.17-.4-1.48Z"/>
    <path d="M355.45,349.87c-6.56-.42-13.12-7.84-12.44-13.38,.19-1.51,1.34-3.6,2.57-4.07,1.15-.43,3.44,.51,4.43,1.59,2.82,3.08,5.39,6.42,7.71,9.89,.77,1.16,1.06,3.23,.55,4.47-.39,.96-2.35,1.28-2.82,1.5Z"/>
    <path d="M209.1,222.89c-1.8,6.06-3.3,11.43-5.06,16.71-.25,.76-1.75,1.55-2.65,1.52-.86-.03-2.04-.91-2.48-1.74-2.57-4.82-1.14-14.45,2.87-18.19,1.05-.98,3.15-1.56,4.53-1.25,1.19,.27,2.02,2.07,2.8,2.95Z"/>
    <path d="M246.75,382.11c-6.49-.53-10.74-2.75-13.47-7.38-1.3-2.2-1.67-4.97,.66-6.29,1.25-.71,3.86,.23,5.5,1.1,2.68,1.43,5.21,3.24,7.54,5.21,1.53,1.3,2.58,3.15,3.85,4.76-1.63,1.04-3.26,2.09-4.07,2.61Z"/>
    <path d="M221.01,216.77c1.13-2.14,1.72-4.19,3.02-5.55,2.62-2.76,5.53-5.26,8.53-7.61,.73-.57,2.59-.54,3.33,.01,.73,.55,1.31,2.49,.89,3.17-2.87,4.61-5.91,9.12-9.18,13.45-.51,.67-2.77,.73-3.7,.19-1.21-.72-1.9-2.32-2.9-3.66Z"/>
    <path d="M276.74,194.51c-.14-6.18,8.85-14.42,14.34-13.79,.92,.11,2.39,1.06,2.47,1.74,.16,1.47-.14,3.17-.8,4.5-.5,1-1.86,1.57-2.81,2.36-2.66,2.2-5.22,4.52-7.99,6.55-.94,.69-2.54,1.14-3.59,.84-.85-.25-1.33-1.78-1.61-2.2Z"/>
    <path d="M199.8,358.93c-.08-3.44,2.69-5.47,5.07-3.85,4.8,3.28,9.32,6.98,13.76,10.75,.69,.59,.76,2.63,.29,3.62-.33,.71-2.38,1.39-3.07,1.01-4.97-2.76-9.85-5.72-14.61-8.82-.88-.57-1.14-2.1-1.44-2.71Z"/>
    <path d="M197.43,279.09c.33,2.92,.93,5.84,.89,8.76-.02,1.43-.85,3.57-1.95,4.11-2.15,1.06-3.35-.78-3.9-2.73-.97-3.44-2.11-6.87-2.69-10.38-.43-2.62,.84-4.65,3.88-4.73,2.67-.07,4.5,2.08,3.76,4.98Z"/>
    <path d="M191.47,306.22c.1-3.64,3.11-5.44,5.6-3.19,3,2.71,5.56,6.02,7.79,9.41,1.44,2.19-.35,4.15-3.03,3.81-2.66-.33-9.46-6.23-10.18-8.84-.13-.47-.15-.98-.18-1.19Z"/>
    <path d="M391.42,378.39c-.97,1.18-1.66,2.83-2.58,2.96-1.19,.18-3.06-.47-3.77-1.42-1.85-2.47-3.3-5.25-4.75-7.99-1.25-2.37-.56-4.75,1.76-5.64,1.17-.45,3.8,.56,4.49,1.69,1.92,3.13,3.17,6.66,4.85,10.4Z"/>
    <path d="M324.79,337.17c-.39,2.86-1.8,3.8-4.25,3.45-4.59-.66-8.12-7.53-6.05-11.71,1.35-2.72,4.58-3.33,6.27-.73,1.77,2.72,2.72,5.97,4.03,8.99Z"/>
    <path d="M338.95,169.28c-2.5-1.05-4.98-1.66-6.86-3.06-1.19-.89-2.44-3.89-1.99-4.37,1.26-1.34,3.46-2.65,5.16-2.49,2.14,.2,4.4,1.57,6.13,3.01,1.13,.94,2.22,3.15,1.85,4.33-.35,1.13-2.61,1.66-4.28,2.58Z"/>
    <path d="M372.93,372.62c.27,3-1.93,3.37-3.79,2.37-2.43-1.31-4.7-3.2-6.48-5.31-.88-1.04-1.2-3.73-.48-4.6,.79-.96,3.15-1.13,4.69-.87,2.4,.4,6.03,5.76,6.07,8.41Z"/>
    <path d="M474.08,307.92c-2.98,.03-7.78-3.34-8.69-6.11-.96-2.92,.76-5.37,3.31-4.21,2.9,1.32,5.69,3.39,7.78,5.79,1.83,2.1,.28,4.5-2.4,4.53Z"/>
    <path d="M220.59,295.1c3.36,.73,7.31,5.42,6.65,8.16-.29,1.19-2.12,2.73-3.35,2.83-3.03,.25-7.22-3.66-6.64-6.21,.4-1.76,2.18-3.2,3.34-4.78Z"/>
    <path d="M360.33,162.41c3.6-.03,7.18,2.42,6.83,4.93-.43,3.05-3.03,3.3-5.41,3.42-3.22,.17-5.41-1.84-5.46-4.77-.04-2.6,1.04-3.56,4.04-3.58Z"/>
  </g>
  <g>
    <path d="M82.95,268.52l6.2-26.93,7.71,1.78-.46,2.02c-.3,1.32-.39,2.25-.27,2.79,.12,.54,.42,.99,.88,1.35,.46,.36,1.41,.7,2.86,1.03l17.28,3.98-1.87,8.1-4.44,1.18c1.06,2.85,1.7,5.7,1.9,8.55s-.02,5.71-.69,8.58c-1.16,5.03-3.44,9.33-6.85,12.9-3.4,3.57-7.58,6.05-12.54,7.45-4.96,1.4-10.17,1.46-15.62,.21-5.4-1.25-9.97-3.55-13.69-6.92s-6.32-7.48-7.8-12.32-1.64-9.78-.49-14.78c.56-2.42,1.43-4.77,2.6-7.04,1.17-2.27,2.47-4.14,3.9-5.61l-2.11-2.03,1.27-5.53,19.42-.77,.7,7.82c-4.58,1.56-7.76,2.88-9.54,3.99-1.78,1.1-3.29,2.49-4.54,4.16-1.25,1.67-2.07,3.39-2.48,5.15-.58,2.5-.39,5.01,.56,7.52,.95,2.51,2.67,4.72,5.16,6.62,2.49,1.91,5.71,3.31,9.67,4.23,4.35,1,8.28,1.18,11.79,.53,3.51-.65,6.29-1.92,8.35-3.8,2.06-1.89,3.4-4.17,4.02-6.86,.44-1.9,.47-3.79,.1-5.66-.37-1.88-.96-3.24-1.76-4.09-.8-.85-2.01-1.46-3.62-1.83l-2.02-.46c-1.4-.32-2.3-.43-2.71-.33-.59,.17-1.07,.47-1.42,.9-.35,.43-.69,1.36-1.02,2.79l-.72,3.12-7.71-1.78Z"/>
    <path d="M93.19,209.18c2.11-4.12,4.75-7.29,7.93-9.53,3.18-2.23,6.58-3.46,10.21-3.69,3.63-.23,7.31,.61,11.04,2.52,5.64,2.88,9.28,7.05,10.92,12.51,1.64,5.46,.9,11.25-2.23,17.37-3.19,6.24-7.5,10.29-12.92,12.17-5.19,1.84-10.67,1.29-16.43-1.66-3.78-1.93-6.62-4.41-8.51-7.43-1.89-3.02-2.87-6.49-2.94-10.42-.07-3.93,.91-7.88,2.94-11.85Zm7.99,3.9c-.7,1.37-.95,2.87-.75,4.49,.2,1.62,.93,3.17,2.18,4.65,1.25,1.48,3.1,2.84,5.56,4.1,2.53,1.29,4.79,2.04,6.78,2.24,1.99,.2,3.68-.07,5.06-.81s2.42-1.79,3.12-3.17c1.08-2.12,1.12-4.4,.1-6.83s-3.42-4.62-7.2-6.55c-3.66-1.87-6.77-2.58-9.34-2.11-2.56,.47-4.41,1.8-5.53,3.99Z"/>
    <path d="M106.49,154.8l38.06,28.37c1.28,.95,2.08,1.47,2.4,1.54,.55,.17,1.11,.07,1.7-.31,.37-.23,1.09-1.06,2.16-2.49l.85-1.14,6.28,4.68-15.01,20.14-6.28-4.68,.92-1.24c.97-1.3,1.51-2.2,1.62-2.69,.11-.49,.05-.95-.17-1.4-.23-.44-.96-1.12-2.2-2.04l-29.02-21.63-3.59,4.81-6.28-4.68c2.63-4.08,4.7-8.78,6.21-14.1l2.35-3.16Z"/>
    <path d="M147.8,111.53l32.51,34.21c1.29,1.35,2.12,2.12,2.51,2.29,.39,.17,.79,.19,1.2,.06,.41-.13,1.23-.78,2.45-1.93l1.38-1.31,5.39,5.68-12.35,12.57-2.88-3.03c-.67,2.99-1.47,5.38-2.41,7.19-.94,1.8-2.1,3.37-3.49,4.69-2.26,2.14-4.91,3.5-7.97,4.07-3.06,.57-6.33,.23-9.83-1.04-3.5-1.27-6.64-3.37-9.44-6.31-2.83-2.98-4.79-6.26-5.86-9.85-1.07-3.59-1.21-6.94-.41-10.05,.8-3.11,2.42-5.82,4.85-8.14,1.26-1.19,2.6-2.18,4.04-2.97,1.44-.79,3.22-1.46,5.34-2.02l-6.65-7-4.29,4.08-5.39-5.68c2.2-2.54,3.89-4.71,5.06-6.52,1.17-1.8,2.3-3.9,3.39-6.27l2.85-2.71Zm23.64,43.7l-9.36-9.85c-1.17-1.23-2.09-2.02-2.75-2.37-.93-.5-2.07-.63-3.42-.39-1.36,.24-2.54,.85-3.57,1.82-1.06,1.01-1.74,2.26-2.04,3.75-.3,1.5-.09,3.15,.63,4.97,.72,1.82,2.01,3.71,3.87,5.67,2.59,2.73,5.27,4.34,8.03,4.85,2.15,.42,4-.1,5.53-1.56,.67-.63,1.2-1.35,1.59-2.16,.39-.8,.89-2.39,1.49-4.75Z"/>
    <path d="M218.81,117.53l7.66,1.89c-.83,4.78-2.23,8.73-4.21,11.85-1.98,3.12-4.61,5.68-7.89,7.68-5.27,3.21-10.79,4.13-16.57,2.75-5.78-1.37-10.21-4.59-13.29-9.65-2.03-3.33-3.07-6.86-3.14-10.61-.06-3.75,.86-7.27,2.77-10.58,1.91-3.3,4.69-6.06,8.31-8.27,2.31-1.41,4.62-2.35,6.92-2.84,2.3-.48,4.54-.54,6.73-.15,2.18,.38,4.24,1.19,6.19,2.43,1.94,1.24,3.65,2.71,5.13,4.4,.72,.86,1.7,2.32,2.95,4.38l-23.32,14.21c1.83,2.91,4.14,4.76,6.92,5.55,2.78,.79,5.38,.45,7.81-1.03,1.55-.94,2.95-2.44,4.2-4.49,1.25-2.05,2.19-4.56,2.82-7.54Zm-13.03-5.79c-1.01-1.29-2-2.18-2.99-2.67-.98-.49-2.04-.72-3.18-.68-1.13,.04-2.17,.34-3.09,.91-.97,.59-1.76,1.41-2.37,2.44-.61,1.04-.93,2.14-.97,3.3-.04,1.16,.26,2.44,.88,3.83l11.71-7.14Z"/>
    <path d="M237.7,80.73l1.73,5.11c2.23-2.95,4.25-5.14,6.07-6.55,1.82-1.41,3.81-2.49,5.96-3.21,2.49-.84,4.86-1.06,7.13-.65,2.26,.41,4.1,1.25,5.5,2.53,1.4,1.28,2.6,3.37,3.57,6.27l5.4,15.99c.46,1.36,.85,2.2,1.17,2.52,.32,.32,.72,.5,1.19,.54,.35,.02,1.29-.22,2.83-.74l1.88-.64,2.51,7.42-22.56,7.63-2.51-7.42c1.71-.61,2.66-.97,2.84-1.09,.58-.4,.9-.83,.97-1.31,.07-.48-.13-1.4-.59-2.75l-4.76-14.08c-.61-1.82-1.2-2.93-1.77-3.34-.92-.69-2.04-.81-3.38-.36-1.1,.37-2.2,1.01-3.29,1.92-1.09,.91-2.45,2.48-4.06,4.71l5.15,15.24c.56,1.66,1.09,2.63,1.58,2.89,.49,.26,1.42,.16,2.79-.3l1.24-.42,2.51,7.42-22.33,7.55-2.51-7.42,1.11-.38c1.77-.6,2.84-1.04,3.21-1.34,.37-.3,.6-.67,.69-1.13,.09-.46-.06-1.25-.44-2.37l-6.04-17.88-5.69,1.92-2.51-7.42c4.41-2.13,8.35-4.67,11.82-7.64l3.57-1.21Z"/>
    <path d="M356.89,50.27l5.75,.23,4.73,20.54-7.63,1.88c-2.32-4.94-4.54-8.47-6.68-10.58-2.97-2.91-6.25-4.44-9.85-4.58-2.62-.11-5.1,.52-7.45,1.89-2.34,1.37-4.24,3.44-5.69,6.23-1.45,2.78-2.26,6.08-2.41,9.89-.23,5.81,1.1,10.87,4,15.19,2.9,4.31,6.84,6.57,11.81,6.77,3.16,.13,6.24-.65,9.23-2.35,3.74-2.1,7.01-4.98,9.81-8.66l6.1,4.92c-4.3,5.4-8.19,9.13-11.65,11.18-5.35,3.17-11.22,4.62-17.63,4.36-5.32-.21-10.08-1.69-14.29-4.42-4.21-2.73-7.5-6.44-9.88-11.14-2.38-4.7-3.46-9.76-3.24-15.2,.22-5.41,1.67-10.28,4.34-14.63,2.68-4.34,6.22-7.67,10.63-9.99,4.41-2.31,9.26-3.36,14.55-3.15,5.38,.22,10.04,1.54,14,3.98l1.44-2.38Z"/>
    <path d="M397.08,73.25l-1.46,5.7c2.66-1.66,4.87-2.7,6.61-3.11,1.74-.41,3.32-.43,4.74-.07,1.29,.33,2.36,.92,3.22,1.77,.86,.85,1.45,1.9,1.76,3.15,.31,1.25,.3,2.51-.02,3.76-.42,1.65-1.35,3.01-2.78,4.06-1.43,1.06-3.13,1.34-5.1,.83-.53-.13-.98-.29-1.37-.48-.39-.18-1.18-.66-2.38-1.45-.63-.38-1.17-.63-1.61-.75-.68-.17-1.92-.03-3.72,.43l-3.93,15.37c-.33,1.31-.45,2.19-.36,2.63,.1,.44,.34,.81,.74,1.11,.4,.3,1.34,.64,2.84,1.02l1.73,.44-1.94,7.59-24.26-6.2,1.94-7.59,2.02,.52c1.45,.37,2.38,.52,2.77,.46s.74-.27,1.02-.62c.29-.35,.6-1.2,.95-2.56l4.61-18.05-5.82-1.49,1.93-7.55c4.34,.83,9.06,.86,14.17,.1l3.7,.94Z"/>
    <path d="M420.68,80.41l17.24,7.86-11.39,23.75c-.81,1.68-1.24,2.85-1.3,3.52-.06,.66,.1,1.3,.48,1.92,.38,.62,.98,1.12,1.81,1.52,1.22,.58,2.65,.91,4.3,.98,.65,.01,2.5-.17,5.53-.54l6.84-14.27c.6-1.24,.91-2.14,.93-2.7,.03-.56-.1-1.03-.36-1.41-.27-.38-.93-.83-1.99-1.34l-2.14-1.02,3.39-7.06,17.32,7.9-12.56,26.2c-.66,1.37-.99,2.26-1,2.69-.01,.43,.12,.81,.4,1.14s1.09,.81,2.43,1.46l1.94,.93-3.39,7.06-16.27-7.26,2.07-4.32c-2.9,.56-5.63,.71-8.18,.47-2.55-.25-4.92-.9-7.11-1.95-1.75-.84-3.23-1.9-4.43-3.18-1.2-1.28-2.07-2.64-2.6-4.08s-.74-2.93-.61-4.45c.13-1.53,.68-3.3,1.66-5.33l7.23-15.07c.67-1.39,1.01-2.31,1.02-2.75,.02-.44-.12-.84-.4-1.2-.28-.36-1.02-.83-2.23-1.4l-2.03-.97,3.39-7.06Z"/>
    <path d="M497.07,125.32l4.22,3.23-4.25,10.95-7.96-2.21c.27-2.76-.06-5.34-1-7.74-.94-2.4-2.26-4.26-3.98-5.58-1.14-.87-2.13-1.33-2.99-1.37-.85-.04-1.49,.21-1.9,.74-.34,.45-.47,1.02-.37,1.71s.61,1.73,1.53,3.11l6.44,9.94c1.14,1.76,2.11,3.61,2.91,5.55,.8,1.94,1.09,3.79,.88,5.56-.21,1.76-.94,3.46-2.19,5.1-2.24,2.92-5.19,4.46-8.85,4.62-4.3,.18-8.4-1.22-12.31-4.21-3.35-2.57-5.62-5.65-6.81-9.26l-2.26,1.08-4.29-3.28,4.13-13.6,8.06,2.09c-.3,3.55,.14,6.86,1.33,9.94s2.72,5.33,4.59,6.76c1.16,.89,2.34,1.37,3.55,1.44,.93,.03,1.62-.24,2.06-.82,.38-.49,.5-1.15,.38-1.96-.13-.81-.78-2.11-1.97-3.91l-5.11-7.75c-2.81-4.3-4.32-7.74-4.53-10.34-.21-2.6,.49-4.95,2.1-7.05,2.07-2.71,4.9-4.15,8.48-4.34,4.08-.21,7.94,1.07,11.57,3.85,3.22,2.47,5.42,5.31,6.6,8.53l1.92-.78Z"/>
    <path d="M535.03,142.44l-10.21,9.45,8.88,9.59-6.34,5.87-8.88-9.59-10.36,9.59c-2.34,2.17-3.73,3.68-4.17,4.55s-.54,1.82-.31,2.86c.29,1.39,.97,2.66,2.04,3.81,1.89,2.04,4.44,3.46,7.65,4.26l-6.37,5.9c-2.41-.97-4.43-2.01-6.05-3.1s-3.19-2.46-4.7-4.09c-1.71-1.85-2.99-3.7-3.83-5.55-.85-1.85-1.3-3.68-1.37-5.48s.21-3.35,.82-4.63c.61-1.29,1.84-2.79,3.69-4.49l14.17-13.12-4.13-4.47,5.72-5.29c1.99,1.11,3.98,1.79,6,2.03,2.01,.24,4.01,.08,5.99-.49,1.98-.56,4.14-1.68,6.46-3.35l5.32,5.75Z"/>
  </g>
  <g>
    <path d="M234.67,548.7l3.56,1.66-1.33,8.58-6.1-.33c-.24-2.03-.89-3.84-1.95-5.43-1.06-1.59-2.31-2.72-3.76-3.39-.96-.45-1.75-.62-2.37-.51-.62,.11-1.04,.39-1.25,.84-.18,.38-.18,.81,0,1.29,.18,.48,.71,1.15,1.6,2l6.23,6.15c1.1,1.09,2.09,2.27,2.98,3.54,.88,1.27,1.39,2.56,1.52,3.87,.13,1.31-.13,2.65-.77,4.02-1.15,2.46-3.04,4.04-5.65,4.74-3.07,.81-6.26,.45-9.55-1.09-2.83-1.32-4.95-3.18-6.39-5.6l-1.46,1.14-3.61-1.69,.82-10.47,6.15,.22c.35,2.61,1.19,4.93,2.54,6.96,1.35,2.03,2.81,3.41,4.38,4.15,.98,.46,1.91,.62,2.79,.47,.68-.12,1.13-.43,1.36-.92,.19-.42,.18-.91-.04-1.47s-.9-1.4-2.04-2.51l-4.92-4.78c-2.71-2.66-4.34-4.9-4.91-6.74-.56-1.84-.43-3.65,.4-5.42,1.07-2.28,2.88-3.77,5.43-4.48,2.91-.8,5.9-.49,8.96,.94,2.72,1.27,4.76,2.97,6.12,5.11l1.26-.87Z"/>
    <path d="M258.63,556.79l-7.06,21c-.34,1-.49,1.64-.45,1.9s.18,.51,.43,.73c.25,.22,.89,.5,1.91,.85l1.53,.52-1.84,5.48-17.56-5.91,1.84-5.48,1.51,.51c.98,.33,1.63,.49,1.94,.48s.57-.12,.79-.32c.22-.2,.45-.67,.7-1.41l4.56-13.55-4.21-1.41,1.8-5.34c1.52,.43,3.01,.75,4.47,.96,1.46,.22,2.78,.33,3.98,.36,.78,0,1.77-.08,2.97-.27l2.7,.91Zm-.34-14.22c1.44,.48,2.5,1.4,3.17,2.76,.67,1.35,.77,2.75,.28,4.19-.49,1.46-1.41,2.52-2.77,3.2-1.35,.67-2.75,.77-4.19,.28-1.44-.48-2.5-1.4-3.17-2.76-.67-1.35-.77-2.75-.28-4.19,.48-1.42,1.41-2.47,2.8-3.15,1.39-.68,2.77-.79,4.16-.33Z"/>
    <path d="M278.7,562.08l-.76,3.91c2.51-1.08,4.61-1.74,6.29-1.99,1.69-.24,3.35-.21,5,.11,1.9,.37,3.51,1.1,4.81,2.18,1.31,1.09,2.18,2.3,2.61,3.64,.43,1.34,.44,3.11,0,5.33l-2.37,12.24c-.2,1.04-.26,1.72-.17,2.04,.09,.32,.28,.58,.57,.78,.22,.14,.91,.33,2.09,.56l1.44,.28-1.1,5.68-17.28-3.35,1.1-5.68c1.32,.24,2.06,.35,2.22,.34,.52-.04,.88-.2,1.1-.49s.43-.94,.63-1.98l2.09-10.78c.27-1.39,.3-2.32,.08-2.79-.34-.78-1.02-1.26-2.04-1.46-.84-.16-1.78-.15-2.82,.03-1.03,.19-2.48,.7-4.33,1.54l-2.26,11.67c-.25,1.27-.26,2.08-.04,2.43,.22,.35,.85,.62,1.9,.83l.95,.18-1.1,5.68-17.1-3.31,1.1-5.68,.85,.17c1.35,.26,2.2,.37,2.55,.31,.35-.05,.63-.21,.85-.47s.42-.82,.59-1.68l2.65-13.69-4.36-.84,1.1-5.68c3.61,.25,7.07,.05,10.38-.58l2.73,.53Z"/>
    <path d="M332.86,586.98l4.28,4.01c-2.45,2.78-4.96,4.78-7.54,6-2.58,1.22-5.32,1.78-8.21,1.69-4.63-.15-8.46-1.78-11.47-4.9-3.01-3.12-4.44-6.84-4.31-11.18,.09-2.94,.9-5.6,2.43-7.99,1.53-2.39,3.57-4.22,6.15-5.5,2.57-1.28,5.57-1.86,9.01-1.75,4.11,.13,7.44,1.19,9.99,3.18,2.54,1.99,3.78,4.05,3.72,6.16-.03,.9-.26,1.7-.69,2.39-.43,.7-1.08,1.25-1.93,1.66-.85,.41-1.75,.6-2.69,.57-.76-.02-1.43-.2-2.02-.51-.59-.32-1.08-.71-1.46-1.19-.17-.21-.5-.84-.99-1.89-.62-1.32-1.1-2.2-1.45-2.63-.35-.43-.77-.77-1.26-1.01-.49-.25-1.06-.38-1.7-.4-1.04-.03-2.04,.27-3.01,.91-.97,.64-1.78,1.63-2.44,2.97s-1.01,2.85-1.06,4.53c-.06,1.84,.25,3.5,.92,4.99,.67,1.49,1.6,2.64,2.78,3.43,1.18,.8,2.51,1.22,3.96,1.27,1.4,.04,2.82-.29,4.26-1,1.44-.71,3.01-1.98,4.71-3.81Z"/>
    <path d="M370.3,584.01l4.55,3.65c-2.04,2.95-4.21,5.16-6.5,6.64-2.3,1.48-4.85,2.38-7.67,2.7-4.53,.51-8.51-.59-11.96-3.3-3.45-2.72-5.42-6.25-5.91-10.6-.32-2.86,.07-5.55,1.19-8.09,1.12-2.53,2.84-4.61,5.15-6.23s5.02-2.61,8.14-2.96c1.99-.23,3.83-.14,5.52,.25,1.69,.39,3.21,1.05,4.55,1.99,1.34,.93,2.47,2.12,3.39,3.55s1.61,2.95,2.07,4.55c.21,.8,.42,2.08,.62,3.85l-20.05,2.28c.33,2.52,1.3,4.47,2.92,5.87,1.62,1.4,3.47,1.97,5.55,1.74,1.33-.15,2.73-.72,4.21-1.7,1.48-.98,2.89-2.38,4.23-4.18Zm-6.93-7.93c-.28-1.18-.67-2.08-1.17-2.72-.51-.64-1.15-1.12-1.92-1.44-.77-.32-1.56-.44-2.36-.35-.84,.09-1.62,.39-2.35,.9-.73,.5-1.29,1.14-1.67,1.91-.39,.77-.59,1.72-.6,2.84l10.07-1.14Z"/>
    <path d="M414.55,539.05l11.5,30.72c.5,1.33,.85,2.1,1.06,2.32,.34,.4,.77,.62,1.27,.66,.5,.04,1.33-.16,2.49-.6l3.94-1.48,2.04,5.45-24.17,9.05-2.04-5.45,3.99-1.49c1.4-.53,2.27-.95,2.6-1.28,.33-.33,.51-.73,.56-1.2,.05-.47-.17-1.36-.66-2.65l-8.2-21.9-7.86,2.94-2.04-5.45c2.16-1.07,3.8-1.94,4.9-2.64,1.66-1.03,3.39-2.23,5.18-3.6,1-.76,1.89-1.55,2.69-2.38l2.75-1.03Z"/>
    <path d="M452.5,569.46l-2.95-5.08c3.23-2.06,5.69-3.91,7.37-5.55,1.68-1.64,2.93-3.27,3.75-4.9,.82-1.63,1.29-3.27,1.41-4.93,.12-1.66-.1-3.35-.66-5.08-.9,1.96-1.9,3.55-3.01,4.78-1.11,1.23-2.45,2.31-4.02,3.22-2.52,1.47-5.09,2.26-7.69,2.37s-4.93-.4-6.99-1.55c-2.06-1.15-3.76-2.89-5.12-5.22-2.24-3.85-2.72-7.8-1.45-11.87,1.27-4.06,4.22-7.44,8.87-10.15,4.79-2.78,9.27-3.68,13.45-2.69,4.9,1.15,8.87,4.34,11.91,9.58,2.05,3.53,3.26,6.84,3.64,9.95,.38,3.11-.02,6.28-1.18,9.51-1.16,3.23-3.01,6.19-5.55,8.88-2.54,2.69-6.47,5.59-11.79,8.71Zm.78-24.79c1.26-.73,2.21-1.66,2.86-2.77,.65-1.12,.93-2.36,.85-3.72-.08-1.36-.51-2.72-1.29-4.07-1.14-1.97-2.67-3.23-4.58-3.79-1.91-.56-3.76-.31-5.56,.73-1.83,1.06-2.99,2.57-3.46,4.51-.48,1.94-.13,3.92,1.05,5.95,1.19,2.04,2.72,3.34,4.6,3.89s3.72,.31,5.52-.73Z"/>
    <path d="M462.83,511.74l3.04-2.53,1.15,.72,21.51-17.88,3.7,4.45c-.4,3.68-.49,6.92-.29,9.71,.2,2.79,.75,5.81,1.63,9.04,.88,3.23,1.91,6.09,3.1,8.58,1.18,2.49,3.31,6,6.38,10.54l-8.28,6.88c-2.79-4.11-4.8-7.79-6.03-11.05-1.23-3.26-2.1-7.17-2.61-11.72-.51-4.56-.56-8.77-.13-12.63l-10.49,8.72c-1.34,1.11-2.15,1.92-2.44,2.42s-.41,1.02-.38,1.56c.04,.54,.39,1.53,1.07,2.97l1.07,2.27-5.26,2.62-6.74-14.68Z"/>
    <path d="M509.67,466.48l4.45,3.83c-2.38,2.98-4.1,5.53-5.16,7.64-1.05,2.11-1.7,4.07-1.93,5.87s-.14,3.51,.28,5.12c.42,1.61,1.18,3.13,2.27,4.55,.22-2.13,.65-3.95,1.29-5.48,.64-1.52,1.56-2.98,2.76-4.37,1.9-2.21,4.06-3.8,6.47-4.76,2.41-.96,4.78-1.23,7.11-.82,2.33,.41,4.52,1.49,6.54,3.24,3.38,2.91,5.13,6.49,5.26,10.76,.13,4.26-1.56,8.42-5.05,12.48-3.61,4.2-7.56,6.51-11.83,6.94-4.99,.53-9.78-1.18-14.37-5.13-3.1-2.67-5.34-5.41-6.71-8.21-1.37-2.8-2.03-5.92-1.99-9.36,.05-3.44,.83-6.85,2.35-10.22s4.27-7.41,8.26-12.1Zm7.34,23.69c-.95,1.11-1.55,2.29-1.78,3.57-.24,1.27-.1,2.54,.41,3.79,.51,1.26,1.36,2.4,2.54,3.41,1.73,1.49,3.59,2.18,5.58,2.09,1.99-.09,3.67-.93,5.02-2.5,1.4-1.62,2-3.43,1.8-5.43-.19-2-1.17-3.76-2.95-5.29-1.79-1.54-3.66-2.26-5.62-2.17-1.96,.09-3.63,.93-5,2.52Z"/>
  </g>
  <path d="M330.12,660.24c-88.18,0-171.08-34.34-233.43-96.69C34.34,501.2,0,418.3,0,330.12S34.34,159.04,96.69,96.69C159.04,34.34,241.94,0,330.12,0s171.08,34.34,233.43,96.69c62.35,62.35,96.69,145.25,96.69,233.43s-34.34,171.08-96.69,233.43-145.25,96.69-233.43,96.69Zm0-648.24C154.71,12,12,154.71,12,330.12s142.71,318.12,318.12,318.12,318.12-142.71,318.12-318.12S505.54,12,330.12,12Z"/>
  <path d="M329.42,640.51c-83.03,0-161.09-32.33-219.81-91.05-58.71-58.71-91.05-136.77-91.05-219.81S50.9,168.56,109.62,109.85,246.39,18.8,329.42,18.8s161.09,32.33,219.81,91.05c58.71,58.71,91.05,136.77,91.05,219.81s-32.33,161.09-91.05,219.81c-58.71,58.71-136.77,91.05-219.81,91.05Zm0-614.71C161.88,25.8,25.57,162.11,25.57,329.66s136.31,303.85,303.85,303.85,303.85-136.31,303.85-303.85S496.97,25.8,329.42,25.8Z"/>
</svg>