<svg width="270" height="26" viewBox="0 0 270 26" fill="none" xmlns="http://www.w3.org/2000/svg">
<g clip-path="url(#clip0_98_500)">
<path d="M140.465 2.64525C140.615 2.64525 140.774 2.64525 140.934 2.66537C141.731 2.64525 149.124 2.75589 154.206 11.8886C155.9 14.8859 158.192 17.7021 160.175 19.2209L160.473 19.4623C163.054 21.5543 166.482 22.1779 169.66 21.1319C172.65 20.1462 174.822 17.8731 175.619 14.8859C175.679 14.6545 175.739 14.4131 175.788 14.1718C176.207 12.0093 175.669 9.78645 174.264 7.92572C172.251 5.25028 169.571 4.07349 166.91 4.70715C164.529 5.2704 162.695 7.20154 162.227 9.63558C161.988 10.8828 162.307 12.2104 163.104 13.2967C164.31 14.9261 165.914 15.6603 167.498 15.2882C168.903 14.9663 169.989 13.8298 170.258 12.3915C170.547 10.8928 169.581 9.44448 168.106 9.1528C167.608 9.05222 167.279 8.55937 167.369 8.05647C167.468 7.55357 167.957 7.22165 168.455 7.31218C170.926 7.79496 172.55 10.229 172.072 12.7435C171.663 14.906 170.019 16.6159 167.907 17.1087C165.605 17.6418 163.253 16.6259 161.609 14.4031C160.503 12.9044 160.065 11.0336 160.404 9.27349C161.012 6.11527 163.393 3.61082 166.482 2.87659C169.84 2.082 173.297 3.55048 175.739 6.78916C177.443 9.05222 178.12 11.8685 177.612 14.5338C177.552 14.8155 177.492 15.0971 177.413 15.3787C176.446 18.9895 173.835 21.7354 170.238 22.9222C166.472 24.1594 162.387 23.4151 159.318 20.9307L159.039 20.7095C156.856 19.0398 154.445 16.0828 152.602 12.824C147.919 4.39535 141.243 4.54622 140.964 4.54622C140.934 4.54622 140.894 4.54622 140.854 4.54622C139.648 4.44564 138.463 4.8379 137.546 5.63248C136.619 6.43713 136.061 7.55357 135.962 8.78065C135.812 10.6917 137.227 12.3814 139.1 12.5524C139.778 12.6128 140.495 12.3412 141.023 11.8282C141.801 11.0638 142.09 10.1687 141.801 9.35396C141.551 8.64989 140.914 8.15705 140.176 8.0967C139.668 8.05647 139.28 7.60386 139.329 7.0909C139.369 6.57794 139.798 6.19573 140.326 6.23597C141.791 6.35666 143.046 7.33229 143.544 8.73036C144.082 10.2491 143.624 11.9087 142.309 13.1861C141.402 14.0712 140.147 14.5338 138.931 14.4232C136.041 14.1617 133.869 11.5667 134.098 8.63983C134.238 6.90985 135.025 5.3408 136.33 4.2143C137.496 3.19844 138.961 2.65531 140.485 2.65531L140.465 2.64525Z" fill="white"/>
<path d="M129.535 2.64525C131.059 2.64525 132.514 3.18838 133.69 4.20424C134.995 5.33074 135.782 6.8998 135.922 8.62978C136.151 11.5667 133.989 14.1617 131.089 14.4131C129.884 14.5137 128.618 14.0511 127.711 13.176C126.406 11.8986 125.938 10.2391 126.476 8.7203C126.974 7.32223 128.239 6.3466 129.694 6.22591C130.202 6.19573 130.651 6.56788 130.691 7.08084C130.73 7.5938 130.352 8.04641 129.844 8.08664C129.106 8.14699 128.479 8.63984 128.229 9.3439C127.94 10.1586 128.229 11.0538 129.007 11.8182C129.535 12.3311 130.252 12.6027 130.93 12.5424C132.813 12.3714 134.218 10.6816 134.068 8.77059C133.969 7.54351 133.411 6.41701 132.484 5.62243C131.558 4.81778 130.382 4.43558 129.176 4.53616C129.136 4.53616 129.096 4.53616 129.066 4.53616C128.797 4.53616 122.111 4.38529 117.428 12.8039C115.585 16.0727 113.174 19.0197 110.961 20.7095L110.702 20.9207C107.633 23.4151 103.548 24.1594 99.7817 22.9122C96.1846 21.7253 93.564 18.9795 92.5975 15.3687C92.5277 15.0971 92.458 14.8155 92.4081 14.5238C91.89 11.8685 92.5775 9.04215 94.2814 6.78915C96.7226 3.55047 100.18 2.09206 103.538 2.87658C106.627 3.60076 109.018 6.11527 109.616 9.27349C109.955 11.0336 109.517 12.9044 108.411 14.4031C106.767 16.6259 104.415 17.6317 102.113 17.1087C99.9909 16.6158 98.3568 14.906 97.9482 12.7435C97.47 10.2391 99.0941 7.80502 101.565 7.31217C102.063 7.21159 102.552 7.54351 102.651 8.05647C102.751 8.55937 102.422 9.05221 101.914 9.15279C100.439 9.44447 99.4728 10.8928 99.7617 12.3915C100.041 13.8197 101.117 14.9563 102.522 15.2882C104.106 15.6503 105.71 14.9261 106.916 13.2967C107.713 12.2205 108.032 10.8828 107.793 9.63558C107.325 7.20154 105.491 5.27039 103.11 4.70714C100.449 4.08354 97.7689 5.25028 95.7561 7.92571C94.3512 9.78645 93.8131 12.0093 94.2316 14.1717C94.2814 14.4131 94.3312 14.6545 94.391 14.8859C95.1881 17.8731 97.3604 20.1563 100.35 21.142C103.518 22.188 106.956 21.5543 109.537 19.4623L109.816 19.241C111.818 17.7021 114.11 14.8959 115.804 11.8886C120.876 2.75589 128.259 2.64525 129.076 2.66536C129.236 2.65531 129.385 2.64525 129.545 2.64525L129.535 2.64525Z" fill="white"/>
<path d="M135.005 14.1315C136.599 14.1315 137.875 15.2077 138.184 16.817C138.921 20.5887 135.912 25.3965 135.782 25.5976C135.443 26.1408 134.557 26.1408 134.218 25.5976C134.088 25.3965 131.089 20.5887 131.817 16.817C132.125 15.2077 133.411 14.1315 134.995 14.1315L135.005 14.1315ZM135.005 23.1636C135.762 21.6247 136.749 19.1303 136.37 17.1791C136.201 16.3141 135.563 16.0123 135.015 16.0123C134.467 16.0123 133.819 16.3241 133.66 17.1791C133.301 19.0297 134.208 21.504 135.015 23.1636L135.005 23.1636Z" fill="white"/>
<path d="M7.86184 7.03054C8.28033 7.03054 8.69883 7.07077 9.10736 7.15123C10.6917 7.46303 11.7578 8.76052 11.7578 10.3698C11.7578 11.9791 10.6917 13.2766 9.10736 13.5884C5.39071 14.3327 0.637778 11.2851 0.438493 11.1543C0.16946 10.9833 0.0100396 10.6816 0.0100396 10.3698C0.0100396 10.058 0.16946 9.75626 0.438493 9.58528C0.617849 9.46458 4.40424 7.03054 7.87178 7.03054L7.86184 7.03054ZM8.73866 11.7478C9.58562 11.5768 9.89451 10.923 9.89451 10.3698C9.89451 9.81661 9.59558 9.15278 8.73866 8.99185C6.91521 8.62976 4.47399 9.5551 2.8299 10.3698C4.34445 11.1342 6.80561 12.14 8.73866 11.7578L8.73866 11.7478Z" fill="white"/>
<path d="M15.7136 9.41429C15.7933 9.41429 15.873 9.41429 15.9627 9.41429C16.5008 9.41429 20.347 9.56516 22.9476 14.2321C23.7547 15.6704 24.8408 17.0081 25.7874 17.7222L25.9468 17.8429C27.1027 18.7783 28.6471 19.0599 30.072 18.5973C31.4072 18.1547 32.3737 17.1489 32.7225 15.8213C32.7524 15.7106 32.7723 15.61 32.8022 15.4994C32.9816 14.5539 32.7424 13.5884 32.1346 12.7737C31.2478 11.5969 30.0919 11.0839 28.956 11.3454C27.9496 11.5868 27.1824 12.3915 26.9831 13.4174C26.8934 13.9102 27.013 14.4332 27.3319 14.8657C27.8101 15.5195 28.4279 15.8112 29.0357 15.6804C29.5539 15.5597 29.9524 15.1474 30.0521 14.6143C30.1418 14.1315 29.8329 13.6588 29.3546 13.5582C28.8564 13.4576 28.5276 12.9648 28.6172 12.4619C28.7169 11.959 29.2051 11.6271 29.7033 11.7176C31.188 12.0093 32.1545 13.4677 31.8656 14.9663C31.6264 16.2236 30.6798 17.2193 29.4443 17.5009C28.119 17.8027 26.7739 17.2394 25.8372 15.9822C25.2095 15.1273 24.9604 14.0712 25.1497 13.0654C25.4885 11.3153 26.8038 9.92725 28.5176 9.52493C30.3709 9.08238 32.2641 9.87696 33.5894 11.6371C34.5161 12.8642 34.8847 14.4031 34.6057 15.8514C34.5758 16.0023 34.536 16.1532 34.4961 16.304C33.978 18.2452 32.5631 19.7338 30.63 20.3675C28.6073 21.0313 26.4152 20.629 24.7711 19.2913L24.6316 19.1806C23.5056 18.3257 22.2601 16.7969 21.3234 15.1272C19.49 11.8282 17.0289 11.3354 16.2218 11.265C16.8894 11.4862 17.4274 12.0093 17.6666 12.7033C17.9954 13.6387 17.7264 14.6445 16.9392 15.4089C16.3912 15.9419 15.614 16.2236 14.8965 16.1532C13.2026 16.0023 11.9372 14.4835 12.0767 12.7737C12.1564 11.788 12.6048 10.8928 13.3421 10.2592C14.0097 9.68586 14.8367 9.37406 15.7036 9.37406L15.7136 9.41429ZM15.1257 14.3327C15.315 14.3327 15.5143 14.2421 15.6638 14.1013C15.9129 13.8499 16.0125 13.5984 15.9328 13.3671C15.873 13.1961 15.7136 13.0654 15.5342 13.0553C15.0261 13.0151 14.6375 12.5625 14.6873 12.0495C14.7072 11.8182 14.8069 11.617 14.9464 11.4661C14.8069 11.5365 14.6873 11.617 14.5677 11.7176C14.199 12.0294 13.9798 12.4719 13.94 12.9648C13.8901 13.6588 14.3983 14.2723 15.0759 14.3327C15.0958 14.3327 15.1058 14.3327 15.1257 14.3327Z" fill="white"/>
<path d="M28.667 -2.05534e-05C29.3247 -2.04959e-05 29.9823 0.100559 30.63 0.311778C32.573 0.955492 33.9779 2.43402 34.4961 4.38528C34.5359 4.53615 34.5658 4.68702 34.5957 4.83789C34.8747 6.28625 34.506 7.82513 33.5794 9.0522C32.2541 10.8124 30.3609 11.6069 28.5076 11.1644C26.7937 10.7621 25.4685 9.37406 25.1397 7.62396C24.9504 6.61816 25.1995 5.55201 25.8272 4.70714C26.7539 3.44988 28.0991 2.87657 29.4343 3.18837C30.6698 3.47 31.6164 4.46574 31.8556 5.723C32.1445 7.22164 31.168 8.68006 29.6933 8.97174C29.1951 9.07232 28.7069 8.74041 28.6072 8.22745C28.5076 7.71449 28.8364 7.2317 29.3446 7.13112C29.8229 7.0406 30.1317 6.56787 30.0421 6.07503C29.9424 5.54195 29.5439 5.12957 29.0257 5.00888C28.4279 4.86806 27.8101 5.16981 27.3218 5.82358C27.003 6.25607 26.8735 6.77909 26.9731 7.27193C27.1724 8.29785 27.9396 9.11255 28.946 9.34389C30.0819 9.6054 31.2378 9.09244 32.1246 7.91565C32.7424 7.10095 32.9815 6.13538 32.7922 5.18992C32.7723 5.07928 32.7424 4.9787 32.7224 4.86807C32.3637 3.54041 31.3972 2.52454 30.072 2.09205C28.6471 1.61932 27.1026 1.90095 25.9468 2.8464L25.8073 2.95704C24.8507 3.69128 23.7646 5.02899 22.9476 6.46729C20.3569 11.1342 16.5306 11.3052 15.9726 11.2851C15.026 11.3454 14.0894 11.0437 13.362 10.41C12.6246 9.76632 12.1763 8.87116 12.0966 7.89553C11.967 6.18567 13.2325 4.6669 14.9164 4.51603C15.6538 4.45568 16.411 4.72725 16.9591 5.26033C17.7463 6.02474 18.0153 7.0406 17.6865 7.96594C17.4473 8.64988 16.8993 9.1729 16.2417 9.40423C17.0288 9.33383 19.4999 8.85104 21.3433 5.55201C22.2899 3.87232 23.5354 2.35356 24.6714 1.47851L24.7909 1.38799C25.9169 0.472707 27.292 -2.06736e-05 28.6969 -2.05508e-05L28.667 -2.05534e-05ZM14.9363 9.24331C14.7869 9.09244 14.6872 8.89128 14.6773 8.65994C14.6374 8.14698 15.0161 7.69437 15.5242 7.65414C15.7036 7.64408 15.863 7.51333 15.9228 7.34234C16.0025 7.12106 15.9029 6.85955 15.6538 6.6081C15.4943 6.44717 15.2851 6.36671 15.0659 6.37677C14.3883 6.43712 13.8801 7.05066 13.93 7.74466C13.9698 8.22745 14.189 8.67 14.5577 8.99186C14.6773 9.09244 14.8068 9.18296 14.9363 9.24331Z" fill="white"/>
<path d="M31.0286 9.57522L92.7469 9.57523C93.2551 9.57523 93.6736 9.99766 93.6736 10.5106C93.6736 11.0236 93.2551 11.446 92.7469 11.446L31.0286 11.446C30.5205 11.446 30.102 11.0236 30.102 10.5106C30.102 9.99766 30.5205 9.57522 31.0286 9.57522Z" fill="white"/>
<path d="M177.253 9.56517L238.972 9.56518C239.48 9.56518 239.898 9.98762 239.898 10.5006C239.898 11.0135 239.48 11.436 238.972 11.436L177.253 11.436C176.745 11.436 176.327 11.0135 176.327 10.5006C176.327 9.98761 176.745 9.56517 177.253 9.56517Z" fill="white"/>
<path d="M262.148 7.17137C265.606 7.17137 269.402 9.60542 269.582 9.72611C269.851 9.8971 270.01 10.1988 270.01 10.5106C270.01 10.8224 269.851 11.1242 269.582 11.2952C269.382 11.4259 264.639 14.4735 260.913 13.7292C259.328 13.4174 258.262 12.1199 258.262 10.5106C258.262 8.90135 259.328 7.60387 260.913 7.29207C261.321 7.2116 261.73 7.17137 262.158 7.17137L262.148 7.17137ZM267.17 10.5106C265.656 9.74623 263.194 8.74042 261.261 9.12263C260.414 9.29362 260.106 9.94739 260.106 10.5006C260.106 11.0538 260.405 11.7176 261.261 11.8785C263.085 12.2406 265.526 11.3253 267.17 10.5006L267.17 10.5106Z" fill="white"/>
<path d="M241.333 0.150864C242.738 0.150864 244.113 0.623592 245.229 1.53887L245.368 1.64951C246.494 2.50444 247.74 4.03326 248.677 5.69284C250.51 8.99187 252.971 9.48472 253.778 9.55512C253.111 9.33384 252.573 8.81083 252.333 8.11682C252.005 7.18143 252.274 6.17563 253.061 5.41122C253.609 4.87814 254.386 4.60657 255.103 4.66692C256.797 4.81779 258.063 6.33655 257.923 8.04642C257.844 9.0321 257.395 9.92727 256.658 10.5609C255.93 11.1946 254.994 11.4963 254.047 11.436C253.509 11.446 249.663 11.2851 247.062 6.61818C246.255 5.17988 245.169 3.84216 244.223 3.12804L244.063 3.00734C242.907 2.07195 241.363 1.79032 239.938 2.25299C238.603 2.69554 237.636 3.70135 237.287 5.02901C237.258 5.13965 237.238 5.25028 237.208 5.36092C237.028 6.29632 237.268 7.26189 237.875 8.07659C238.762 9.25338 239.918 9.76634 241.054 9.50483C242.06 9.26344 242.828 8.4588 243.027 7.43288C243.117 6.94003 242.997 6.41702 242.678 5.98452C242.2 5.33075 241.572 5.03907 240.974 5.16982C240.456 5.29052 240.058 5.7029 239.958 6.23597C239.868 6.71876 240.177 7.19148 240.655 7.29206C241.154 7.39264 241.482 7.88549 241.393 8.38839C241.303 8.89129 240.805 9.22321 240.307 9.13268C238.822 8.841 237.855 7.38259 238.144 5.88394C238.384 4.62669 239.34 3.63094 240.566 3.34932C241.901 3.04758 243.236 3.61083 244.173 4.86808C244.8 5.72301 245.05 6.77911 244.86 7.78491C244.521 9.535 243.206 10.923 241.492 11.3253C239.639 11.7578 237.746 10.9733 236.421 9.21315C235.494 7.98607 235.125 6.44719 235.404 4.99883C235.434 4.83791 235.474 4.68704 235.514 4.54622C236.032 2.60502 237.447 1.11643 239.38 0.482779C240.028 0.27156 240.685 0.17098 241.343 0.17098L241.333 0.150864ZM255.064 9.39419C255.203 9.32379 255.323 9.24332 255.442 9.14274C255.811 8.83094 256.03 8.38839 256.07 7.89555C256.12 7.20154 255.612 6.588 254.934 6.52766C254.735 6.50754 254.506 6.59806 254.346 6.75899C254.097 7.00038 253.997 7.26189 254.077 7.49323C254.137 7.66421 254.296 7.79497 254.476 7.80503C254.984 7.84526 255.372 8.29787 255.323 8.81083C255.303 9.04216 255.203 9.24332 255.064 9.39419Z" fill="white"/>
<path d="M254.297 9.57524C255.163 9.57524 255.99 9.88704 256.658 10.4603C257.395 11.1041 257.844 11.9992 257.923 12.9749C258.053 14.6847 256.788 16.2035 255.104 16.3544C254.376 16.4248 253.609 16.1431 253.061 15.6101C252.274 14.8456 252.005 13.8298 252.334 12.9044C252.573 12.2205 253.121 11.6975 253.778 11.4661C252.991 11.5366 250.52 12.0193 248.677 15.3184C247.73 16.9981 246.485 18.5168 245.349 19.3919L245.229 19.4824C243.585 20.8201 241.393 21.2224 239.37 20.5586C237.427 19.9149 236.022 18.4364 235.504 16.4851C235.464 16.3443 235.434 16.1934 235.404 16.0426C235.125 14.5841 235.494 13.0453 236.421 11.8182C237.746 10.058 239.639 9.26344 241.493 9.70599C243.206 10.1083 244.532 11.4963 244.86 13.2464C245.05 14.2522 244.801 15.3184 244.173 16.1632C243.246 17.4205 241.901 17.9837 240.566 17.682C239.33 17.4004 238.384 16.4046 238.145 15.1474C237.856 13.6487 238.832 12.1903 240.307 11.8986C240.805 11.7981 241.293 12.13 241.393 12.6429C241.493 13.1559 241.164 13.6387 240.656 13.7393C240.177 13.8298 239.868 14.3025 239.958 14.7954C240.058 15.3284 240.456 15.7408 240.974 15.8615C241.572 15.9923 242.19 15.7006 242.678 15.0468C242.997 14.6143 243.127 14.0913 243.027 13.5985C242.828 12.5725 242.06 11.7578 241.054 11.5265C239.918 11.265 238.762 11.7779 237.876 12.9547C237.258 13.7694 237.019 14.735 237.208 15.6805C237.228 15.781 237.258 15.8917 237.278 16.0023C237.636 17.33 238.603 18.3458 239.928 18.7783C241.353 19.2511 242.897 18.9694 244.053 18.024L244.193 17.9133C245.149 17.1791 246.235 15.8414 247.053 14.4031C249.643 9.73617 253.479 9.56518 254.027 9.5853C254.107 9.5853 254.187 9.5853 254.277 9.5853L254.297 9.57524ZM254.884 14.4936C254.884 14.4936 254.914 14.4936 254.934 14.4936C255.612 14.4333 256.12 13.8197 256.07 13.1257C256.03 12.6429 255.811 12.2004 255.442 11.8785C255.323 11.7779 255.193 11.6874 255.064 11.6271C255.213 11.7779 255.313 11.9791 255.323 12.2104C255.363 12.7234 254.984 13.176 254.476 13.2162C254.297 13.2263 254.137 13.3571 254.077 13.528C253.998 13.7493 254.097 14.0108 254.346 14.2623C254.496 14.4132 254.695 14.4936 254.884 14.4936Z" fill="white"/>
</g>
<defs>
<clipPath id="clip0_98_500">
<rect width="270" height="26" fill="white" transform="translate(270 26) rotate(-180)"/>
</clipPath>
</defs>
</svg>
