<svg width="800" height="800" viewBox="0 0 800 800" fill="none" xmlns="http://www.w3.org/2000/svg">
<g clip-path="url(#clip0_311_2443)">
<path d="M506.119 456.591C506.119 515.236 458.645 562.71 400 562.71C341.355 562.71 293.881 515.236 293.881 456.591C293.881 397.947 341.355 350.472 400 350.472C458.645 350.472 506.119 397.947 506.119 456.591ZM723.285 190.637C765.667 190.637 800 224.969 800 267.351V468.419V638.932C800 684.107 763.368 720.739 718.193 720.739H81.807C36.6324 720.739 0 684.107 0 638.932V468.255V267.351C0 224.969 34.3327 190.637 76.7146 190.637H230.144L237.372 160.082C248.378 112.772 290.595 79.2608 339.22 79.2608H460.945C509.569 79.2608 551.786 112.772 562.793 160.082L569.856 190.637H723.285ZM160 301.355C160 280.164 142.752 262.916 121.561 262.916C100.205 262.916 82.9569 280.164 82.9569 301.355C82.9569 322.546 100.205 339.795 121.396 339.795C142.752 339.959 160 322.71 160 301.355ZM589.24 456.591C589.24 352.115 504.476 267.351 400 267.351C295.524 267.351 210.76 352.115 210.76 456.591C210.76 561.068 295.524 645.832 400 645.832C504.476 645.832 589.24 561.068 589.24 456.591Z" fill="#ADADAD"/>
</g>
<defs>
<clipPath id="clip0_311_2443">
<rect width="800" height="800" fill="white"/>
</clipPath>
</defs>
</svg>
