<svg width="125" height="90" viewBox="0 0 125 90" fill="none" xmlns="http://www.w3.org/2000/svg">
<g clip-path="url(#clip0_371_2484)">
<path d="M69.9012 0.329503C68.645 0.498253 66.1485 0.924146 64.3722 1.26968C61.4356 1.84022 60.9475 1.87236 59.1392 1.6554C53.8742 1.0045 46.8248 2.8045 40.8557 6.32415C39.5114 7.11968 39.3754 7.15182 37.9431 7.01522C36.0227 6.83843 34.6545 7.21611 33.4302 8.27682C32.31 9.24111 31.7099 10.3581 31.2618 12.2866C30.9898 13.4679 30.7017 13.9581 29.5895 15.2197C27.277 17.8152 25.4687 20.3304 23.5963 23.5688C22.5961 25.2884 21.62 26.8233 21.4199 27C21.2119 27.1768 20.1237 27.6509 18.9635 28.0768C15.1227 29.4911 12.6822 31.2911 10.1938 34.5616C7.96934 37.4786 7.00915 39.7447 5.80092 44.8554C5.7049 45.2652 5.21681 45.7313 4.28863 46.3099C2.41627 47.475 0.719947 49.3875 0.311868 50.8099C-0.136218 52.3447 -0.0722055 55.5509 0.42389 57.2706C1 59.2474 1.99219 61.0956 3.32045 62.6866L4.46467 64.0608L4.1046 65.0813C3.6005 66.5116 3.80054 68.5688 4.6327 70.425C5.38484 72.1206 5.24882 71.9116 7.05716 74.0733C8.72948 76.0741 10.4258 77.3438 12.3782 78.075C13.6824 78.5652 13.9065 78.5813 15.3147 78.3241C16.819 78.0509 16.859 78.059 18.1393 78.7661C22.7882 81.3456 24.4765 81.7875 27.8852 81.3536C30.0616 81.0724 31.7339 80.5581 33.6063 79.6099L34.8305 78.9831L36.7029 79.3447C39.0633 79.7947 41.1437 79.7947 43.7202 79.3447C46.5928 78.8465 48.4091 77.9224 49.7214 76.3072C50.3055 75.584 50.7776 74.8688 50.7776 74.7C50.7776 74.1456 51.4737 73.8322 54.5703 72.9804L57.6749 72.1206L58.307 73.4224C60.1394 77.2152 62.6918 80.1804 65.2043 81.4259C66.4526 82.0527 67.9088 82.1893 68.9731 81.7875C69.7332 81.4983 69.8532 81.5706 72.8378 84.1983C76.9346 87.7983 79.8711 88.7384 84.7361 88.0072C89.617 87.2759 89.9451 87.2759 91.3293 88.0554C93.7618 89.4295 98.5707 90.3375 101.003 89.8795C102.387 89.6224 103.756 88.9554 105.492 87.7018L106.604 86.8983L109.765 87.0349C112.749 87.1634 113.014 87.1393 114.478 86.6009C116.742 85.7652 118.439 84.6724 120.311 82.8402C122.063 81.1206 122.767 79.7143 122.767 77.9224C122.767 77.4322 122.879 77.1349 123.071 77.1349C123.664 77.1349 124.608 75.8572 124.856 74.7161C125.168 73.3179 124.984 72.0161 124.12 69.4608C123.76 68.392 123.464 67.2188 123.464 66.8652C123.464 66.5116 123.359 66.1661 123.231 66.0858C123.095 66.0054 122.999 64.7358 122.999 63.1125C122.999 58.3474 122.359 56.6036 120.175 55.4224C118.783 54.667 118.351 54.1608 116.798 51.4447C114.294 47.0491 111.309 44.759 106.1 43.2081C104.78 42.8143 103.596 42.3241 103.436 42.0991C103.284 41.8822 102.964 41.167 102.732 40.5161C101.891 38.1858 99.707 36.667 90.8893 32.2795C90.2171 31.942 89.681 31.5483 89.673 31.3795C89.673 31.2108 89.9771 30.6081 90.3772 30.0295C92.0895 27.5143 92.3455 25.867 91.3934 23.5447C91.0813 22.7733 90.8253 21.9054 90.8253 21.6161C90.8253 21.3268 90.6812 21.0295 90.4972 20.9572C90.1211 20.8125 89.769 19.2456 89.553 16.8027C89.473 15.8947 89.265 14.6491 89.0809 13.9902C88.6648 12.4795 87.0245 9.99647 86.3284 9.81968C85.9043 9.71522 85.7363 9.43397 85.5202 8.4295C84.6321 4.42772 81.2634 1.0045 77.4467 0.200931C75.8464 -0.128533 72.7978 -0.0883544 69.9012 0.305396V0.329503ZM73.1419 2.31432C72.7898 2.85272 72.5657 3.32682 72.6298 3.39915C72.6938 3.47147 73.0778 2.98932 73.4779 2.33843C74.3101 1.0045 74.3421 0.996467 76.6785 1.37415C80.4313 1.98486 83.3678 4.85361 84.28 8.79915C84.416 9.36968 84.5921 10.6393 84.6801 11.5875C84.8321 13.2188 84.8081 13.3715 84.296 13.9259C83.9919 14.2554 82.9757 15.7822 82.0236 17.3411C81.0714 18.9 80.2152 20.1134 80.1112 20.0491C80.0072 19.9849 79.9992 19.8161 80.1112 19.6554C81.6475 17.2366 84.272 12.6161 84.184 12.4715C83.9839 12.134 83.7519 12.4474 81.9595 15.4688C79.9432 18.8599 79.5511 19.4384 79.3751 19.2616C79.295 19.1813 79.7671 18.2974 80.4153 17.2768C81.0714 16.2483 82.0556 14.4965 82.6237 13.3393C83.4958 11.5715 83.6399 11.0652 83.5839 10.0849C83.5359 9.24915 83.4158 8.91968 83.1678 8.91968C82.9197 8.91968 82.7677 9.26522 82.6637 10.0608C82.4716 11.4268 81.3434 13.7813 79.5751 16.4733C78.863 17.5661 78.2228 18.675 78.1588 18.9483C78.0708 19.2938 78.2948 19.8 78.903 20.5875C80.4233 22.5724 80.6953 23.4483 80.5593 25.9795C80.4793 27.4661 80.2712 28.6554 79.9432 29.5393C79.007 32.0224 76.7586 33.6616 73.5899 34.184C72.1097 34.425 71.4535 34.9313 72.2217 35.2286C72.7898 35.4536 75.5103 34.867 76.8306 34.2402C80.2072 32.6331 81.7835 29.7 81.7835 25.0072C81.7835 23.2956 81.7995 23.2634 84.048 19.7759C84.224 19.4947 84.272 19.2616 84.144 19.2616C84.0159 19.2616 83.3838 20.1134 82.7517 21.134C81.9195 22.484 81.5595 22.9018 81.4555 22.6366C81.2954 22.2027 81.4955 21.7768 82.6957 19.9608C83.8639 18.1929 83.9119 18.1045 83.6479 18.1045C83.5038 18.1045 82.8717 18.9081 82.2156 19.9045C81.5595 20.9009 81.0954 21.5277 81.1594 21.2947C81.2314 21.0697 81.7995 20.1215 82.4236 19.1893C83.8079 17.1161 84.168 16.4652 83.8959 16.4652C83.7839 16.4652 83.0318 17.4616 82.2316 18.675C81.4314 19.8804 80.7353 20.8366 80.6793 20.7884C80.5913 20.7 84.112 14.7697 84.48 14.3759C84.544 14.3116 84.52 14.7938 84.432 15.4688C84.296 16.4652 84.384 17.0036 84.9041 18.4902C85.8163 21.0697 85.9523 24.5813 85.2642 27.4902C84.328 31.4438 81.8715 35.8233 78.7669 39.1099C75.6703 42.3884 72.4457 44.1081 67.4448 45.1688C64.1561 45.8599 64.0681 45.9322 63.1079 48.4313C61.2516 53.2849 59.2192 55.9286 55.3624 58.5322C52.0818 60.742 47.4729 62.2366 43.8162 62.2688C42.864 62.2768 41.7838 62.4134 41.4318 62.5661C41.0557 62.7268 40.2235 63.6349 39.4634 64.7036C37.9431 66.8411 35.9427 68.4804 33.9343 69.2358C31.7099 70.0715 29.3414 70.4491 27.269 70.2884C25.5327 70.1518 25.2527 70.2 22.8682 71.0197C20.4677 71.8474 20.1637 71.8956 17.4272 71.9036H14.5306L12.2742 70.7866C10.9299 70.1197 9.55364 69.2197 8.88151 68.5688C7.47324 67.2108 6.00096 64.7197 6.185 63.9884C6.28101 63.6027 5.98496 63.0804 4.93676 61.8268C2.92037 59.4081 2.0642 57.4795 1.77615 54.7393C1.44008 51.509 2.33626 49.8054 5.50487 47.6599C7.29721 46.4465 7.2492 46.5349 8.13737 42.6295C8.74549 39.9536 10.0897 37.2777 12.0421 34.8188C14.0505 32.2875 16.1949 30.7527 19.4355 29.4911C20.8038 28.9608 22.1641 28.2938 22.4361 28.0206C22.7082 27.7474 23.7884 26.0518 24.8286 24.2679C27.141 20.2902 28.7253 18.1688 31.4378 15.4366C37.295 9.5304 44.4003 5.2795 51.1056 3.68843C54.1142 2.97325 57.3148 2.72415 59.2512 3.04557C60.7795 3.30272 61.1476 3.27861 63.7641 2.72415C65.3404 2.38665 66.6446 2.15361 66.6926 2.18575C66.7406 2.22593 65.9405 3.77682 64.9083 5.66522C63.8761 7.54557 63.1559 9.03218 63.284 8.992C63.42 8.94379 64.3402 7.40093 65.3324 5.56075C66.9247 2.61165 67.6848 1.57504 68.0129 1.91254C68.0609 1.96075 67.2687 3.39111 66.2525 5.06254C65.2363 6.73397 64.4042 8.1804 64.4042 8.26075C64.4042 8.79111 65.1883 7.77057 66.9327 4.98218C68.1569 3.0295 69.1331 1.69557 69.3971 1.64736C69.7812 1.57504 69.7892 1.61522 69.4932 2.03307C67.7648 4.47593 66.2605 6.72593 66.2605 6.84647C66.2605 7.2804 66.8606 6.61343 68.437 4.42772C69.3891 3.10182 70.1253 1.92861 70.0693 1.83218C70.0133 1.73575 70.2213 1.61522 70.5414 1.55093C70.8694 1.49468 71.1175 1.48665 71.1175 1.5429C71.1175 1.59915 70.7254 2.16968 70.2293 2.84468C68.9651 4.56432 68.0449 6.05897 68.1729 6.1795C68.2369 6.23575 68.933 5.35986 69.7012 4.2429C71.6456 1.4304 71.7256 1.342 72.1257 1.42236C72.3897 1.47861 72.2217 1.85629 71.3975 3.06165C70.8054 3.92147 70.3813 4.68486 70.4453 4.74915C70.5174 4.81343 71.0615 4.14647 71.6776 3.23843C72.6858 1.75182 73.3899 1.04468 73.6299 1.28575C73.678 1.33397 73.4459 1.80004 73.1018 2.3304L73.1419 2.31432ZM35.2626 10.0768C34.2224 10.9045 33.3102 11.5474 33.2622 11.4991C33.0942 11.3384 33.8143 10.1009 34.3984 9.56254C35.0305 8.9679 35.8787 8.59825 36.6468 8.58218C37.0629 8.57415 36.7509 8.90361 35.2706 10.0768H35.2626ZM87.0325 13.5322C86.9685 14.0625 86.8405 15.5411 86.7525 16.8188L86.5924 19.1411L86.2004 17.9759C85.8883 17.0438 85.8323 16.2643 85.9203 14.0384L86.0323 11.2581L86.5844 11.909C87.0405 12.4393 87.1205 12.7366 87.0245 13.5241L87.0325 13.5322ZM87.8167 13.9179C87.9527 14.175 88.1767 15.2116 88.3048 16.2322C88.5048 17.8233 88.4408 18.9161 87.8247 24.075C87.0565 30.5116 86.2404 36.0965 85.5202 39.8331C85.2722 41.1108 85.1202 42.2036 85.1842 42.2679C85.4562 42.5331 85.7283 41.7134 86.2084 39.134C86.4964 37.5991 86.8245 36.2411 86.9365 36.1125C87.2246 35.7911 87.1685 36.1608 86.5284 38.9974C86.3204 39.9215 86.9525 39.4152 87.2646 38.4188L87.5446 37.5108L87.5686 38.459C87.5846 39.1259 87.3446 39.8974 86.7925 41.0143C85.5922 43.409 82.5757 46.9206 83.0718 45.3375C83.1358 45.1206 83.7199 41.8179 84.368 37.9768C85.0161 34.1438 85.6323 30.8572 85.7603 30.6563C85.9043 30.4152 85.9363 30.6884 85.8643 31.4599C85.4002 36.1527 85.1682 37.6634 84.472 40.5965C83.6079 44.2206 83.5679 44.4456 83.8719 44.2527C84.352 43.9554 85.7443 37.1572 86.0883 33.4125C86.2804 31.3233 86.5924 28.5349 86.7845 27.2411C86.9765 25.9393 87.1285 23.4884 87.1285 21.7688C87.1285 18.675 87.3606 13.4438 87.4966 13.4438C87.5366 13.4438 87.6806 13.6527 87.8247 13.9099L87.8167 13.9179ZM88.7449 24.4929C88.2968 28.7197 87.7927 31.9179 87.5366 32.159C87.3526 32.3277 87.3206 32.2474 87.4086 31.8777C87.4806 31.5884 87.8327 28.9286 88.1927 25.9474C88.5528 22.9741 88.8889 20.8527 88.9369 21.2384C88.9849 21.6241 88.8969 23.0786 88.7449 24.4929ZM89.7931 26.3491C89.465 29.0009 89.1129 30.3991 88.8329 30.1179C88.7288 30.0134 89.409 23.5366 89.577 22.9741C89.665 22.6849 89.729 22.6929 89.9131 23.0224C90.0651 23.2875 90.0251 24.3965 89.7851 26.3491H89.7931ZM90.8173 26.0036C90.8173 26.4456 90.6492 27.1366 90.4732 27.5143C90.2491 27.9804 90.1745 27.8331 90.2491 27.0724C90.3132 26.4456 90.3612 25.6099 90.3612 25.2161C90.3612 24.6616 90.4092 24.5733 90.5932 24.8465C90.7212 25.0313 90.8173 25.5697 90.8173 26.0116V26.0036ZM88.8249 33.6054C88.6888 34.5375 88.4008 35.0277 88.1447 34.7706C87.9287 34.5536 88.4728 32.7456 88.7449 32.7456C88.8569 32.7456 88.8969 33.1393 88.8249 33.6054ZM90.3452 33.3563C90.9293 33.7661 90.8333 33.9027 89.745 34.2402C89.305 34.3768 89.2089 34.3125 89.2089 33.8465C89.2089 32.9143 89.521 32.7858 90.3452 33.3643V33.3563ZM83.4718 39.7849C82.9037 43.1358 82.3276 46.1491 82.2076 46.4706C81.7515 47.6358 81.8075 46.4465 82.3516 43.0795C82.6637 41.175 83.0478 38.6759 83.1998 37.5268C83.4318 35.8072 84.12 33.6938 84.44 33.6938C84.48 33.6938 84.0399 36.45 83.4718 39.7929V39.7849ZM92.0495 34.3688C92.3936 34.5375 92.6816 34.7625 92.6816 34.859C92.6816 34.9554 92.0255 35.2045 91.2333 35.4054C90.4492 35.6063 89.561 35.8393 89.289 35.9197C88.8489 36.0402 88.8009 35.992 88.9049 35.4777C88.9929 35.0518 89.313 34.7706 90.0971 34.4331C90.6972 34.1759 91.2253 33.9911 91.2893 34.0152C91.3534 34.0393 91.6974 34.2081 92.0415 34.3768L92.0495 34.3688ZM88.4248 35.7027C88.1927 35.9358 88.0007 35.5902 88.1927 35.2849C88.3368 35.0518 88.4008 35.0518 88.4728 35.2768C88.5208 35.4375 88.5048 35.6304 88.4248 35.7108V35.7027ZM99.827 38.925C100.651 39.6724 101.139 40.3634 101.555 41.4161C101.867 42.2036 102.059 42.8866 101.971 42.9188C99.819 43.5456 89.1049 45.9643 88.9369 45.8599C88.5448 45.6108 85.7443 45.3777 85.7443 45.5866C85.7443 45.6831 85.5842 45.7715 85.4002 45.7715C85.1762 45.7715 85.4962 45.1768 86.3284 44.0599L87.6006 42.3483L91.9295 41.1349C98.2987 39.3509 98.8588 39.1741 98.4587 39.0858C98.2587 39.0375 95.8182 39.6402 93.0417 40.4197C90.2651 41.1991 87.9607 41.8099 87.9287 41.7697C87.6166 41.4563 88.7849 40.9741 92.5776 39.8491C97.6906 38.3384 97.6506 38.3545 97.4825 38.1858C97.3625 38.0652 94.3139 38.909 90.5372 40.0822C89.545 40.3956 88.6408 40.6447 88.5208 40.6447C88.1687 40.6447 88.5448 39.7366 88.9369 39.6241C93.7778 38.2741 96.3303 37.4866 96.2583 37.3661C96.2023 37.2777 94.818 37.6072 93.2017 38.0893C89.593 39.1661 88.7609 39.3509 88.7609 39.0938C88.7609 38.9813 89.569 38.6438 90.5692 38.3545C95.8022 36.8197 95.5222 36.9322 95.1301 36.5384C94.794 36.2009 94.506 36.2491 91.8174 37.0929C89.345 37.8724 88.8489 37.9688 88.6808 37.6956C88.2088 36.9081 88.8489 36.3938 91.0973 35.759L93.2737 35.1402L95.9782 36.5143C97.4585 37.2616 99.2029 38.3545 99.835 38.917L99.827 38.925ZM82.1676 40.6849C81.3834 45.6831 81.0154 47.5715 80.3592 49.9581C79.8231 51.9108 79.111 53.5822 79.3751 52.2804C79.8151 50.0786 80.7353 44.8393 81.2554 41.609C81.7835 38.3063 82.3356 36.442 82.6717 36.7956C82.7197 36.8438 82.4957 38.5875 82.1676 40.6768V40.6849ZM80.6553 42.2197C79.311 50.7054 78.3349 55.0768 77.7827 55.0768C77.7427 55.0768 77.9588 54.0804 78.2628 52.8429C78.7669 50.7938 80.8873 39.6081 80.8873 38.9893C80.8873 38.8527 80.9514 38.7965 81.0234 38.8768C81.0954 38.9572 80.9354 40.4599 80.6553 42.2197ZM79.3831 44.7509C78.927 47.1697 78.1828 50.7134 77.7267 52.634C76.9826 55.792 76.8306 56.2018 76.0704 56.9893C75.6063 57.4795 75.2063 57.817 75.1582 57.7688C75.1102 57.7206 75.6463 55.342 76.3505 52.4813C77.0546 49.6206 77.9028 45.9241 78.2388 44.2688C78.7349 41.8259 78.967 41.1188 79.4631 40.5965C79.7911 40.2509 80.1112 40.042 80.1432 40.1545C80.1832 40.267 79.8391 42.3402 79.3831 44.759V44.7509ZM77.5427 45.0081C77.2066 46.6474 76.3665 50.3277 75.6703 53.2125C74.6461 57.4393 74.3101 58.5241 73.886 58.8536C73.6059 59.0706 73.3019 59.2634 73.2299 59.2634C73.1579 59.2634 73.4459 58.0983 73.878 56.6599C74.7902 53.6545 76.0464 48.3188 76.5985 45.0804C76.8626 43.5456 77.1266 42.7099 77.4627 42.3483C77.7187 42.067 77.9988 41.8741 78.0548 41.9304C78.1108 41.9866 77.8788 43.3849 77.5427 45.0081ZM102.772 43.4491C102.86 43.5938 103.132 43.7866 103.412 43.8911C103.756 44.0277 102.083 44.5179 97.5705 45.6268C91.2733 47.1616 91.2333 47.1697 90.5772 46.7518L89.9211 46.334L94.49 45.217C97.0104 44.5983 99.787 43.9072 100.683 43.6741C102.676 43.1518 102.596 43.1599 102.772 43.4491ZM75.9584 44.4295C75.8864 44.6224 75.8304 44.5661 75.8224 44.2929C75.8064 44.0599 75.8624 43.9152 75.9344 43.9875C76.0064 44.0599 76.0224 44.2688 75.9584 44.4295ZM75.1022 44.2929C75.1022 44.4858 73.2619 50.617 71.7176 55.5429C71.0214 57.7768 70.3413 59.9545 70.2053 60.3804C69.9973 61.0554 69.1971 61.7786 68.9411 61.5215C68.893 61.4733 69.1091 60.6616 69.4371 59.7054C69.7572 58.7572 70.7014 55.5188 71.5335 52.5215C72.3577 49.5241 73.1899 46.5268 73.3739 45.8759C73.5979 45.0884 73.886 44.6063 74.2461 44.4295C74.8462 44.1402 75.1022 44.1 75.1022 44.2929ZM106.972 44.9599C110.349 46.0608 113.446 48.5679 115.15 51.5733C117.23 55.2456 117.67 55.7759 119.215 56.5233C120.303 57.0456 120.767 57.4152 121.039 57.9938C121.575 59.1188 121.895 61.9474 121.727 64.0366C121.639 65.1054 121.679 66.15 121.807 66.4875C122.007 67.0018 121.855 67.4036 120.615 69.5893C118.711 72.9563 117.806 73.9447 115.646 75.0134C113.894 75.8813 113.878 75.8893 110.173 76.0259C107.997 76.1063 105.668 76.3393 104.548 76.5804C102.86 76.95 102.435 76.9661 100.867 76.7009C99.3149 76.4358 99.1469 76.3634 99.5149 76.0983C100.139 75.6483 99.859 75.5358 98.7708 75.809C98.1467 75.9616 97.5705 75.9777 97.1625 75.8411C96.5704 75.6483 96.6184 75.6081 97.9626 75.3188C98.8668 75.1179 99.3949 74.8929 99.3949 74.7C99.3949 74.3063 99.5309 74.2983 97.1945 74.8366C96.1063 75.0938 94.746 75.3027 94.1939 75.3027C93.6418 75.3027 92.7216 75.5116 92.1695 75.7608C91.1453 76.2188 89.529 76.3233 88.1687 76.0179L87.4726 75.8652L88.2808 75.7125C88.7289 75.6322 91.1293 75.2786 93.6018 74.9331C96.0823 74.5875 98.1627 74.2661 98.2187 74.2259C98.2827 74.1777 98.2347 74.0572 98.0986 73.9366C97.9706 73.8161 95.6822 74.0491 92.5536 74.5072C86.2084 75.4393 85.9283 75.4474 84.6161 74.8125L83.5759 74.3063L89.385 73.2054C96.4903 71.8554 96.8984 71.759 96.8024 71.4697C96.7544 71.3331 96.6504 71.2608 96.5384 71.3009C96.2663 71.3893 89.713 72.667 86.1924 73.3179L83.0638 73.8965L82.3116 73.3822C81.8955 73.1009 81.5595 72.8116 81.5595 72.7313C81.5595 72.5384 94.1539 70.4572 95.8662 70.3688C97.3225 70.2884 97.6746 70.1358 97.8106 69.525C97.9066 69.0831 100.979 66.359 101.163 66.5518C101.251 66.6402 100.827 67.2268 100.195 67.8777C99.5629 68.5286 99.1629 69.0429 99.2909 69.0429C99.4189 69.0429 100.027 68.5286 100.659 67.8777C101.979 66.5277 102.507 66.3349 101.491 67.5724C100.443 68.85 100.891 68.85 102.051 67.5724C102.596 66.9697 103.116 66.4795 103.204 66.4795C103.292 66.4795 102.94 66.9697 102.411 67.5724C100.971 69.2116 101.547 69.1313 103.052 67.4759C103.772 66.6884 104.78 65.692 105.292 65.2661C105.972 64.7036 105.796 64.9768 104.636 66.3027C103.716 67.3474 103.196 68.1027 103.396 68.1027C103.828 68.1027 106.228 65.5474 107.516 63.7072C108.053 62.9438 108.589 62.3733 108.701 62.4456C108.877 62.55 107.981 63.9643 106.316 66.2224C106.02 66.6161 105.844 66.9938 105.908 67.0581C105.972 67.1224 106.74 66.1741 107.596 64.9688C108.453 63.7634 109.309 62.759 109.485 62.759C110.005 62.759 109.893 62.9679 108.469 64.7116C107.732 65.6197 107.028 66.5197 106.916 66.7125C106.468 67.4599 107.54 66.3831 108.909 64.7116C110.221 63.1045 110.325 63.0322 111.501 62.8715C113.03 62.6625 114.206 62.1804 114.206 61.7625C114.206 61.192 113.95 61.1599 112.981 61.6099C111.941 62.092 109.813 62.2286 109.813 61.8108C109.813 61.6661 109.685 61.6018 109.525 61.6581C109.365 61.7143 108.869 61.5777 108.405 61.3447C107.38 60.8384 107.164 60.967 106.212 62.6384C105.3 64.2456 104.284 65.2581 104.012 64.8241C103.852 64.567 103.74 64.5991 103.444 65.025C103.132 65.467 102.868 65.5474 101.731 65.5474C99.3949 65.5474 97.0104 64.334 95.6582 62.4536L94.954 61.4813L96.0182 61.2804C97.5385 60.9911 97.3865 60.5974 95.8342 60.7902C94.722 60.9268 94.554 60.8947 94.3379 60.4849C94.0499 59.9465 94.0099 59.9545 97.1545 59.4804C98.2907 59.3116 98.9388 59.1027 98.9388 58.9179C98.9388 58.7491 98.7628 58.6608 98.5307 58.709C98.3067 58.7572 97.1225 58.95 95.8662 59.1509C93.6898 59.4965 93.5618 59.4965 92.2335 59.0465C91.4734 58.7893 90.5692 58.5724 90.2091 58.5563C89.1049 58.5161 91.0173 58.2027 95.2581 57.7447C98.5947 57.3831 99.2589 57.367 100.083 57.6483C100.611 57.825 101.091 58.05 101.163 58.1465C101.227 58.2429 100.723 58.6929 100.051 59.1429C99.3789 59.5929 98.9708 59.9706 99.1469 59.9706C99.3229 59.9706 99.971 59.609 100.595 59.159C101.427 58.5563 101.867 58.3795 102.299 58.484C102.628 58.5643 102.876 58.6929 102.876 58.7733C102.876 58.8536 102.251 59.2715 101.483 59.6893C100.715 60.1152 100.091 60.5652 100.091 60.6858C100.091 60.8063 100.875 60.4849 101.827 59.9625C104.444 58.5161 104.796 58.8938 102.363 60.525C101.251 61.2724 100.323 61.9875 100.323 62.1081C100.323 62.2286 101.251 61.6902 102.403 60.9027C104.692 59.3438 105.18 59.0947 105.18 59.4563C105.18 59.5849 104.348 60.2759 103.308 61.0152C102.267 61.7545 101.491 62.3893 101.563 62.4536C101.635 62.5179 102.596 61.9233 103.684 61.1438C105.628 59.7456 106.532 59.2554 107.108 59.2875C107.268 59.2875 107.22 59.4241 107.012 59.5768C106.812 59.7295 106.204 60.2599 105.668 60.742C104.124 62.1483 104.74 61.9956 106.364 60.5813C107.172 59.8741 107.893 59.3197 107.981 59.3438C108.229 59.4081 113.054 55.7679 113.054 55.5108C113.054 55.3983 112.013 56.0974 110.741 57.0697L108.429 58.8375L108.917 57.8974C109.221 57.3188 110.141 56.3706 111.349 55.4143C112.413 54.5706 113.294 53.775 113.294 53.6625C113.294 53.4938 111.045 55.1572 109.541 56.4349C109.213 56.7081 109.125 56.6599 108.789 55.9849L108.405 55.2134L110.149 53.6224C111.117 52.7384 111.893 51.9268 111.893 51.7983C111.893 51.6697 111.085 52.3045 110.085 53.2045C107.54 55.5188 107.428 55.2777 109.949 52.8991C111.085 51.8304 111.933 50.8822 111.845 50.7858C111.757 50.6893 110.781 51.4688 109.693 52.5054C107.909 54.2009 107.028 54.7634 107.028 54.217C107.028 54.1125 107.748 53.317 108.653 52.425C109.557 51.5331 110.269 50.7215 110.269 50.5849C110.269 50.4483 109.621 50.9786 108.813 51.7581C106.636 53.8474 106.412 54.0081 105.988 53.759C105.684 53.5822 105.98 53.2286 107.596 51.8304C108.685 50.8902 109.573 50.0866 109.573 50.0545C109.573 49.7331 108.829 50.2474 107.164 51.734L105.196 53.4938L103.348 53.3411C101.147 53.1563 99.4349 53.5099 98.4427 54.3456C97.8746 54.8277 97.0104 55.0527 92.6336 55.8241C84.6241 57.2384 76.4065 58.5884 76.3185 58.492C76.2785 58.4518 76.5025 58.1866 76.8066 57.8974C77.2786 57.4474 79.247 57.0054 90.2891 54.8197C97.3945 53.4134 103.26 52.2241 103.308 52.1759C103.748 51.75 101.547 52.1197 90.7132 54.2733C83.8879 55.6313 78.2548 56.7161 78.2148 56.6759C78.1748 56.6358 78.4789 56.2099 78.887 55.7197L79.6231 54.8358L84.8801 53.9277C87.7607 53.4295 93.1777 52.5456 96.8824 51.959C100.587 51.3804 103.684 50.85 103.748 50.7858C103.82 50.7134 103.82 50.625 103.748 50.5527C103.62 50.4322 92.6576 52.1197 85.0721 53.4295C82.2476 53.9197 79.9592 54.2813 79.9592 54.2491C79.9592 54.217 80.1672 53.8313 80.4072 53.4134L80.8553 52.642L91.0733 50.9304L101.291 49.2188L101.755 49.7331C102.091 50.1027 102.291 50.175 102.475 49.9902C102.756 49.709 102.868 48.5759 102.612 48.5759C102.531 48.5759 101.939 48.2866 101.267 47.917L100.067 47.2581L102.219 46.8483C104.26 46.4625 104.956 46.1893 104.692 45.9081C104.62 45.8277 103.308 46.0286 101.803 46.342C100.299 46.6554 98.2587 46.9849 97.3145 47.0733C96.3623 47.1616 94.81 47.3947 93.8818 47.5875C92.9537 47.7804 92.0895 47.8447 91.9855 47.7402C91.8735 47.6277 94.57 46.8804 97.9706 46.0688C101.371 45.2572 104.236 44.5099 104.348 44.4054C104.452 44.309 104.676 44.2527 104.812 44.2929C104.956 44.3331 105.932 44.6384 106.98 44.984L106.972 44.9599ZM75.6783 45.9483C75.4223 47.7081 74.2541 52.642 73.2379 56.2661C72.5097 58.8456 72.1657 59.7295 71.7176 60.1393C71.3895 60.4286 71.0535 60.6616 70.9494 60.6616C70.8454 60.6616 71.4615 58.4438 72.3177 55.7197C73.1739 52.9956 74.2701 49.4518 74.7582 47.8125C75.2463 46.1813 75.6863 44.8474 75.7424 44.8474C75.7984 44.8474 75.7664 45.3375 75.6783 45.9402V45.9483ZM72.6858 45.7152C72.6138 45.9483 71.8296 48.7366 70.9494 51.9429C68.485 60.8947 68.0689 62.092 67.2287 62.5661C66.8366 62.7911 66.5326 62.9116 66.5326 62.8393C66.5326 62.7349 69.3331 52.5858 70.6134 48.0536C71.0695 46.4304 71.3895 45.7313 71.7336 45.5625C72.4777 45.2009 72.8298 45.2572 72.6778 45.7072L72.6858 45.7152ZM70.1413 46.784C69.4932 49.2911 67.5648 55.9849 67.5008 55.9206C67.3327 55.7518 69.8372 46.2536 70.0453 46.2536C70.1733 46.2536 70.2133 46.4866 70.1413 46.792V46.784ZM87.1285 46.4625C86.9365 46.575 86.1924 46.792 85.4482 46.9527C84.7041 47.1134 83.9919 47.3947 83.8239 47.5956C83.5759 47.8929 83.6079 47.925 83.9999 47.8045C86.5684 47.017 88.5688 46.6634 89.0969 46.9045C89.417 47.0572 89.673 47.2581 89.673 47.3625C89.673 47.467 88.0087 47.9813 85.9443 48.5116L82.2156 49.4759L82.3676 48.8491C82.6077 47.8608 83.4878 47.1616 85.0641 46.7036C86.6805 46.2295 87.7207 46.109 87.1205 46.4625H87.1285ZM67.4528 53.6143C66.4606 57.5438 65.2283 62.1241 64.7162 63.7634C63.9001 66.3911 63.668 66.8733 62.7959 67.7733C62.2518 68.3358 61.7637 68.7536 61.7237 68.7054C61.6837 68.6572 61.9877 67.4116 62.3958 65.9733C62.8119 64.5188 64.0921 59.625 65.2443 55.0929C67.2287 47.2822 67.3727 46.8402 67.9169 46.6875C69.3651 46.2777 69.3811 45.9884 67.4528 53.6143ZM64.7642 53.7429C63.8201 57.4875 62.5078 62.542 61.8517 64.9929C60.6675 69.3643 60.6355 69.4527 59.8833 69.8063C58.8831 70.2804 58.8191 70.2724 59.1072 69.742C59.9073 68.2313 61.8277 61.2563 63.5 53.7509C64.8443 47.7322 65.1243 47.025 66.2045 46.9608C66.3806 46.9527 65.8365 49.5081 64.7722 53.7429H64.7642ZM90.8253 48.2224C91.1693 48.6402 91.4334 48.5518 86.5444 49.6929C84.368 50.1991 82.3276 50.6893 81.9836 50.7777C81.4555 50.9143 81.3754 50.8741 81.4715 50.4965C81.5675 50.1429 82.3996 49.8456 85.8003 48.9858C90.7052 47.7402 90.4572 47.7804 90.8173 48.2143L90.8253 48.2224ZM99.739 48.4393C100.595 48.7125 100.619 48.7447 100.083 48.8813C98.5547 49.275 81.2874 52.0875 81.1674 51.967C80.8393 51.6375 81.7275 51.3563 86.6565 50.2233C96.3063 48.0134 97.7866 47.8125 99.731 48.4393H99.739ZM61.9957 57.3349C61.5316 59.3438 60.5874 62.984 59.8993 65.3786C59.2112 67.7733 58.6511 69.8947 58.6511 70.0715C58.6511 70.3768 57.7869 70.7866 57.5869 70.5858C57.5389 70.5375 57.9629 68.8179 58.5391 66.7929C59.1152 64.7518 59.9633 61.3768 60.4274 59.2634C61.0755 56.3143 61.4356 55.1652 61.9797 54.2974C62.3718 53.6706 62.7239 53.2768 62.7639 53.4134C62.8119 53.55 62.4678 55.3099 62.0037 57.3268L61.9957 57.3349ZM105.292 55.1009C106.428 55.3822 107.724 56.4188 107.724 57.0375C107.724 57.2706 107.364 57.584 106.86 57.7929C106.02 58.1384 105.908 58.1304 103.716 57.4072C102.467 56.9974 101.475 56.6277 101.531 56.5795C101.579 56.5313 102.435 56.7081 103.428 56.9652C105.14 57.4072 105.772 57.4072 105.276 56.9652C105.164 56.8608 104.396 56.6116 103.564 56.4027C102.732 56.1938 101.491 55.8322 100.787 55.5911L99.5149 55.1491L100.555 54.892C101.707 54.6108 103.7 54.6911 105.3 55.0929L105.292 55.1009ZM97.9306 55.7197C98.0106 55.9527 98.2187 56.2983 98.4187 56.5313C98.6187 56.7643 98.7068 56.9411 98.6268 56.9411C98.5467 56.9411 96.2663 57.2224 93.5538 57.5679C90.8493 57.9134 87.5286 58.2027 86.1924 58.2108C84.176 58.2188 83.7519 58.2831 83.6959 58.5804C83.6399 58.8616 82.5997 59.1027 78.847 59.6733C76.2064 60.075 74.038 60.3804 73.998 60.3483C73.958 60.3161 74.2541 60.0509 74.6701 59.7456C75.3023 59.2795 76.8546 58.95 85.3762 57.4875C90.8653 56.5474 95.8102 55.6875 96.3783 55.567C96.9544 55.4545 97.5065 55.35 97.6026 55.334C97.7066 55.3179 97.8506 55.4866 97.9226 55.7197H97.9306ZM67.3807 56.7563C67.3087 56.9491 67.2527 56.8929 67.2447 56.6197C67.2287 56.3866 67.2847 56.242 67.3647 56.3143C67.4368 56.3866 67.4528 56.5956 67.3888 56.7563H67.3807ZM59.1072 61.2643C58.059 65.7724 56.6747 70.634 56.3306 70.9795C55.9946 71.325 56.0506 70.8429 56.5547 68.842C56.8027 67.8536 57.4348 64.9688 57.9549 62.4134C58.6991 58.7893 59.0191 57.6563 59.4112 57.2304C59.6913 56.925 59.9473 56.7804 59.9873 56.909C60.0273 57.0295 59.6273 58.9902 59.0992 61.2643H59.1072ZM67.1487 57.6884C67.0767 57.8813 67.0287 57.825 67.0127 57.5518C66.9967 57.3188 67.0527 57.1741 67.1247 57.2465C67.1967 57.3188 67.2127 57.5277 67.1487 57.6884ZM57.2828 63.2893C55.7305 70.5858 55.4265 71.5661 54.6743 71.5822C54.5943 71.5822 54.8343 70.409 55.2024 68.9706C55.5705 67.5322 56.2506 64.6795 56.7147 62.6384C57.4988 59.175 57.9389 57.9215 58.147 58.5483C58.195 58.6849 57.8029 60.8304 57.2828 63.2893ZM66.6846 59.3116C66.6126 59.5045 66.5646 59.4483 66.5486 59.175C66.5406 58.942 66.5886 58.7974 66.6606 58.8697C66.7326 58.942 66.7486 59.1509 66.6846 59.3116ZM90.9453 59.625C91.4494 59.842 85.8563 60.75 75.3183 62.1643C71.9656 62.6143 69.1011 63.0965 68.9651 63.2411C68.789 63.4259 69.1411 63.4581 70.2293 63.3456C72.2937 63.1366 80.4073 62.084 81.0394 61.9393C81.4875 61.8429 81.5675 61.9313 81.5675 62.5099C81.5675 62.9518 81.4154 63.2411 81.1514 63.3215C80.8233 63.4179 76.2224 64.0688 69.3891 64.9768C68.461 65.0974 68.437 65.0813 68.2929 64.3581C68.2049 63.9402 68.2369 63.5063 68.3489 63.3616C68.461 63.225 69.5892 62.6063 70.8374 62.0036C73.0218 60.9429 73.3259 60.8625 78.2068 60.0991C82.6957 59.392 83.7199 59.3036 86.8885 59.3679C88.8569 59.4081 90.6812 59.5286 90.9373 59.6331L90.9453 59.625ZM56.6747 59.8902C53.8341 72.3054 54.0102 71.7349 52.85 72.0483C52.3139 72.1929 51.8498 72.2572 51.7858 72.1849C51.4657 71.8634 52.3619 70.2 53.3861 69.2358C54.5863 68.1027 54.7063 67.6929 54.1302 66.7206C53.7701 66.1259 53.7941 65.9652 54.6023 63.3134C55.1944 61.3608 55.6185 60.3804 56.0266 60.0108C56.7227 59.384 56.7947 59.3679 56.6827 59.8822L56.6747 59.8902ZM65.9405 62.084C65.6044 63.2733 65.2203 64.4143 65.0923 64.6072C64.8923 64.9125 64.8763 64.9125 64.9643 64.6072C65.0203 64.4143 65.3564 63.2491 65.7164 61.9956C66.0765 60.742 66.4046 59.7697 66.4606 59.8179C66.5086 59.8661 66.2765 60.9027 65.9405 62.084ZM93.2737 60.6536C93.8018 61.2402 94.0579 61.1679 88.1767 62.1563C82.2716 63.1527 82.3196 63.1527 82.3596 62.3974C82.3756 62.0759 82.3916 61.8027 82.3916 61.7947C82.3916 61.7545 91.9295 60.2438 92.3696 60.2197C92.6496 60.2036 93.0337 60.3884 93.2737 60.6536ZM54.1542 63.434C53.4661 65.4991 53.21 66.0054 52.858 66.0054C52.2818 66.0054 52.3059 65.7965 53.13 63.3054C53.6501 61.7465 53.9702 61.1277 54.3382 60.9429C54.6183 60.8063 54.8824 60.734 54.9304 60.7822C54.9784 60.8304 54.6263 62.0116 54.1542 63.434ZM52.5059 62.7911C51.8978 64.8563 51.6577 65.3143 51.2897 65.0893C50.9936 64.9045 51.0016 64.6956 51.3697 63.4822C51.7457 62.2527 52.0498 61.859 52.818 61.5938C52.842 61.5858 52.7059 62.1161 52.5139 62.7831L52.5059 62.7911ZM94.0819 61.7786C94.0819 61.8911 94.498 62.4536 95.0341 63.0563L95.9862 64.1411H94.978C94.4259 64.1572 91.5374 64.35 88.5768 64.567C83.6239 64.9447 83.1598 64.9447 82.8477 64.5991C82.0156 63.675 82.2796 63.5706 88.1127 62.5822C91.2173 62.0518 93.8178 61.6179 93.9138 61.6018C94.0179 61.5858 94.0899 61.6581 94.0899 61.7786H94.0819ZM107.228 63.1125C106.188 64.575 106.036 64.575 106.892 63.1125C107.3 62.4134 107.7 61.9072 107.797 61.9634C107.893 62.0197 107.636 62.534 107.228 63.1125ZM50.8816 63.4822C50.6815 64.1572 50.4255 64.8965 50.3135 65.1134C50.0894 65.5313 49.6413 65.684 49.6413 65.3465C49.6413 65.009 50.4095 62.8554 50.6415 62.5581C51.1216 61.9393 51.2256 62.325 50.8896 63.4902L50.8816 63.4822ZM49.1853 64.4384C48.8412 65.4831 48.5531 65.9893 48.2331 66.0616C47.977 66.1259 47.785 66.1581 47.785 66.134C47.785 65.8286 49.0492 63.0563 49.2413 62.9277C49.6974 62.6384 49.6894 62.9036 49.1853 64.4384ZM48.1291 63.6108C48.041 63.8358 47.761 64.567 47.5129 65.234C47.2649 65.909 46.8568 66.5679 46.6088 66.6965C46.1767 66.9295 46.1767 66.8974 46.6408 65.7081C46.9048 65.0331 47.2329 64.1893 47.3609 63.8358C47.4889 63.4902 47.753 63.1929 47.937 63.1929C48.1771 63.1929 48.2331 63.3215 48.1211 63.6027L48.1291 63.6108ZM46.1207 65.4349C45.3205 67.4358 45.2725 67.5161 45.1365 67.3634C45.0885 67.3152 45.3285 66.592 45.6806 65.7563C46.0246 64.9206 46.3767 64.0447 46.4647 63.8036C46.5527 63.5706 46.6808 63.4179 46.7448 63.4741C46.8088 63.5384 46.5287 64.4304 46.1287 65.4268L46.1207 65.4349ZM43.6242 64.2375C43.5042 64.5509 43.1201 65.3625 42.784 66.0375C42.44 66.7206 41.0957 69.6616 39.7835 72.6188C38.1671 76.267 37.279 77.9867 37.0069 78.0429C36.6869 78.1072 36.6308 78.0108 36.7509 77.5447C36.9829 76.6366 39.7674 70.0152 40.8156 67.8777C41.5998 66.2706 41.6718 66.0295 41.2557 66.2545C40.7276 66.5358 39.2634 69.5572 37.255 74.5313C36.5108 76.3715 35.8147 77.8581 35.6867 77.8581C35.5586 77.8581 35.5266 77.7215 35.5986 77.5527C36.2468 76.042 39.6794 67.3554 39.6794 67.2349C39.6794 67.1384 39.5674 67.1866 39.3994 67.3474C38.7513 67.9983 38.7112 67.5804 39.3594 66.8813C39.7434 66.4634 40.4076 65.6358 40.7996 65.0813C41.1917 64.5188 41.5358 64.2054 41.5438 64.3822C41.5438 64.575 41.6638 64.5027 41.8078 64.1974C42.0079 63.7875 42.2559 63.675 42.9521 63.675C43.8082 63.675 43.8322 63.6991 43.6242 64.2456V64.2375ZM44.8484 65.5875C44.4003 66.6322 43.9683 67.6608 43.8962 67.8536C43.8242 68.0465 43.4001 68.5849 42.9601 69.0509C42.2719 69.7741 42.1679 70.0152 42.2639 70.6822C42.3519 71.2768 42.1279 72.0161 41.3117 73.784C40.7276 75.0616 40.1595 76.1465 40.0475 76.1866C39.9435 76.2268 39.6554 76.7331 39.4234 77.2875C39.1673 77.8902 38.8473 78.3081 38.6232 78.3081C38.1911 78.3081 38.2872 77.8179 38.9833 76.4277C39.2233 75.9536 40.0475 74.1295 40.8316 72.3617C43.7362 65.7804 44.8084 63.667 45.2485 63.667C45.6166 63.667 45.5686 63.884 44.8484 65.5875ZM81.9035 65.017C81.9035 65.017 79.359 65.3384 76.3265 65.6438C73.2939 65.9491 70.2613 66.2625 69.5892 66.3268C68.501 66.4393 68.3729 66.4072 68.3729 65.9974C68.3729 65.6358 68.573 65.5152 69.3571 65.4188C69.9012 65.3465 72.8378 64.9527 75.8944 64.5349L81.4475 63.7795L81.7035 64.3581C81.8475 64.6875 81.9355 64.9688 81.9035 65.009V65.017ZM96.8344 64.8804C97.2505 65.1375 97.2025 65.2179 96.1143 65.9491C95.4661 66.3831 95.0021 66.7929 95.0741 66.8572C95.1461 66.9215 95.6662 66.6483 96.2423 66.2465C97.2825 65.5152 98.0026 65.3224 98.0026 65.7643C98.0026 65.8929 97.5866 66.2706 97.0745 66.6161C96.5624 66.9536 96.1463 67.3233 96.1463 67.4438C96.1463 67.6929 96.3063 67.6125 97.6986 66.6643C99.5709 65.3866 99.723 65.9974 97.8826 67.4358C96.4903 68.5206 96.0823 69.2438 97.4185 68.2313C97.8586 67.9018 98.6027 67.3474 99.0428 67.0179C100.443 65.9652 100.411 66.5358 98.9948 67.7733C97.4185 69.1474 96.2983 69.5491 94.802 69.2679C93.4098 69.0027 93.3777 68.85 94.618 68.5447C95.1941 68.4 95.7462 68.175 95.8262 68.0465C96.1543 67.5322 95.4741 67.4518 94.0339 67.8536C93.1297 68.1027 92.3695 68.1991 92.1855 68.0786C91.7854 67.8375 92.1615 67.6768 93.3617 67.5804C94.818 67.4599 94.1059 67.0581 92.5776 67.1384C91.3053 67.2027 91.0653 67.1545 90.8573 66.7527C90.6252 66.3188 90.7052 66.2786 92.0975 66.134C93.4898 65.9893 94.0979 65.7322 93.6738 65.475C93.5698 65.4108 91.6734 65.6197 89.449 65.9331C85.5842 66.4795 85.3682 66.4875 84.528 66.1099C84.0399 65.8929 83.7119 65.6518 83.7839 65.5795C83.8959 65.467 93.1137 64.7358 95.4981 64.6554C95.9862 64.6393 96.5784 64.7518 96.8264 64.9045L96.8344 64.8804ZM66.7566 65.0652C66.7566 65.2018 66.6526 65.2983 66.5166 65.2983C66.3806 65.2983 66.3325 65.2018 66.4126 65.0652C66.4926 64.9286 66.5966 64.8322 66.6526 64.8322C66.7086 64.8322 66.7566 64.9286 66.7566 65.0652ZM7.20119 68.3679C7.51325 68.7215 7.50525 68.8902 7.12918 69.9349C6.89713 70.5858 6.64108 71.1081 6.55307 71.1081C6.13699 71.1081 6.14499 70.5938 6.59307 69.5733C6.85713 68.9706 7.00915 68.4241 6.93714 68.3518C6.86513 68.2795 6.64108 68.6652 6.42504 69.2036C5.94495 70.4411 5.55287 70.2483 5.99296 68.9947C6.44905 67.6929 6.38503 67.3152 5.88894 68.4322C5.38484 69.5733 5.06478 69.1554 5.41685 67.8295C5.64889 66.9697 5.56888 66.1902 5.32883 66.9456C5.27282 67.1224 5.1688 67.4358 5.11279 67.6206C5.04878 67.8134 4.98477 67.5241 4.97676 66.9938C4.93676 65.2259 5.1688 65.1456 6.04897 66.6242C6.48905 67.3715 7.00915 68.1509 7.20119 68.3679ZM82.9757 66.0938L83.6399 66.6483L82.8957 66.7849C82.0556 66.9375 73.846 67.9902 71.0455 68.3036C70.0293 68.4161 69.1171 68.4402 69.0291 68.3599C68.941 68.2795 68.797 67.9179 68.717 67.5724C68.589 67.0099 68.637 66.9295 69.1251 66.9134C69.5732 66.8974 81.4635 65.6679 82.1116 65.5715C82.2316 65.5554 82.6077 65.7884 82.9757 66.1018V66.0938ZM66.7646 66.2304C66.7646 66.5679 66.6046 66.6965 66.1885 66.6965C65.5644 66.6965 65.4604 66.4715 65.8845 66.0456C66.3085 65.6197 66.7646 65.7161 66.7646 66.2304ZM50.9856 67.3233C50.9456 67.5241 50.6575 67.8616 50.3535 68.0545C49.8174 68.4 49.8014 68.392 49.9774 67.8295C50.2415 66.9938 51.1376 66.5358 50.9776 67.3152L50.9856 67.3233ZM90.0331 67.1625C90.1131 67.2911 89.8971 67.3875 89.521 67.3795C88.9449 67.3715 88.9209 67.3474 89.337 67.1625C89.593 67.05 89.8171 66.9456 89.8491 66.9375C89.8731 66.9375 89.9531 67.0179 90.0331 67.1625ZM67.0927 67.8938C67.1647 68.2875 67.2047 68.6491 67.1727 68.6733C67.1407 68.6974 66.2845 68.7938 65.2603 68.8822L63.412 69.0429L64.3242 68.1027C65.0683 67.3393 65.3964 67.1625 66.0925 67.1625C66.8606 67.1625 66.9647 67.2429 67.0847 67.8938H67.0927ZM86.1924 67.5322C86.2484 67.5884 86.2404 67.6527 86.1924 67.7009C85.9123 67.9259 69.8932 69.4527 69.7092 69.2759C69.4451 69.0108 69.2211 69.0509 77.4147 67.9983C82.9677 67.2911 85.8163 67.1384 86.1924 67.5322ZM49.5453 67.7652C49.4653 67.9741 49.4093 68.2233 49.4093 68.3358C49.4093 68.4483 49.1853 68.6491 48.9132 68.8018C48.4491 69.0509 48.4251 69.0268 48.5771 68.4161C48.7372 67.7893 49.0732 67.4116 49.4733 67.3956C49.5933 67.3956 49.6173 67.5563 49.5453 67.7652ZM36.6468 72.8358C34.9025 77.2956 34.5104 78.0991 34.1904 77.7616C34.1264 77.6974 34.7745 75.9938 35.6227 73.9688C37.8071 68.7858 38.2712 67.7652 38.4072 67.9018C38.4712 67.9661 37.679 70.1759 36.6468 72.8277V72.8358ZM90.8173 68.1831C91.1853 68.6491 90.9293 68.7134 85.4642 69.4929C79.9112 70.2884 79.6391 70.3045 79.263 69.8384C78.855 69.3322 77.8067 69.4045 75.9744 70.0715C75.0942 70.3929 73.99 70.642 73.5179 70.634C72.5257 70.6099 70.5494 70.0233 71.2695 69.959C71.6056 69.9268 88.0487 68.1429 90.2971 67.8938C90.4412 67.8777 90.6652 68.0063 90.8092 68.1911L90.8173 68.1831ZM47.889 68.6009C47.713 69.1554 47.3769 69.4608 46.9288 69.4688C46.5207 69.4688 46.5608 68.8822 47.0008 68.4483C47.5689 67.8858 48.089 67.9741 47.897 68.6009H47.889ZM45.6326 69.6456C45.4245 69.8545 45.1765 69.975 45.1125 69.9027C45.0405 69.8304 45.1605 69.5893 45.3685 69.3804C45.5766 69.1715 45.8166 69.0509 45.8886 69.1233C45.9606 69.1956 45.8406 69.4366 45.6326 69.6456ZM123.207 70.5295C123.808 72.3697 123.88 74.7241 123.351 75.4795C123.151 75.7688 122.671 76.0742 122.255 76.1786C121.767 76.2992 121.487 76.5322 121.447 76.8536C121.391 77.2474 120.383 77.7777 116.358 79.5536C113.606 80.767 109.581 82.4706 107.444 83.3304C105.06 84.2947 103.636 84.9777 103.764 85.1063C104.044 85.3875 110.589 82.9286 116.542 80.309C119.015 79.2161 121.135 78.3161 121.239 78.3161C121.535 78.3161 121.431 79.1759 121.047 79.9875C120.735 80.6384 120.383 80.8715 118.671 81.5465C117.566 81.9804 114.99 83.0411 112.949 83.8929L109.245 85.4518L100.763 85.9983L92.2815 86.5447L90.9373 85.934C89.329 85.2027 89.337 85.1947 93.7378 84.8411C96.9064 84.584 97.4985 84.6081 98.5547 85.034C99.4589 85.3956 99.4989 85.3875 100.339 84.6884C100.875 84.2384 101.219 84.1179 101.683 84.2063C102.259 84.3188 104.02 83.9652 104.268 83.684C104.332 83.6036 105.732 82.9366 107.396 82.1733C110.125 80.9277 119.527 76.2911 119.759 76.0741C119.815 76.0259 119.807 75.9375 119.735 75.8733C119.671 75.809 117.07 77.0063 113.974 78.525C105.62 82.6152 103.156 83.6679 101.939 83.6679C100.963 83.6679 100.907 83.6277 100.643 82.8C100.483 82.3099 100.387 81.9322 100.411 81.9322C100.435 81.9322 102.596 80.8554 105.212 79.5375C109.725 77.2634 110.037 77.1429 111.221 77.2152L112.469 77.2875L109.589 78.7983C108.013 79.6259 105.916 80.6786 104.972 81.1206C102.932 82.0688 103.02 82.0206 103.188 82.1893C103.348 82.35 109.301 79.5134 111.477 78.2277C112.285 77.7536 113.606 77.175 114.398 76.95C117.454 76.0902 119.567 74.2822 121.407 70.9393C121.983 69.8947 122.519 69.0349 122.591 69.0349C122.663 69.0349 122.951 69.7099 123.223 70.5456L123.207 70.5295ZM8.43343 69.6134C8.43343 69.6616 8.16938 70.2965 7.84131 71.0438C7.43324 71.9759 7.19319 72.2974 7.06517 72.0884C6.79311 71.6465 7.7453 69.2679 8.12937 69.4125C8.2894 69.4768 8.43343 69.5652 8.43343 69.6134ZM35.1666 73.2536C33.2622 77.9063 33.0862 78.2518 32.486 78.5652C32.038 78.7983 32.03 78.7822 32.358 78.0429C32.5421 77.625 33.3902 75.6483 34.2384 73.6715C35.6627 70.3447 36.3588 69.0831 36.6068 69.3483C36.6709 69.4125 36.0227 71.1643 35.1666 73.2536ZM67.6848 69.4688C67.6848 69.7018 66.5966 69.8786 63.8681 70.0956C62.2918 70.2161 62.0597 70.192 62.3238 69.9108C62.7399 69.4688 67.6928 69.059 67.6928 69.4688H67.6848ZM92.6576 69.5893C93.2897 69.9349 93.4017 69.9108 84.9281 71.3411C81.0874 71.984 80.9834 71.992 80.5513 71.5822C79.9752 71.0277 79.7831 71.0759 85.2722 70.3366C87.7527 69.9991 90.0971 69.6295 90.4812 69.517C91.4734 69.2197 92.0095 69.2358 92.6576 69.5893ZM9.36161 70.4331C9.79369 70.6661 9.79369 70.7224 9.11356 72.0724C8.39342 73.5108 8.12137 73.7277 7.85732 73.0447C7.72129 72.6991 8.54545 70.184 8.7935 70.184C8.85751 70.184 9.10556 70.2884 9.36161 70.425V70.4331ZM34.5024 70.7224C33.2382 73.7197 31.7419 77.4081 31.4859 78.1634C31.2138 78.975 31.0138 79.192 30.2856 79.4331C29.7975 79.5938 29.3735 79.6822 29.3254 79.634C29.1494 79.4572 32.7981 70.8911 33.0542 70.8911C33.1182 70.8911 32.9021 71.4938 32.5741 72.2411C31.6299 74.3786 30.1896 78.1715 30.1896 78.517C30.1896 79.409 30.8297 78.3563 31.9179 75.6563C33.7183 71.1965 34.0864 70.425 34.3824 70.425C34.5184 70.425 34.5825 70.5616 34.5104 70.7304L34.5024 70.7224ZM51.6977 70.6983C51.6577 71.4215 51.0736 72.5224 50.4895 72.9884C49.7614 73.559 49.7134 73.3741 50.2335 72C50.6015 71.0438 51.1136 70.417 51.5297 70.417C51.6417 70.417 51.7057 70.5295 51.6977 70.6983ZM67.9169 70.875C67.9169 71.1322 67.8368 71.3813 67.7328 71.4456C67.6288 71.5099 65.7324 71.7268 63.532 71.9358C60.2194 72.2411 59.4832 72.2572 59.3312 72.0081C58.8751 71.2688 62.1317 70.5858 66.7166 70.4572C67.7568 70.425 67.9169 70.4893 67.9169 70.875ZM10.7299 71.4295C10.7299 71.5741 10.3778 72.3616 9.96972 73.1733C9.29759 74.4991 9.18557 74.6116 8.88952 74.25C8.60946 73.9045 8.66547 73.6715 9.3536 72.3938C9.8497 71.4616 10.2498 70.9715 10.4418 71.0438C10.6018 71.1081 10.7379 71.2849 10.7299 71.4295ZM31.9579 71.4054C31.8859 71.5661 31.3578 72.7634 30.7817 74.0893C30.1976 75.4152 29.4775 77.2313 29.1574 78.1554C28.8453 79.0875 28.4773 79.867 28.3333 79.9072C27.9172 80.0438 28.0532 79.5938 29.6375 75.592C31.2218 71.5902 31.4619 71.1081 31.8539 71.1081C31.982 71.1081 32.03 71.2366 31.9579 71.3974V71.4054ZM49.6333 71.3009C49.6333 71.3893 49.3053 72.4661 48.9052 73.6715C48.4171 75.1581 47.961 76.0741 47.5289 76.484C46.9128 77.0625 45.3525 77.6733 43.7122 77.9947L42.9761 78.1393L44.2163 75.1661C45.1445 72.9322 45.5846 72.1447 45.9606 71.992C46.2407 71.8875 46.5447 71.8233 46.6328 71.8554C46.7688 71.9116 45.6806 75.142 44.9044 76.9983C44.6484 77.609 45.1765 77.5125 45.5126 76.8858C45.6726 76.5884 46.1847 75.3027 46.6568 74.025C47.1929 72.5625 47.649 71.6706 47.881 71.6304C48.1771 71.5741 48.081 72.0483 47.3609 74.1375C46.8728 75.5518 46.5848 76.6768 46.7208 76.6367C46.8568 76.5965 47.3849 75.4072 47.889 74.009C48.3931 72.6108 48.9052 71.3893 49.0332 71.3009C49.3613 71.0759 49.6333 71.0759 49.6333 71.3009ZM27.5251 71.6304C27.7251 71.8313 23.8444 79.7224 23.5403 79.7224C23.3803 79.7224 23.2363 79.6099 23.2363 79.4813C23.2363 79.3527 24.0684 77.5045 25.0766 75.4152C26.0848 73.3259 26.821 71.5902 26.7089 71.5902C26.3569 71.5902 25.8448 72.5224 24.2285 76.05C23.3883 77.8902 22.6842 79.409 22.6522 79.4411C22.5641 79.5456 21.1559 78.9991 21.1559 78.8625C21.1559 78.7822 22.0921 77.175 23.2523 75.2706C24.4125 73.3661 25.2767 71.7027 25.1886 71.55C25.0686 71.3572 25.3647 71.317 26.2208 71.3974C26.869 71.4616 27.4691 71.5661 27.5251 71.6304ZM30.8457 71.5581C30.8057 71.6706 30.0376 73.6072 29.1494 75.8572C27.6931 79.5295 27.4691 79.9474 26.981 79.9474C26.6769 79.9474 26.4689 79.875 26.5169 79.7866C27.005 78.7741 27.5411 77.4884 28.5733 74.8366C29.2454 73.117 29.9096 71.6224 30.0456 71.5259C30.3896 71.2929 30.9337 71.317 30.8457 71.5581ZM78.7349 71.8152C78.983 72.217 78.911 72.2733 77.9108 72.4099C77.3027 72.4902 76.2865 72.6349 75.6223 72.7393C73.854 72.9965 73.934 72.5143 75.7584 71.9116C77.7267 71.2608 78.3829 71.2447 78.7349 71.8233V71.8152ZM11.8981 72.0563C11.8981 72.1608 11.522 72.9483 11.0659 73.792C10.3938 75.0215 10.1698 75.2706 9.90571 75.0617C9.63366 74.8367 9.72168 74.5233 10.4178 73.2054C10.9859 72.1125 11.354 71.6545 11.578 71.7429C11.7621 71.8152 11.9061 71.9518 11.9061 72.0724L11.8981 72.0563ZM22.8922 74.7724C21.82 76.5402 20.8678 78.0991 20.7638 78.2599C20.6358 78.4608 20.4757 78.4849 20.2437 78.3402C19.9636 78.1715 20.0437 77.8742 20.6758 76.6688C22.6282 72.9483 23.1963 72.1286 23.9804 71.8715C24.3965 71.7349 24.7646 71.6143 24.7886 71.5983C24.8126 71.5822 23.9644 73.0045 22.8922 74.7724ZM29.1574 71.984C29.0774 72.209 28.3092 74.0974 27.4531 76.1706C25.9088 79.9393 25.9008 79.9474 25.1486 79.9474H24.3965L24.8446 79.2081C25.1006 78.7902 25.2527 78.3965 25.2046 78.3161C25.1566 78.2358 25.8288 76.6849 26.7089 74.8768C28.0292 72.1608 28.3893 71.5902 28.8053 71.5902C29.1734 71.5902 29.2614 71.6947 29.1494 72L29.1574 71.984ZM42.1439 75.2304C41.3758 77.0465 40.7356 78.2358 40.5116 78.2759C40.3036 78.3161 40.1435 78.3081 40.1435 78.2518C40.1435 77.8822 43.2321 71.7509 43.3121 71.9759C43.3681 72.1286 42.84 73.6072 42.1439 75.2304ZM44.6964 72.3456C42.528 77.8581 42.0719 78.7259 41.6238 78.2759C41.3998 78.0509 44.1683 72.0483 44.4884 72.0483C44.6724 72.0483 44.7604 72.1768 44.6964 72.3536V72.3456ZM72.2457 72.1849C72.5497 72.2652 72.7818 72.4983 72.7818 72.7313C72.7818 73.0447 72.5017 73.1733 71.5576 73.2858C69.3571 73.5509 69.0771 73.5027 69.0771 72.8599C69.0771 72.4661 69.2291 72.2733 69.5892 72.209C70.4213 72.0483 71.6936 72.0402 72.2537 72.1849H72.2457ZM13.0583 72.3938C13.0583 72.4581 12.6982 73.2295 12.2502 74.1375C11.37 75.9054 11.338 75.9938 11.6741 75.9938C11.8021 75.9938 12.2662 75.2706 12.7143 74.3625C13.4504 72.8759 13.8825 72.4661 14.2906 72.8759C14.3786 72.9643 14.0185 73.8322 13.4904 74.7804C12.9383 75.7768 12.6662 76.4759 12.8503 76.4036C13.0263 76.3393 13.5864 75.5599 14.0905 74.6518C14.6186 73.6956 15.1227 73.0608 15.2827 73.117C15.6108 73.2456 13.8025 76.9099 13.4104 76.9179C12.9223 76.9179 10.7459 75.7768 10.7459 75.5197C10.7459 74.9893 12.4102 72.2652 12.7383 72.2652C12.9223 72.2652 13.0663 72.3134 13.0663 72.3777L13.0583 72.3938ZM22.1401 73.2616C21.892 73.6795 21.2439 74.8527 20.6918 75.8733C20.1477 76.8938 19.6756 77.7616 19.6516 77.7938C19.6276 77.8259 19.4355 77.7938 19.2195 77.7134C18.8914 77.5929 19.0115 77.2474 20.0197 75.3429C21.2279 73.0688 21.668 72.5063 22.2601 72.5063C22.5081 72.5063 22.4761 72.6831 22.1321 73.2616H22.1401ZM67.6848 73.0849C67.6848 73.7438 67.5888 73.7679 63.66 74.1295C60.3954 74.4268 60.5794 74.4509 60.1954 73.7117L59.8673 73.0849L62.5638 72.8277C64.0441 72.6911 65.8044 72.5545 66.4766 72.5384C67.6128 72.5063 67.6928 72.5384 67.6928 73.0849H67.6848ZM19.4195 75.1742C18.8274 76.267 18.2833 77.1188 18.2193 77.0545C18.1553 76.9902 18.5954 76.034 19.1875 74.9411C19.7796 73.8483 20.3237 72.9965 20.3877 73.0608C20.4517 73.125 20.0117 74.0813 19.4195 75.1742ZM80.1832 73.5429L80.7113 74.1054L80.1592 74.2259C79.3911 74.3947 74.9902 75.0617 74.6461 75.0617C74.4781 75.0617 74.3981 74.7724 74.4381 74.3063C74.4861 73.8027 75.0889 73.4652 76.2465 73.2938C79.071 72.8679 79.5751 72.9081 80.1912 73.5509L80.1832 73.5429ZM16.387 74.7643C15.9149 75.6241 15.4268 76.4679 15.2987 76.6367C15.0667 76.942 14.2105 77.0304 14.2105 76.7572C14.2105 76.6768 14.6346 75.8411 15.1467 74.909C15.9229 73.4947 16.1789 73.1974 16.659 73.1974H17.2351L16.379 74.7643H16.387ZM17.8912 74.0813C16.555 76.2911 16.2829 76.6849 16.0669 76.6849C15.7308 76.6849 15.7468 76.6366 16.779 74.8447C17.2991 73.9366 17.8912 73.1974 18.0753 73.1974C18.3473 73.1974 18.3073 73.3822 17.8912 74.0813ZM19.2755 73.3822C18.4514 75.4072 16.9871 77.3679 16.9871 76.4518C16.9871 76.0581 18.8594 73.1974 19.1155 73.1974C19.2515 73.1974 19.3155 73.2697 19.2675 73.3822H19.2755ZM73.0058 74.475C73.0058 75.1741 72.5657 75.4072 70.8774 75.6C69.5812 75.7447 69.5252 75.7286 69.3091 75.15C68.9571 74.234 69.0051 74.1697 70.0693 74.0733C72.7738 73.8241 73.0058 73.8563 73.0058 74.475ZM67.7488 75.1179C67.8128 75.5358 67.8368 75.9054 67.8048 75.9456C67.7088 76.05 63.284 76.6688 62.5718 76.6849C62.1237 76.6849 61.8117 76.484 61.4756 75.9456C61.2116 75.5277 61.0355 75.1581 61.0835 75.1099C61.1475 75.0375 65.4684 74.5393 67.2687 74.3947C67.5168 74.3706 67.6768 74.6117 67.7568 75.1179H67.7488ZM82.1436 75.2224L83.0718 75.8491L78.5909 76.5161C76.1344 76.8777 74.07 77.1349 74.022 77.0866C73.966 77.0304 74.038 76.6929 74.1741 76.2991C74.4141 75.6081 74.4381 75.6 77.4707 75.134C79.159 74.8768 80.6793 74.6518 80.8713 74.6358C81.0634 74.6197 81.6315 74.8849 82.1436 75.2304V75.2224ZM72.5417 76.2188C72.5417 76.5724 71.6856 77.384 71.3175 77.384C71.1335 77.384 70.7014 77.1509 70.3333 76.8616L69.6772 76.3393L70.3733 76.1866C71.4615 75.9456 72.5497 75.9697 72.5497 76.2188H72.5417ZM68.493 77.0545C68.701 77.384 68.829 77.7134 68.773 77.7777C68.709 77.842 67.5808 78.0349 66.2605 78.2116C64.0361 78.5009 63.8281 78.4929 63.3 78.1152C63.0039 77.8983 62.6919 77.5929 62.6518 77.4643C62.6038 77.3197 63.636 77.0706 65.1883 76.8616C66.6206 76.6608 67.8688 76.492 67.9569 76.4759C68.0369 76.4599 68.2929 76.7331 68.501 77.0545H68.493ZM85.0881 76.725C85.5762 76.8697 85.9683 77.0625 85.9683 77.1509C85.9683 77.4161 74.6942 79.4331 71.0375 79.8188C70.2773 79.8991 69.0051 80.0759 68.2129 80.2125C66.8446 80.4456 66.7166 80.4215 65.6044 79.8188C64.9563 79.4652 64.4682 79.1438 64.5082 79.0956C64.5482 79.0474 65.6924 78.8706 67.0527 78.6858C69.0691 78.4206 69.6932 78.4206 70.3893 78.6616C71.3175 78.9831 72.3337 78.8143 72.9818 78.2358C73.2059 78.0349 75.1342 77.625 77.8628 77.2072C83.0478 76.4116 83.8479 76.3634 85.0881 76.7331V76.725ZM94.506 76.7652C94.458 76.8134 93.9939 76.9179 93.4898 77.0063C92.8176 77.1268 92.6576 77.1027 92.9137 76.934C93.2177 76.725 94.738 76.5643 94.514 76.7652H94.506ZM98.3467 77.4322C99.2189 77.6893 98.8588 77.7777 91.8654 78.9349C77.7267 81.2733 71.7496 82.0366 72.3737 81.4259C72.4377 81.3616 73.6219 81.1527 75.0142 80.9599C79.3671 80.3572 87.7687 78.8063 91.8654 77.8581C95.8262 76.942 96.5304 76.8938 98.3467 77.4322ZM107.957 77.7536C106.172 78.7822 101.379 81.1608 100.667 81.3697C100.155 81.5224 99.899 81.4741 99.5789 81.1849C98.9628 80.6143 99.0668 80.4777 100.203 80.3572C100.755 80.3009 101.379 80.092 101.571 79.8991C102.163 79.3045 104.972 77.8099 106.084 77.4965C106.66 77.3358 107.572 77.1911 108.077 77.175L109.005 77.1509L107.965 77.7536H107.957ZM89.0809 77.8259C89.2169 78.0429 87.3766 78.4206 80.6393 79.5697C74.046 80.6866 71.6296 80.984 71.3575 80.7108C71.2215 80.5741 72.8538 80.2286 75.9504 79.7384C78.5909 79.3206 82.1596 78.6777 83.8799 78.3241C87.1445 77.6491 88.8649 77.4884 89.0809 77.8259ZM103.468 78.2679C103.412 78.3563 102.7 78.7741 101.867 79.2C100.339 79.9795 99.3709 80.1081 96.3383 79.9313C95.5542 79.8831 95.0501 80.0036 94.4019 80.3813C93.7058 80.7911 92.2575 81.0724 87.1445 81.7875C83.6239 82.2777 79.7191 82.8 78.4389 82.9366C77.1666 83.0733 75.7984 83.25 75.3983 83.3224C74.8622 83.4188 74.5021 83.2983 74.046 82.9045L73.4219 82.3581L79.5191 81.4741C82.8797 80.984 88.8329 80.0438 92.7936 79.3688C99.2989 78.2599 103.748 77.8018 103.468 78.2599V78.2679ZM93.3697 81.892C93.3697 82.334 93.2097 82.4786 92.6096 82.5911C91.2493 82.8402 81.7275 84.0777 78.975 84.375C76.4545 84.6402 76.2224 84.6322 75.6223 84.2304L74.9742 83.7965L79.3751 83.2741C81.7915 82.9849 85.8083 82.4384 88.2888 82.0688C90.7692 81.6911 92.9297 81.3697 93.0897 81.3616C93.2497 81.3456 93.3777 81.5947 93.3777 81.9L93.3697 81.892ZM97.3065 81.5625C97.7306 81.8358 97.4905 81.9322 95.8742 82.1411C94.97 82.2536 94.762 82.2215 94.762 81.9402C94.762 81.3938 96.6104 81.1206 97.3065 81.5706V81.5625ZM119.519 81.9241C119.359 82.125 117.622 83.0733 115.678 84.0295C112.437 85.6206 112.021 85.7652 110.909 85.7009L109.693 85.6286L114.558 83.6036C117.246 82.4866 119.503 81.5786 119.615 81.5706C119.727 81.5706 119.687 81.7072 119.519 81.9161V81.9241ZM98.8588 82.5429C99.3069 83.1215 99.3789 83.6679 99.0188 83.8045C98.6027 83.9652 95.4581 83.009 95.4581 82.7277C95.4581 82.3099 98.5547 82.1411 98.8588 82.5429ZM94.506 83.6197L95.3861 84.2625L86.9045 85.0179C80.1032 85.6206 78.2868 85.725 77.7347 85.5081C77.1106 85.267 77.0946 85.2268 77.5187 85.0581C77.7747 84.9536 80.3192 84.592 83.1918 84.2465C86.0643 83.9009 89.2329 83.4911 90.2491 83.3304C93.1457 82.8724 93.5138 82.9045 94.506 83.6277V83.6197ZM116.75 84.0054C116.75 84.1661 114.67 85.1947 113.974 85.3875C113.654 85.4759 114.11 85.1866 115.014 84.7366C116.886 83.8045 116.75 83.8608 116.75 84.0134V84.0054ZM85.7363 85.8697C84.344 86.1991 82.4236 86.3438 80.9914 86.2233C80.0312 86.1429 84.28 85.6045 86.0803 85.5804C86.9765 85.5724 86.9605 85.5804 85.7363 85.8697ZM104.14 86.6813C104.06 86.8099 103.516 87.2036 102.916 87.5491C101.883 88.1518 101.691 88.192 99.0508 88.1759C96.8744 88.1759 95.9702 88.0554 94.882 87.6777L93.4898 87.1875L94.53 87.1474C95.4341 87.1152 103.132 86.5608 103.972 86.4724C104.132 86.4563 104.212 86.5447 104.132 86.6733L104.14 86.6813Z" fill="#2E2E2E"/>
<path d="M64.6046 3.47958C63.1003 5.85011 61.0199 9.49833 61.1719 9.49833C61.404 9.49833 65.2047 3.20636 65.0607 3.06172C64.9967 2.99744 64.7966 3.17422 64.6046 3.47958Z" fill="#2E2E2E"/>
<path d="M70.8051 5.30362C70.5491 5.41612 70.173 5.70541 69.973 5.94648C69.4609 6.54916 66.0602 11.925 66.0602 12.134C66.0602 12.6563 66.6123 12.0858 67.6925 10.4384C68.3647 9.41791 68.9648 8.58219 69.0288 8.58219C69.1488 8.58219 67.0284 12.5599 66.7484 12.8572C66.6363 12.9697 66.2043 12.8572 65.7642 12.5759C64.2599 11.6358 63.8998 12.1018 65.3721 13.0742C66.0202 13.5081 66.3003 13.8617 66.3003 14.2474C66.3003 15.0429 65.5401 16.6179 64.4119 18.1768C63.6038 19.2938 63.4997 19.559 63.7398 19.8483C63.8918 20.0331 64.1639 20.1938 64.3159 20.1938C64.4679 20.1938 64.884 20.4108 65.2041 20.6679C66.5003 21.6884 65.6922 23.6893 63.0276 26.0679L61.6354 27.3054L61.9234 28.3742C62.1795 29.3063 62.1555 29.5715 61.7714 30.4152C61.2193 31.6367 59.571 33.1233 57.8186 33.9911C56.7464 34.5215 56.0343 34.6902 54.53 34.7786C52.6096 34.8911 52.1616 35.084 52.6096 35.6224C52.7777 35.8233 52.4496 36.5947 51.4414 38.4108C50.6733 39.7849 50.0972 40.9661 50.1532 41.0304C50.2172 41.0867 50.9613 39.9375 51.8175 38.4509C52.9297 36.5224 53.4898 35.767 53.8099 35.767C54.0419 35.767 54.25 35.8152 54.25 35.8715C54.25 35.9277 53.6658 37.0206 52.9537 38.2983C52.2416 39.5759 51.6895 40.7411 51.7375 40.8777C51.7775 41.0143 52.5456 39.8652 53.4258 38.3304C54.562 36.3536 55.1541 35.5259 55.4502 35.5259C55.8023 35.5259 55.6262 36.0161 54.354 38.5715C53.5218 40.2429 52.8817 41.7375 52.9297 41.8822C52.9777 42.0268 53.7939 40.6045 54.7381 38.7242C55.7943 36.6108 56.6104 35.2447 56.8665 35.1643C57.5386 34.9474 57.5626 35.2045 56.9705 36.1527C55.7542 38.1054 53.0417 43.2242 53.1618 43.3447C53.2978 43.4733 53.9379 42.4045 56.7544 37.3902C57.8987 35.3492 58.5788 34.3768 59.0109 34.1679L59.627 33.8786L59.1069 34.7625C57.0505 38.25 54.698 42.5572 54.8021 42.6697C54.8741 42.75 54.674 43.2483 54.362 43.7867C53.4018 45.434 53.6819 46.7518 55.0661 47.1215C56.9945 47.6438 61.0513 45.5063 63.8998 42.4608C65.6682 40.5804 65.9482 38.925 64.668 38.0331L64.1559 37.6715L65.4841 35.4295C66.2123 34.2 66.7644 33.1313 66.7004 33.067C66.6363 33.0027 65.9722 33.9992 65.2201 35.2768C64.4119 36.6509 63.6678 37.6474 63.4037 37.7197C63.1477 37.784 62.9316 37.8161 62.9076 37.792C62.8836 37.7679 63.5637 36.6027 64.4359 35.1884C65.3081 33.7742 65.9642 32.5768 65.9002 32.5125C65.7482 32.3438 65.3161 32.9545 63.8198 35.4617C62.5956 37.5108 62.1235 38.1295 62.1235 37.6956C62.1235 37.5831 62.7476 36.4179 63.5157 35.1161C64.948 32.6733 65.02 32.5125 64.692 32.5125C64.5879 32.5125 63.7958 33.7661 62.9316 35.3009C61.7634 37.3742 61.1553 38.2099 60.5712 38.5554C60.1311 38.8125 59.731 39.0215 59.667 39.0215C59.547 39.0215 60.6192 37.0688 62.2595 34.3045C62.9236 33.1875 63.3637 32.2795 63.2517 32.2795C62.9636 32.2795 61.6834 34.3286 60.1631 37.2054C59.2589 38.925 58.6908 39.7206 58.1627 40.042L57.4186 40.484L58.4108 38.6518C58.9629 37.6313 59.9551 35.8072 60.6432 34.5456C61.3313 33.292 61.8674 32.1992 61.8434 32.1027C61.8274 32.0063 62.0275 31.4599 62.3075 30.8813C62.8436 29.7402 62.9396 28.7759 62.5796 28.0929C62.3875 27.7233 62.5796 27.434 63.7558 26.317C66.3243 23.8822 67.1324 21.8893 66.1322 20.4509C65.7722 19.9367 65.7802 19.8322 66.1643 19.117C66.3883 18.6992 66.6683 18.3375 66.7644 18.3375C66.8604 18.3375 67.8046 17.1322 68.8448 15.6617C70.4771 13.3634 71.1412 12.6242 71.1412 13.1063C71.1412 13.1706 70.3571 14.2956 69.4049 15.5974C67.8206 17.759 67.4765 18.3375 67.7886 18.3375C67.8526 18.3375 68.7407 17.1965 69.7809 15.7822C70.8211 14.3679 71.7573 13.2268 71.8853 13.2268C72.056 13.2268 71.4826 14.2179 70.165 16.2C69.2849 17.5259 68.6127 18.7072 68.6607 18.8518C68.7247 19.0447 71.2852 15.3884 73.1736 12.4152C74.3098 10.6233 74.5018 8.63041 73.7257 6.83844C73.3816 6.05094 73.0456 5.6813 72.4455 5.43219C71.5173 5.04648 71.4453 5.03844 70.8051 5.31969V5.30362ZM71.2292 9.15273C71.3492 10.8724 71.3412 10.9608 71.0372 10.3179C70.7011 9.59469 70.5811 7.60987 70.8532 7.33666C71.0772 7.11166 71.0852 7.15183 71.2292 9.15273ZM72.5415 8.59826C72.5655 8.91166 72.5735 9.45808 72.5415 9.85183C72.4695 11.0572 72.1014 9.80362 72.1014 8.34112C72.1014 7.40898 72.1494 7.20005 72.2934 7.55362C72.3974 7.8188 72.5095 8.30094 72.5335 8.59826H72.5415ZM69.3009 9.90005C69.3009 10.1572 67.0124 13.6849 66.8444 13.6849C66.7724 13.6849 66.9644 13.2349 67.2765 12.6965C67.5965 12.142 68.0846 11.2661 68.3887 10.7117C68.8688 9.82773 69.3009 9.44201 69.3009 9.90005ZM68.3647 13.5C66.5643 16.192 66.4843 16.2804 66.9084 15.0349C67.4205 13.5242 69.3809 10.6233 69.6049 11.0331C69.7249 11.25 69.3089 12.0777 68.3647 13.5ZM70.189 13.0099C67.6125 16.6581 67.0604 17.3813 66.8524 17.3893C66.7164 17.3893 66.3403 17.9117 66.0442 18.5143C65.3641 19.8884 65.4041 19.8242 65.2601 19.6795C65.1 19.5188 66.2283 17.5902 68.4047 14.3358C69.5489 12.6161 69.965 12.1581 70.197 12.3509C70.4451 12.5518 70.4451 12.6643 70.197 13.0099H70.189ZM65.3641 18.2652C64.764 19.2617 64.4439 19.6715 64.4439 19.4304C64.4439 19.2215 65.6281 17.4054 65.7642 17.4054C65.8282 17.4054 65.6442 17.7992 65.3641 18.2652ZM60.5632 33.967C60.1871 34.642 59.1949 36.4983 58.3547 38.1054C57.5146 39.7125 56.4904 41.3358 56.0903 41.7054C55.6742 42.0911 55.4022 42.292 55.4662 42.1554C55.5302 42.0268 56.6344 40.1304 57.9307 37.9286C59.2269 35.7188 60.3871 33.6617 60.5152 33.3402C60.6432 33.0108 60.8592 32.7456 61.0033 32.7456C61.1473 32.7456 60.9552 33.292 60.5712 33.967H60.5632ZM62.4755 40.0661C61.7074 40.7331 56.7544 44.2768 55.6902 44.9197C55.0741 45.2974 55.4422 44.5581 56.3864 43.5375C57.5946 42.2358 59.787 40.6367 61.4513 39.8572C63.1877 39.0375 63.5637 39.1179 62.4675 40.0661H62.4755ZM62.4595 41.834C61.4353 42.9027 59.515 44.2768 57.9627 45.0643C56.5464 45.7795 56.9225 45.4661 59.859 43.4572C61.2273 42.525 62.5155 41.5688 62.7316 41.3277C62.9396 41.0947 63.1877 40.8858 63.2517 40.8858C63.3237 40.8858 62.9796 41.3036 62.4595 41.842V41.834Z" fill="#2E2E2E"/>
<path d="M49.5615 11.2901C48.4733 13.3151 47.6492 15.0589 47.7212 15.1794C47.7932 15.3 48.0892 15.0991 48.3453 14.7455C49.1054 13.725 52.162 8.27674 52.162 7.93121C52.162 6.93478 51.2979 8.05174 49.5535 11.2821L49.5615 11.2901Z" fill="#2E2E2E"/>
<path d="M50.9379 11.5875C50.0817 13.4036 49.3936 14.9143 49.3936 14.9705C49.3936 15.0268 49.5056 15.075 49.6496 15.075C49.8816 15.075 52.8662 9.03212 52.8662 8.56605C52.8662 7.81069 52.2981 8.70266 50.9379 11.5875Z" fill="#2E2E2E"/>
<path d="M52.5377 12.3109C51.0895 15.8225 50.9294 17.0278 52.3057 14.0064C53.5299 11.3305 54.2661 9.3055 54.066 9.17692C53.962 9.11264 53.2739 10.5189 52.5377 12.3109Z" fill="#2E2E2E"/>
<path d="M55.771 12.0777C54.9148 13.7732 54.2667 15.1875 54.3227 15.2357C54.4347 15.3482 56.2751 11.9893 57.0032 10.3339C58.0034 8.05982 57.2833 9.08035 55.771 12.0777Z" fill="#2E2E2E"/>
<path d="M54.1466 12.4957C53.3145 14.1671 52.7143 15.5412 52.8184 15.5332C53.0744 15.5332 55.971 9.75551 55.8029 9.58676C55.7309 9.5064 54.9788 10.8162 54.1466 12.4957Z" fill="#2E2E2E"/>
<path d="M45.0888 19.9285C44.1206 20.5312 43.5845 21.3348 42.3363 24.0267C41.7602 25.2642 40.5039 27.691 39.5358 29.4107C38.5676 31.1303 37.8394 32.6008 37.9115 32.6812C38.1115 32.8821 38.5516 32.2392 39.9358 29.7321C42.6964 24.7339 42.6324 25.3607 39.7598 31.3392C38.6876 33.5732 37.8154 35.4214 37.8154 35.4616C37.8154 35.5098 37.8954 35.5419 38.0235 35.5419C38.1355 35.5419 39.0477 33.9026 40.0479 31.9017C41.5682 28.8562 41.8802 28.374 41.9442 28.9365C42.0002 29.4267 41.4801 30.6723 40.0319 33.4848C38.9356 35.6223 38.0395 37.4142 38.0395 37.4946C38.0395 38.1374 38.7116 37.0767 40.3519 33.8705C41.9762 30.6883 42.3043 30.1741 42.4963 30.5839C42.6724 30.9616 42.3523 31.7892 40.96 34.5857C39.9998 36.5142 39.3037 38.1053 39.4237 38.1053C39.5438 38.1053 40.4399 36.5865 41.4161 34.7223C42.7204 32.2312 43.2805 31.3714 43.5365 31.4678C43.7206 31.5321 43.9286 31.5964 43.9766 31.5964C44.0246 31.5964 43.6566 32.2714 43.1445 33.1071C41.8962 35.1562 40.0719 38.8285 40.2239 38.9892C40.2879 39.0535 40.5039 38.8044 40.712 38.4348C43.4005 33.5571 44.4327 31.8294 44.6887 31.8294C44.8488 31.8294 44.9848 31.8937 44.9848 31.966C44.9848 32.0383 44.1927 33.6133 43.2245 35.4535C42.2563 37.2937 41.5121 38.933 41.5682 39.0937C41.6242 39.2544 42.4963 37.7357 43.4885 35.7348C44.8808 32.9464 45.4249 32.0544 45.817 31.958C46.5051 31.7812 47.5533 30.2303 48.2094 28.4142C48.6575 27.1687 48.7215 26.6464 48.6415 24.5812C48.5695 22.7249 48.4415 21.9776 48.0494 21.2303C47.2012 19.6071 46.2651 19.1973 45.0728 19.9446L45.0888 19.9285ZM47.0892 22.7732C47.6493 25.0955 47.1132 28.1089 45.785 30.1419C45.4569 30.6482 45.4009 30.6562 44.8008 30.2946L44.1687 29.9089L44.9048 27.4339C45.3129 26.0598 45.833 24.1633 46.073 23.183C46.3051 22.2107 46.5691 21.4473 46.6491 21.4955C46.7291 21.5437 46.9292 22.1223 47.0812 22.7732H47.0892ZM44.3527 24.9589C43.5045 27.9562 43.0884 28.3499 43.5925 25.6821C43.8326 24.4044 44.9368 21.6964 45.1368 21.8973C45.1768 21.9374 44.8248 23.3115 44.3527 24.9669V24.9589Z" fill="#2E2E2E"/>
<path d="M66.9652 22.8054C66.3011 23.9947 65.1969 25.7787 64.5087 26.7912C63.8286 27.7876 63.3085 28.6796 63.3725 28.7438C63.5486 28.9206 64.2607 27.9724 65.773 25.5376C67.7254 22.3796 68.6535 20.6599 68.3975 20.6599C68.2695 20.6599 67.6293 21.6242 66.9652 22.8135V22.8054Z" fill="#2E2E2E"/>
<path d="M35.0869 21.8491C34.3028 22.259 33.2066 23.0545 32.6145 23.6491C31.2782 24.9911 29.8299 27.9 29.4379 30.0456L29.1498 31.6286L27.7175 32.2795C26.9334 32.6331 25.9172 33.2116 25.4691 33.5491C24.5089 34.2884 23.7088 35.8313 23.7088 36.9483C23.7088 37.3822 23.2767 38.7643 22.7406 40.0179C21.9004 41.9947 21.6684 42.3402 21.0042 42.6215C19.94 43.0715 18.3237 44.2206 17.3715 45.2009L16.5634 46.0367L17.3395 44.092C17.7716 43.0152 18.5878 41.1429 19.1719 39.8813C19.756 38.6277 20.1401 37.567 20.0361 37.5027C19.644 37.2616 15.6992 46.4786 15.1151 48.9858C14.8831 49.9822 14.9071 50.2956 15.2511 51.2036C15.4752 51.7822 15.7232 52.2643 15.8112 52.2724C15.8913 52.2724 16.2513 52.5134 16.5954 52.7947L17.2275 53.309L16.5474 55.0527C16.1713 56.009 15.8593 56.9974 15.8512 57.2384C15.8272 58.0902 16.4434 57.1902 17.2515 55.1733C17.9316 53.4777 18.4518 52.7304 18.7558 53.0358C18.8038 53.084 18.5318 53.992 18.1397 55.0608C17.7476 56.1295 17.4676 57.0938 17.5076 57.2224C17.5796 57.4474 17.7316 57.1099 18.8278 54.1286C19.1319 53.2929 19.564 52.634 20.0361 52.2804C20.4521 51.967 20.7082 51.8706 20.6362 52.0634C20.5642 52.2402 20.1401 53.2608 19.684 54.3054C19.2359 55.35 18.9318 56.2259 19.0199 56.2259C19.1079 56.2259 19.748 54.9724 20.4201 53.4616C21.1003 51.9509 21.9084 50.4563 22.2125 50.159C22.7166 49.6768 22.6766 49.8295 21.8444 51.7661C20.8922 53.9759 20.7642 54.3777 21.1323 54C21.4043 53.7188 24.1648 47.6518 24.1088 47.4429C23.9648 46.8402 26.1252 41.3518 26.5093 41.3518C26.8134 41.3518 26.6933 41.7215 25.5491 44.325C25.021 45.5304 24.6529 46.575 24.725 46.6474C24.941 46.8643 25.173 46.4384 26.2212 43.9474C26.7733 42.6456 27.3014 41.5768 27.4055 41.5768C27.9096 41.5768 27.5175 40.6527 26.6613 39.817C23.9088 37.1411 24.4129 35.0438 28.2376 33.284C29.1418 32.8661 29.958 32.4 30.054 32.2474C30.15 32.0947 30.366 31.2268 30.5341 30.3188C31.3502 25.9474 34.3188 22.6045 37.8155 22.1063C38.7196 21.9777 39.0877 21.817 39.1357 21.5197C39.1917 21.1661 39.0237 21.1099 37.8395 21.1099C36.7673 21.1099 36.1752 21.2625 35.0629 21.8411L35.0869 21.8491ZM23.4607 40.1545C22.8286 41.8018 22.3085 42.6697 22.3005 42.1072C22.3005 41.8018 23.9968 38.0813 24.0928 38.1777C24.1408 38.234 23.8608 39.1099 23.4607 40.1545ZM24.3569 40.9661C24.0608 41.7375 23.7248 42.2679 23.5247 42.2679C23.2927 42.2679 23.2367 42.1393 23.3487 41.8581C23.4367 41.6411 23.7328 40.8777 23.9888 40.2108C24.3329 39.3027 24.5169 39.0616 24.6609 39.3188C24.781 39.5358 24.6689 40.1545 24.3569 40.9661ZM25.5491 40.4117C25.5491 40.8536 24.3169 43.0795 24.2209 42.8063C24.1008 42.4608 25.069 40.1786 25.3411 40.1786C25.4691 40.1786 25.5491 40.275 25.5491 40.4117ZM25.3491 42.6536C24.957 43.5375 24.6449 44.0358 24.6369 43.7786C24.6369 43.2241 25.7411 40.7411 25.9172 40.9179C25.9972 40.9983 25.7411 41.7697 25.3491 42.6536ZM21.5723 45.2492C20.4921 47.1777 17.6196 51.5733 17.4436 51.5733C17.2195 51.5733 16.7474 50.4804 16.7474 49.9661C16.7474 49.1465 18.1797 46.6795 19.1559 45.8197C19.94 45.1286 21.9004 43.9152 22.2605 43.8992C22.3005 43.8992 21.9884 44.5018 21.5723 45.2411V45.2492ZM22.2445 46.7358C21.7964 47.6679 20.9802 48.9054 20.4521 49.4759C19.548 50.4483 19.516 50.4643 19.964 49.709C20.2281 49.267 20.9962 47.9652 21.6444 46.8483C22.2925 45.7313 22.8926 44.8554 22.9486 44.9197C23.0126 44.984 22.6926 45.8036 22.2445 46.7358Z" fill="#2E2E2E"/>
<path d="M66.2922 25.1196C63.8197 29.0732 63.7957 29.1134 64.2118 28.9768C64.4998 28.8803 68.8447 22.1223 68.8447 21.7687C68.8447 21.2062 68.2926 21.9294 66.3002 25.1196H66.2922Z" fill="#2E2E2E"/>
<path d="M67.0046 26.0277C65.6923 27.9563 64.6762 29.5875 64.7402 29.6438C64.8042 29.7 65.7724 28.3983 66.8846 26.775C67.9888 25.1518 69.109 23.5125 69.3491 23.159C69.5891 22.8134 69.7011 22.5161 69.5891 22.5161C69.4771 22.5161 68.3169 24.0991 67.0126 26.0277H67.0046Z" fill="#2E2E2E"/>
<path d="M12.8344 39.7608C10.9701 43.8269 8.18555 52.1358 8.18555 53.6144C8.18555 54.426 8.64164 53.3813 9.68183 50.1751C10.9701 46.2215 12.5464 42.1233 13.6506 39.8572C14.4988 38.1135 14.6028 37.6233 14.1307 37.6233C13.9547 37.6233 13.3705 38.5795 12.8264 39.7608H12.8344Z" fill="#2E2E2E"/>
<path d="M16.2906 41.159C13.7541 47.3867 11.8658 53.6626 12.5219 53.6626C12.6499 53.6626 12.818 53.1965 12.898 52.6421C13.114 51.0671 14.5383 46.8322 16.4427 42.0912C17.3868 39.7447 18.147 37.7921 18.147 37.7358C18.147 37.6715 18.067 37.6313 17.9389 37.6313C17.8269 37.6313 17.0908 39.2144 16.2906 41.1671V41.159Z" fill="#2E2E2E"/>
<path d="M15.1792 38.7885C15.0511 39.1099 14.587 40.251 14.139 41.3438C12.7467 44.7349 11.2584 49.0581 10.6343 51.501C9.96216 54.1527 9.97016 54.1286 10.2262 54.1286C10.3382 54.1286 10.4983 53.7349 10.5783 53.2447C10.8183 51.7822 12.5387 46.5992 14.131 42.5251C14.9551 40.4358 15.5712 38.6197 15.5152 38.467C15.4592 38.3143 15.3072 38.459 15.1792 38.7804V38.7885Z" fill="#2E2E2E"/>
<path d="M33.118 43.2724C31.6778 46.6474 29.4854 52.3448 29.4854 52.7305C29.4854 53.4135 29.9094 52.7546 30.5015 51.1474C31.0617 49.6287 33.5981 43.4733 34.7184 40.918C34.9824 40.3153 34.9824 40.1707 34.7424 40.1707C34.5743 40.1707 33.8462 41.5689 33.118 43.2644V43.2724Z" fill="#2E2E2E"/>
<path d="M35.4071 42.9268C33.7908 46.1572 32.3025 49.6607 32.1185 50.6652C31.9104 51.7902 32.3265 51.2679 32.9666 49.5965C33.2627 48.825 34.3109 46.5027 35.3191 44.4134C36.3193 42.3241 37.1354 40.5804 37.1354 40.5241C37.1354 40.4599 37.0394 40.4197 36.9034 40.4197C36.7754 40.4197 36.1032 41.5607 35.4151 42.9268H35.4071Z" fill="#2E2E2E"/>
<path d="M36.8633 43.7144C35.5191 46.1814 34.2228 49.2028 34.4229 49.4117C34.6069 49.6046 34.5589 49.693 35.6151 47.3867C36.1192 46.2939 36.9113 44.6948 37.3994 43.8109C37.8795 42.9269 38.2796 42.1153 38.2796 41.9948C38.2796 41.4082 37.7995 41.9948 36.8633 43.7144Z" fill="#2E2E2E"/>
<path d="M43.1684 46.5026C42.3202 49.4196 40.3198 51.2115 36.7351 52.2803C35.919 52.5214 35.6309 52.7785 34.9428 53.8955C34.0386 55.358 33.0304 56.2339 31.4061 56.9651C30.4139 57.4071 30.0859 57.4392 27.7734 57.2785C23.8847 57.0053 24.0767 56.9651 22.6604 58.299C21.2042 59.6732 20.292 60.1151 18.8677 60.1312C17.5555 60.1473 16.4832 59.6008 14.9309 58.1062C13.7707 56.9973 13.2906 56.8044 13.2906 57.4553C13.2906 57.5919 13.4987 57.9294 13.7387 58.1865C14.1868 58.6607 14.1868 58.6767 12.8105 61.674C12.0584 63.3214 11.4743 64.7276 11.5223 64.7758C11.6423 64.8964 13.0026 62.1964 13.7467 60.3562C14.0508 59.6089 14.3788 59.0062 14.4829 59.0062C15.019 59.0062 14.8349 59.8901 13.7627 62.4937C13.1146 64.0767 12.6345 65.4026 12.6985 65.4669C12.8105 65.5794 13.5947 63.908 14.6749 61.2803C15.179 60.0508 15.6191 59.641 15.9151 60.1151C15.9791 60.2196 15.371 61.7062 14.5629 63.4258C13.7547 65.1455 13.1546 66.608 13.2186 66.6723C13.2986 66.7446 13.3867 66.6964 13.4347 66.5517C13.4827 66.4231 14.1708 64.9848 14.963 63.3535C16.1312 60.9348 16.4592 60.4285 16.7473 60.6133C17.0354 60.7981 16.8513 61.3205 15.6031 63.8598C14.7789 65.5312 14.1628 66.9374 14.2268 67.0017C14.2908 67.066 15.011 65.7562 15.8271 64.1089C16.8993 61.9231 17.4194 61.0955 17.7235 61.0955C18.0675 61.0955 17.8995 61.5856 16.7393 63.908C15.9631 65.4669 15.371 66.833 15.419 66.9696C15.4671 67.1062 16.1472 65.9571 16.9553 64.3981C18.3156 61.7705 19.0677 60.6615 19.0677 61.3044C19.0677 61.441 18.5316 62.558 17.8835 63.7714C17.2354 64.9767 16.7473 66.1098 16.8033 66.2705C16.8593 66.4312 17.4914 65.4026 18.2196 63.9562C18.9397 62.5178 19.7319 61.2401 19.9879 61.0955C20.244 60.9589 20.452 60.8946 20.452 60.9669C20.452 61.0392 19.8839 62.2365 19.1798 63.6508C18.4756 65.0651 17.9155 66.3348 17.9155 66.4955C17.9155 66.6562 18.6117 65.4348 19.4518 63.7633C20.8521 60.999 21.2282 60.4124 21.6522 60.3964C21.7243 60.3964 21.1241 61.6901 20.3 63.2973C19.4758 64.9044 18.8917 66.2062 18.9957 66.2062C19.0997 66.2062 19.8839 64.824 20.7561 63.1285C21.6202 61.433 22.7484 59.6008 23.2525 59.0624C23.7566 58.5321 24.2127 58.074 24.2447 58.074C24.2767 58.074 23.4286 59.8178 22.3564 61.9312C21.2842 64.0446 20.452 65.8446 20.516 65.9089C20.644 66.0374 24.6128 58.3553 24.6128 57.9857C24.6128 57.8651 24.9969 57.841 25.477 57.9294C25.9651 58.0178 26.4772 58.0821 26.6452 58.0821C26.8292 58.0821 26.3971 59.1508 25.509 60.8705C24.7168 62.4053 24.1327 63.7151 24.2047 63.7874C24.2767 63.8598 24.8288 62.9356 25.429 61.7544C27.0293 58.5964 27.3653 58.0821 27.7414 58.2348C27.9975 58.3312 27.9174 58.6205 27.3733 59.5446C26.1971 61.5696 25.0529 63.8919 25.2369 63.8919C25.3409 63.8919 26.0931 62.6705 26.9253 61.1598C27.8454 59.4883 28.5896 58.3955 28.8456 58.3473C29.1817 58.283 29.0297 58.733 28.0855 60.6374C27.4373 61.9392 26.9573 63.0642 27.0213 63.1285C27.0853 63.1928 27.6854 62.1401 28.3495 60.7901C29.1657 59.1428 29.7178 58.299 30.0298 58.2187C30.2859 58.1544 30.5179 58.1303 30.5499 58.1624C30.582 58.1946 30.2939 58.8856 29.9178 59.6973C29.5338 60.5089 29.2697 61.2883 29.3257 61.433C29.3817 61.5776 29.8138 60.8544 30.2939 59.8017C31.046 58.1785 31.2781 57.8731 31.9982 57.5919C32.4623 57.4071 32.8944 57.2383 32.9824 57.1981C33.0624 57.158 32.7264 57.8973 32.2383 58.8214C31.7502 59.7535 31.3501 60.6776 31.3501 60.8705C31.3501 61.0633 31.8142 60.3321 32.3663 59.2633C32.9264 58.1946 33.3665 57.2383 33.3425 57.1499C33.3185 57.0615 33.7346 56.5553 34.2707 56.033C34.8068 55.5107 35.4549 54.6669 35.7029 54.1606C36.023 53.5339 36.3991 53.1642 36.9032 52.9874C37.3192 52.8428 37.6793 52.7705 37.7273 52.8106C37.7753 52.8589 36.9192 54.5785 35.831 56.6437C34.7428 58.7089 33.8866 60.5731 33.9186 60.7821C33.9586 60.991 35.0148 59.2392 36.271 56.8848C39.5197 50.7856 39.6157 50.866 36.6791 57.2303C36.151 58.3714 35.783 59.3517 35.839 59.416C35.903 59.4803 36.7671 57.8089 37.7753 55.6955C38.7755 53.5821 39.7517 51.7981 39.9518 51.7178C40.1758 51.6294 39.7597 52.7383 38.8155 54.7392C37.9914 56.483 37.3673 58.0178 37.4233 58.1544C37.4793 58.299 38.3194 56.7481 39.2956 54.699C40.4318 52.3285 41.408 50.6249 42.0081 49.966C42.9683 48.9214 44.0565 46.7839 44.0565 45.9481C44.0565 45.1124 43.4404 45.4821 43.1524 46.4785L43.1684 46.5026Z" fill="#2E2E2E"/>
<path d="M57.5391 52.5455C56.4589 54.916 56.4029 55.6071 57.4671 53.5017C58.4353 51.5731 58.8994 50.408 58.6993 50.408C58.5953 50.408 58.0832 51.3642 57.5391 52.5455Z" fill="#2E2E2E"/>
<path d="M46.6967 54.4099C44.3283 58.5001 44.4243 58.3152 44.7364 58.3152C44.8644 58.3152 45.2725 57.8733 45.6325 57.3349C46.6167 55.8965 49.1532 51.4206 49.1532 51.1313C49.1532 50.392 48.5451 51.2036 46.6887 54.4099H46.6967Z" fill="#2E2E2E"/>
<path d="M49.2894 53.2205C48.9293 54.0321 48.1691 55.5347 47.609 56.5312C47.0489 57.5276 46.6408 58.4115 46.7049 58.4758C47.0009 58.7731 50.2175 52.5455 50.0415 52.0151C49.9935 51.8624 49.6494 52.4089 49.2894 53.2205Z" fill="#2E2E2E"/>
<path d="M51.8578 54.0805C51.2577 55.3341 50.3535 57.0618 49.8654 57.8734C48.8572 59.5448 48.8892 60.2118 49.9134 58.9903C50.6976 58.0582 53.5861 52.2725 53.4101 51.9912C53.146 51.5653 52.898 51.8948 51.8498 54.0805H51.8578Z" fill="#2E2E2E"/>
<path d="M55.2984 54.5946C54.5783 56.033 54.0422 57.3027 54.0822 57.4313C54.1302 57.5598 54.7543 56.4429 55.4905 54.9321C56.2266 53.4214 56.7707 52.1518 56.7067 52.0955C56.6427 52.0393 56.0106 53.1563 55.2984 54.5946Z" fill="#2E2E2E"/>
<path d="M52.282 55.4544C51.4418 57.2223 50.6977 58.9259 50.6337 59.2473C50.3296 60.7178 51.6739 58.275 53.6903 53.7187C53.9863 53.0437 54.1304 52.4571 54.0183 52.3848C53.9063 52.3125 53.1222 53.7026 52.282 55.4625V55.4544Z" fill="#2E2E2E"/>
<path d="M53.81 55.4305C52.0496 58.8215 52.0736 58.7813 52.3537 58.7813C52.5857 58.7813 55.7223 52.5215 55.5703 52.3688C55.5063 52.3046 54.7061 53.6947 53.81 55.4385V55.4305Z" fill="#2E2E2E"/>
<path d="M23.7089 61.9073C22.7647 63.7474 22.0366 65.3224 22.1006 65.3867C22.1646 65.451 23.0288 63.9323 24.013 62.0278C24.9972 60.1233 25.7253 58.5483 25.6213 58.5483C25.5173 58.5483 24.6531 60.0751 23.7089 61.9073Z" fill="#2E2E2E"/>
<path d="M35.1826 62.3893C34.7026 63.1125 33.9664 64.0849 33.5023 64.5992C33.0462 65.1134 32.7822 65.5152 32.9102 65.5152C33.3743 65.5152 36.4149 61.4813 36.1508 61.2161C36.0868 61.1518 35.6547 61.6661 35.1826 62.3893Z" fill="#2E2E2E"/>
<path d="M31.7503 62.9357C30.5501 64.4223 30.47 64.583 30.9741 64.583C31.3262 64.583 33.4306 62.2125 33.4306 61.8188C33.4306 61.2322 32.7905 61.658 31.7583 62.9357H31.7503Z" fill="#2E2E2E"/>
<path d="M36.567 64.2294C35.8549 65.4348 35.1668 66.4874 35.0387 66.5678C34.9187 66.6401 34.8147 66.8973 34.8227 67.1062C34.8387 67.6848 36.0069 66.2464 37.2552 64.1089C38.3274 62.2687 38.4234 62.0356 38.0713 62.0356C37.9593 62.0356 37.2792 63.024 36.567 64.2294Z" fill="#2E2E2E"/>
<path d="M97.1948 40.6928C94.0262 41.5125 87.0408 43.4732 86.9208 43.5777C86.4887 43.9312 87.4489 43.7786 89.8174 43.1036C91.3297 42.6696 94.2422 41.8821 96.2746 41.3437C98.315 40.8054 100.011 40.3393 100.043 40.2991C100.355 39.9937 99.3472 40.1384 97.1948 40.6928Z" fill="#2E2E2E"/>
<path d="M98.2351 41.7216C90.2016 43.7948 86.0648 44.8957 85.9768 44.976C85.9288 45.0242 85.9528 45.1126 86.0328 45.201C86.2168 45.3858 101.244 41.5287 101.244 41.2957C101.244 41.0144 100.644 41.1028 98.2351 41.7216Z" fill="#2E2E2E"/>
<path d="M110.573 54.1768C109.645 54.9563 108.933 55.6473 108.997 55.7116C109.109 55.8241 112.254 53.3411 112.494 52.9473C112.806 52.4411 112.126 52.875 110.573 54.1768Z" fill="#2E2E2E"/>
<path d="M111.461 57.8733C110.653 58.6447 110.045 59.3278 110.109 59.4001C110.173 59.4724 110.933 58.8456 111.813 58.0019C112.694 57.1581 113.294 56.4751 113.166 56.4751C113.038 56.4751 112.278 57.1019 111.461 57.8733Z" fill="#2E2E2E"/>
<path d="M115.838 58.1946C115.014 59.0303 114.446 59.7053 114.574 59.6973C114.99 59.6892 117.518 57.2544 117.422 56.9571C117.366 56.7964 116.686 57.3267 115.838 58.1866V58.1946Z" fill="#2E2E2E"/>
<path d="M116.518 59.1267C115.71 59.9383 115.086 60.6696 115.15 60.7339C115.214 60.7982 115.934 60.1794 116.75 59.3598C117.558 58.5482 118.183 57.8169 118.119 57.7526C118.055 57.6884 117.334 58.3071 116.518 59.1267Z" fill="#2E2E2E"/>
<path d="M117.678 59.3599C116.998 60.059 116.534 60.6376 116.662 60.6376C116.966 60.6376 119.198 58.3474 119.046 58.1947C118.982 58.1304 118.366 58.6608 117.678 59.3599Z" fill="#2E2E2E"/>
<path d="M120.455 62.2446C120.455 62.5419 117.326 65.8687 116.494 66.4714L115.798 66.9696L115.318 66.4553C114.382 65.4589 113.109 65.2981 110.845 65.8848C107.004 66.8812 104.244 69.0267 104.244 71.0115C104.244 71.4937 103.868 72.0481 102.811 73.1169C102.027 73.9044 101.459 74.6517 101.563 74.7562C101.667 74.8606 102.395 74.2178 103.195 73.3419C104.14 72.2973 104.7 71.8312 104.804 72.008C104.9 72.1687 104.452 72.8598 103.691 73.7196C102.995 74.5071 102.467 75.2142 102.531 75.2785C102.595 75.3428 103.331 74.716 104.164 73.8964L105.676 72.3937L104.748 73.6473C103.563 75.2544 103.779 75.7446 105.028 74.2981C105.556 73.6955 106.116 73.2053 106.284 73.2053C106.452 73.2053 106.236 73.6231 105.764 74.1856C104.612 75.5356 104.996 75.624 106.244 74.2981C106.812 73.6955 107.444 73.2053 107.652 73.2053C107.932 73.2053 107.828 73.4142 107.292 73.9687C106.092 75.2142 106.46 75.2624 107.708 74.0249C108.908 72.8356 109.637 72.7231 108.516 73.8964C108.14 74.2901 107.964 74.5955 108.108 74.5955C108.252 74.5955 108.684 74.1856 109.093 73.6794C109.629 73.0124 110.149 72.6589 111.029 72.3776C111.701 72.1606 112.565 71.791 112.981 71.5258C113.397 71.2687 113.733 71.1321 113.733 71.2205C113.733 71.4214 114.894 70.5856 117.318 68.6249C120.535 66.0214 121.039 65.5633 120.863 65.3865C120.775 65.2981 119.847 65.941 118.782 66.841C117.718 67.733 116.406 68.8098 115.83 69.2598L114.798 70.0633L115.214 69.3642C115.446 68.9785 116.07 68.3276 116.622 67.9017C117.918 66.9053 121.191 63.6348 121.047 63.4821C120.983 63.4178 120.223 64.0848 119.35 64.9687C117.214 67.1303 115.822 68.2392 115.822 67.7571C115.822 67.5481 115.902 67.3874 116.006 67.3874C116.342 67.3874 119.07 64.808 120.015 63.5946C120.927 62.4294 121.095 62.0356 120.679 62.0356C120.543 62.0356 120.447 62.116 120.447 62.2446H120.455ZM114.117 67.4999C114.31 67.9981 113.533 69.1794 112.557 69.8544C111.773 70.4008 109.213 71.349 108.572 71.3249C108.42 71.3249 109.013 71.0115 109.917 70.6258C111.517 69.9428 112.573 69.1553 112.277 68.874C112.205 68.8017 111.237 69.1231 110.149 69.5973C108.316 70.3767 105.636 71.0035 105.636 70.6499C105.636 70.3606 107.396 68.8258 108.18 68.424C110.405 67.291 113.829 66.7687 114.117 67.516V67.4999Z" fill="#2E2E2E"/>
<path d="M119.183 67.8858C118.415 68.5447 116.566 69.967 115.062 71.0518C112.517 72.9001 111.893 73.4143 112.237 73.4143C112.645 73.4143 117.91 69.5492 119.759 67.8858C121.303 66.4956 120.799 66.4876 119.183 67.8777V67.8858Z" fill="#2E2E2E"/>
<path d="M115.823 71.8313C114.366 72.8438 113.006 73.7679 112.814 73.8723C112.63 73.9768 112.534 74.1375 112.606 74.2098C112.734 74.3384 119.063 70.2563 119.063 70.0473C119.063 69.7098 118.207 70.1759 115.823 71.8313Z" fill="#2E2E2E"/>
<path d="M117.79 72.0322C117.558 72.2894 116.526 73.0769 115.51 73.776C114.493 74.4751 113.781 75.0537 113.949 75.0537C114.117 75.0537 115.014 74.5233 115.942 73.8805C117.654 72.6912 118.87 71.5662 118.438 71.5662C118.31 71.5662 118.022 71.7751 117.79 72.0322Z" fill="#2E2E2E"/>
</g>
<defs>
<clipPath id="clip0_371_2484">
<rect width="125" height="90" fill="white"/>
</clipPath>
</defs>
</svg>
