<svg width="81" height="58" viewBox="0 0 81 58" fill="none" xmlns="http://www.w3.org/2000/svg">
<g clip-path="url(#clip0_371_2484)">
<path d="M45.2959 0.212292C44.4818 0.321042 42.8641 0.595506 41.713 0.818185C39.8101 1.18586 39.4939 1.20658 38.3221 1.06676C34.9103 0.647292 30.3423 1.80729 26.4743 4.07551C25.6033 4.58818 25.5151 4.6089 24.587 4.52086C23.3426 4.40693 22.456 4.65033 21.6627 5.3339C20.9368 5.95533 20.5479 6.67515 20.2575 7.91801C20.0812 8.67926 19.8946 8.99515 19.1739 9.80819C17.6754 11.4809 16.5036 13.1018 15.2903 15.1887C14.6422 16.2969 14.0096 17.286 13.88 17.4C13.7452 17.5139 13.04 17.8194 12.2882 18.0939C9.79939 19.0053 8.21797 20.1653 6.60544 22.273C5.16401 24.1528 4.54181 25.6132 3.75887 28.9068C3.69665 29.1709 3.38037 29.4712 2.77891 29.8441C1.56562 30.595 0.4664 31.8275 0.201966 32.7441C-0.0883941 33.7332 -0.0469142 35.7994 0.274556 36.9076C0.647875 38.1816 1.29081 39.3726 2.15152 40.398L2.89298 41.2835L2.65965 41.9412C2.333 42.863 2.46262 44.1887 3.00186 45.385C3.48925 46.4776 3.40111 46.343 4.57292 47.736C5.65658 49.0255 6.7558 49.8437 8.02094 50.315C8.86609 50.6309 9.01127 50.6412 9.92383 50.4755C10.8986 50.2994 10.9245 50.3046 11.7541 50.7603C14.7666 52.4226 15.8607 52.7075 18.0695 52.4278C19.4798 52.2466 20.5634 51.9151 21.7767 51.3041L22.57 50.9001L23.7833 51.1332C25.3129 51.4232 26.661 51.4232 28.3306 51.1332C30.192 50.8121 31.369 50.2166 32.2193 49.1757C32.5978 48.7096 32.9037 48.2487 32.9037 48.14C32.9037 47.7826 33.3548 47.5807 35.3614 47.0318L37.3732 46.4776L37.7828 47.3166C38.9702 49.7609 40.6242 51.6718 42.2523 52.4744C43.0611 52.8784 44.0048 52.9664 44.6944 52.7075C45.187 52.521 45.2648 52.5676 47.1988 54.261C49.8535 56.581 51.7564 57.1869 54.9089 56.7157C58.0717 56.2444 58.2843 56.2444 59.1813 56.7468C60.7575 57.6323 63.8737 58.2175 65.45 57.9223C66.347 57.7566 67.2336 57.3268 68.3587 56.5189L69.0794 56.001L71.1275 56.0891C73.0615 56.1719 73.2326 56.1564 74.1815 55.8094C75.6488 55.2709 76.7481 54.5666 77.9613 53.3859C79.0969 52.2776 79.5531 51.3714 79.5531 50.2166C79.5531 49.9007 79.6257 49.7091 79.7502 49.7091C80.1339 49.7091 80.7457 48.8857 80.9064 48.1503C81.1086 47.2493 80.9894 46.4103 80.4294 44.7635C80.1961 44.0748 80.0042 43.3187 80.0042 43.0909C80.0042 42.863 79.9368 42.6403 79.8539 42.5885C79.7657 42.5368 79.7035 41.7185 79.7035 40.6725C79.7035 37.6016 79.2887 36.4778 77.8732 35.7166C76.971 35.2298 76.691 34.9035 75.6851 33.1532C74.0622 30.3205 72.1282 28.8446 68.7528 27.8451C67.8973 27.5914 67.1299 27.2755 67.0262 27.1305C66.9277 26.9907 66.7203 26.5298 66.5699 26.1103C66.0255 24.6085 64.61 23.6298 58.8961 20.8023C58.4606 20.5848 58.1132 20.331 58.108 20.2223C58.108 20.1135 58.305 19.7251 58.5643 19.3523C59.6739 17.7314 59.8398 16.6698 59.2228 15.1732C59.0206 14.676 58.8546 14.1168 58.8546 13.9303C58.8546 13.7439 58.7613 13.5523 58.642 13.5057C58.3984 13.4125 58.1702 12.4026 58.0302 10.8284C57.9784 10.2432 57.8436 9.44051 57.7243 9.01586C57.4547 8.04229 56.3918 6.44211 55.9407 6.32818C55.6659 6.26086 55.557 6.07961 55.417 5.43229C54.8414 2.85336 52.6586 0.647292 50.1853 0.129435C49.1483 -0.0828866 47.1728 -0.0569938 45.2959 0.196756V0.212292ZM47.3958 1.4914C47.1677 1.83836 47.0225 2.1439 47.064 2.19051C47.1054 2.23711 47.3543 1.9264 47.6136 1.50693C48.1528 0.647292 48.1735 0.642113 49.6876 0.885506C52.1193 1.27908 54.0222 3.12783 54.6133 5.67051C54.7015 6.03818 54.8155 6.8564 54.8726 7.46747C54.9711 8.51872 54.9555 8.61711 54.6237 8.97443C54.4266 9.18676 53.7682 10.1707 53.1511 11.1753C52.5341 12.18 51.9793 12.9619 51.9119 12.9205C51.8445 12.8791 51.8393 12.7703 51.9119 12.6668C52.9074 11.108 54.6081 8.13033 54.5511 8.03711C54.4215 7.81961 54.2711 8.02158 53.1097 9.96872C51.803 12.1541 51.549 12.5269 51.4349 12.413C51.3831 12.3612 51.689 11.7916 52.109 11.1339C52.5341 10.471 53.1719 9.34211 53.54 8.5964C54.1052 7.45711 54.1985 7.13086 54.1622 6.49908C54.1311 5.96051 54.0533 5.74818 53.8926 5.74818C53.7319 5.74818 53.6333 5.97086 53.5659 6.48354C53.4415 7.3639 52.7104 8.88122 51.5645 10.616C51.1031 11.3203 50.6883 12.035 50.6468 12.211C50.5898 12.4337 50.7349 12.76 51.129 13.2675C52.1141 14.5466 52.2904 15.111 52.2023 16.7423C52.1504 17.7003 52.0156 18.4668 51.803 19.0364C51.1964 20.6366 49.7394 21.693 47.6862 22.0296C46.7269 22.185 46.3018 22.5112 46.7995 22.7028C47.1677 22.8478 48.9306 22.4698 49.7861 22.0659C51.9741 21.0301 52.9956 19.14 52.9956 16.1157C52.9956 15.0126 53.006 14.9919 54.4629 12.7444C54.577 12.5632 54.6081 12.413 54.5252 12.413C54.4422 12.413 54.0326 12.9619 53.623 13.6196C53.0837 14.4896 52.8504 14.7589 52.783 14.588C52.6793 14.3084 52.8089 14.0339 53.5867 12.8635C54.3437 11.7243 54.3748 11.6673 54.2037 11.6673C54.1104 11.6673 53.7007 12.1851 53.2756 12.8273C52.8504 13.4694 52.5497 13.8734 52.5912 13.7232C52.6378 13.5782 53.006 12.9671 53.4104 12.3664C54.3074 11.0303 54.5407 10.6109 54.3644 10.6109C54.2918 10.6109 53.8044 11.253 53.2859 12.035C52.7674 12.8118 52.3164 13.428 52.2801 13.3969C52.223 13.34 54.5044 9.51818 54.7429 9.26443C54.7844 9.22301 54.7689 9.53372 54.7118 9.96872C54.6237 10.6109 54.6807 10.9578 55.0177 11.9159C55.6088 13.5782 55.697 15.8412 55.2511 17.7159C54.6444 20.2637 53.0526 23.086 51.0408 25.2041C49.0343 27.3169 46.9447 28.4251 43.7041 29.1087C41.573 29.5541 41.516 29.6007 40.8938 31.2112C39.6909 34.3391 38.3739 36.0428 35.8747 37.7207C33.7489 39.1448 30.7623 40.108 28.3928 40.1287C27.7758 40.1339 27.0758 40.2219 26.8477 40.3203C26.604 40.4239 26.0647 41.0091 25.5721 41.6978C24.587 43.0753 23.2908 44.1318 21.9893 44.6185C20.5479 45.1571 19.0131 45.4005 17.6702 45.2969C16.5451 45.2089 16.3636 45.24 14.8185 45.7682C13.263 46.3016 13.0659 46.3326 11.2927 46.3378H9.4157L7.95353 45.618C7.08246 45.1882 6.19064 44.6082 5.7551 44.1887C4.84254 43.3135 3.8885 41.7082 4.00775 41.2369C4.06997 40.9884 3.87813 40.6518 3.19889 39.8439C1.89227 38.2851 1.33748 37.0423 1.15082 35.2764C0.93305 33.1946 1.51377 32.0968 3.56703 30.7141C4.72847 29.9321 4.69736 29.9891 5.27289 27.4723C5.66695 25.7478 6.53803 24.0234 7.80317 22.4387C9.1046 20.8075 10.4942 19.8184 12.5941 19.0053C13.4807 18.6635 14.3622 18.2337 14.5385 18.0576C14.7148 17.8816 15.4147 16.7889 16.0888 15.6393C17.5873 13.0759 18.6139 11.7087 20.3716 9.94801C24.167 6.14176 28.7713 3.40229 33.1163 2.37693C35.0659 1.91604 37.1399 1.75551 38.3946 1.96265C39.385 2.12836 39.6235 2.11283 41.319 1.75551C42.3404 1.53801 43.1856 1.38783 43.2167 1.40854C43.2478 1.43443 42.7293 2.4339 42.0604 3.65086C41.3916 4.86265 40.9249 5.82068 41.0079 5.79479C41.096 5.76372 41.6923 4.76943 42.3352 3.58354C43.3671 1.68301 43.8596 1.01497 44.0722 1.23247C44.1033 1.26354 43.59 2.18533 42.9315 3.26247C42.273 4.33961 41.7338 5.27176 41.7338 5.32354C41.7338 5.66533 42.2419 5.00765 43.3722 3.21068C44.1655 1.95229 44.7981 1.09265 44.9692 1.06158C45.2181 1.01497 45.2233 1.04086 45.0314 1.31015C43.9115 2.88443 42.9367 4.33443 42.9367 4.41211C42.9367 4.69176 43.3256 4.26193 44.347 2.85336C44.964 1.9989 45.4411 1.24283 45.4048 1.18068C45.3685 1.11854 45.5033 1.04086 45.7107 0.999435C45.9233 0.963185 46.084 0.958006 46.084 0.994256C46.084 1.03051 45.8299 1.39818 45.5085 1.83318C44.6892 2.9414 44.093 3.90461 44.1759 3.98229C44.2174 4.01854 44.6685 3.45408 45.1662 2.73426C46.4262 0.921756 46.4781 0.864792 46.7373 0.916578C46.9084 0.952828 46.7995 1.19622 46.2655 1.97301C45.8818 2.52711 45.607 3.01908 45.6485 3.06051C45.6951 3.10193 46.0477 2.67211 46.4469 2.08693C47.1003 1.1289 47.5565 0.673185 47.7121 0.828542C47.7432 0.859613 47.5928 1.15997 47.3699 1.50176L47.3958 1.4914ZM22.85 6.4939C22.176 7.02729 21.5849 7.44158 21.5538 7.41051C21.4449 7.30693 21.9115 6.50943 22.29 6.16247C22.6997 5.77926 23.2493 5.54104 23.747 5.53068C24.0166 5.52551 23.8144 5.73783 22.8552 6.4939H22.85ZM56.3969 8.72069C56.3555 9.06247 56.2725 10.0153 56.2155 10.8387L56.1118 12.3353L55.8577 11.5844C55.6555 10.9837 55.6192 10.4814 55.6762 9.04693L55.7488 7.25515L56.1066 7.67461C56.4021 8.0164 56.454 8.20801 56.3918 8.71551L56.3969 8.72069ZM56.9051 8.96926C56.9932 9.13497 57.1384 9.80301 57.2214 10.4607C57.351 11.486 57.3095 12.1903 56.9103 15.515C56.4125 19.663 55.8836 23.2621 55.417 25.6701C55.2562 26.4935 55.1577 27.1978 55.1992 27.2393C55.3755 27.4101 55.5518 26.8819 55.8629 25.2196C56.0496 24.2305 56.2621 23.3553 56.3347 23.2725C56.5214 23.0653 56.4851 23.3035 56.0703 25.1316C55.9355 25.7271 56.3451 25.4009 56.5473 24.7587L56.7288 24.1735L56.7443 24.7846C56.7547 25.2144 56.5992 25.7116 56.2414 26.4314C55.4636 27.9746 53.5089 30.2376 53.8304 29.2175C53.8719 29.0776 54.2504 26.9493 54.6703 24.4739C55.0903 22.0037 55.4896 19.8857 55.5725 19.7562C55.6659 19.6009 55.6866 19.7769 55.6399 20.2741C55.3392 23.2984 55.1888 24.2719 54.7377 26.1621C54.1778 28.4976 54.1518 28.6426 54.3489 28.5184C54.66 28.3268 55.5622 23.9457 55.7851 21.5325C55.9096 20.186 56.1118 18.3891 56.2362 17.5553C56.3607 16.7164 56.4592 15.1369 56.4592 14.0287C56.4592 12.035 56.6095 8.66372 56.6977 8.66372C56.7236 8.66372 56.8169 8.79836 56.9103 8.96408L56.9051 8.96926ZM57.5065 15.7843C57.2162 18.5082 56.8895 20.5693 56.7236 20.7246C56.6043 20.8334 56.5836 20.7816 56.6406 20.5434C56.6873 20.3569 56.9154 18.6428 57.1488 16.7216C57.3821 14.8055 57.5999 13.4384 57.631 13.6869C57.6621 13.9355 57.6051 14.8728 57.5065 15.7843ZM58.1858 16.9805C57.9732 18.6894 57.745 19.5905 57.5636 19.4093C57.4962 19.3419 57.9369 15.168 58.0458 14.8055C58.1028 14.6191 58.1443 14.6243 58.2635 14.8366C58.3621 15.0075 58.3361 15.7221 58.1806 16.9805H58.1858ZM58.8495 16.7578C58.8495 17.0426 58.7406 17.488 58.6265 17.7314C58.4813 18.0318 58.4329 17.9368 58.4813 17.4466C58.5228 17.0426 58.5539 16.5041 58.5539 16.2503C58.5539 15.893 58.585 15.836 58.7043 16.0121C58.7872 16.1312 58.8495 16.4782 58.8495 16.763V16.7578ZM57.5584 21.6568C57.4702 22.2575 57.2836 22.5734 57.1177 22.4076C56.9777 22.2678 57.3302 21.1026 57.5065 21.1026C57.5791 21.1026 57.6051 21.3564 57.5584 21.6568ZM58.5435 21.4962C58.922 21.7603 58.8598 21.8484 58.1547 22.0659C57.8695 22.1539 57.8073 22.1125 57.8073 21.8121C57.8073 21.2114 58.0095 21.1285 58.5435 21.5014V21.4962ZM54.0896 25.6391C53.7215 27.7985 53.3482 29.7405 53.2704 29.9476C52.9748 30.6985 53.0111 29.9321 53.3637 27.7623C53.5659 26.535 53.8148 24.9244 53.9133 24.1839C54.0637 23.0757 54.5096 21.7137 54.717 21.7137C54.7429 21.7137 54.4578 23.49 54.0896 25.6443V25.6391ZM59.6479 22.1487C59.8709 22.2575 60.0576 22.4025 60.0576 22.4646C60.0576 22.5268 59.6324 22.6873 59.1191 22.8168C58.6109 22.9462 58.0354 23.0964 57.8591 23.1482C57.5739 23.2259 57.5428 23.1948 57.6102 22.8634C57.6673 22.5889 57.8747 22.4076 58.3828 22.1901C58.7717 22.0244 59.1139 21.9053 59.1554 21.9209C59.1968 21.9364 59.4198 22.0451 59.6428 22.1539L59.6479 22.1487ZM57.2991 23.0084C57.1488 23.1585 57.0243 22.9359 57.1488 22.7391C57.2421 22.5889 57.2836 22.5889 57.3302 22.7339C57.3614 22.8375 57.351 22.9618 57.2991 23.0135V23.0084ZM64.6878 25.085C65.2218 25.5666 65.5381 26.0119 65.8077 26.6903C66.0099 27.1978 66.1344 27.638 66.0773 27.6587C64.6826 28.0626 57.7399 29.6214 57.631 29.5541C57.3769 29.3935 55.5622 29.2434 55.5622 29.378C55.5622 29.4401 55.4585 29.4971 55.3392 29.4971C55.194 29.4971 55.4014 29.1139 55.9407 28.3941L56.7651 27.291L59.5702 26.5091C63.6974 25.3594 64.0604 25.2455 63.8011 25.1885C63.6715 25.1575 62.0901 25.5459 60.2909 26.0482C58.4917 26.5505 56.9984 26.9441 56.9777 26.9182C56.7755 26.7162 57.5325 26.4055 59.9901 25.6805C63.3034 24.7069 63.2774 24.7173 63.1686 24.6085C63.0908 24.5309 61.1153 25.0746 58.668 25.8307C58.025 26.0326 57.4391 26.1932 57.3614 26.1932C57.1332 26.1932 57.3769 25.608 57.631 25.5355C60.7679 24.6655 62.4219 24.158 62.3752 24.0803C62.339 24.0234 61.4419 24.2357 60.3946 24.5464C58.0561 25.2403 57.5169 25.3594 57.5169 25.1937C57.5169 25.1212 58.0406 24.9037 58.6887 24.7173C62.0797 23.7282 61.8982 23.8007 61.6442 23.5469C61.4264 23.3294 61.2397 23.3605 59.4976 23.9043C57.8954 24.4066 57.5739 24.4687 57.4651 24.2926C57.1591 23.7851 57.5739 23.4537 59.0309 23.0446L60.4412 22.6459L62.1938 23.5314C63.153 24.013 64.2833 24.7173 64.6929 25.0798L64.6878 25.085ZM53.2445 26.2191C52.7363 29.4401 52.4978 30.6571 52.0727 32.1951C51.7253 33.4535 51.2638 34.5307 51.4349 33.6918C51.7201 32.2728 52.3164 28.8964 52.6534 26.8146C52.9956 24.6862 53.3534 23.4848 53.5711 23.7126C53.6022 23.7437 53.4571 24.8675 53.2445 26.2139V26.2191ZM52.2645 27.2082C51.3934 32.6768 50.7609 35.4939 50.4031 35.4939C50.3772 35.4939 50.5172 34.8518 50.7142 34.0543C51.0408 32.7337 52.4149 25.5251 52.4149 25.1264C52.4149 25.0384 52.4564 25.0021 52.503 25.0539C52.5497 25.1057 52.446 26.0741 52.2645 27.2082ZM51.4401 28.8394C51.1445 30.3982 50.6623 32.6819 50.3668 33.9196C49.8846 35.9548 49.7861 36.2189 49.2935 36.7264C48.9928 37.0423 48.7335 37.2598 48.7024 37.2287C48.6713 37.1976 49.0187 35.6648 49.475 33.8212C49.9313 31.9776 50.4809 29.5955 50.6986 28.5287C51.0201 26.9544 51.1705 26.4987 51.4919 26.1621C51.7045 25.9394 51.9119 25.8048 51.9327 25.8773C51.9586 25.9498 51.7356 27.2859 51.4401 28.8446V28.8394ZM50.2475 29.0051C50.0298 30.0616 49.4853 32.4334 49.0343 34.2925C48.3706 37.0164 48.1528 37.7155 47.878 37.9278C47.6965 38.0676 47.4995 38.1919 47.4528 38.1919C47.4062 38.1919 47.5928 37.441 47.8728 36.5141C48.4639 34.5773 49.278 31.1387 49.6357 29.0518C49.8068 28.0626 49.9779 27.5241 50.1957 27.291C50.3616 27.1098 50.5431 26.9855 50.5794 27.0218C50.6157 27.058 50.4653 27.9591 50.2475 29.0051ZM66.5958 28.0005C66.6529 28.0937 66.8292 28.218 67.0106 28.2853C67.2336 28.3734 66.1499 28.6893 63.2256 29.4039C59.145 30.393 59.1191 30.3982 58.6939 30.1289L58.2687 29.8596L61.2294 29.1398C62.8626 28.741 64.6618 28.2957 65.2426 28.1455C66.5336 27.8089 66.4818 27.8141 66.5958 28.0005ZM49.2209 28.6323C49.1742 28.7566 49.138 28.7203 49.1328 28.5443C49.1224 28.3941 49.1587 28.3009 49.2054 28.3475C49.252 28.3941 49.2624 28.5287 49.2209 28.6323ZM48.6661 28.5443C48.6661 28.6685 47.4736 32.6198 46.4729 35.7943C46.0218 37.2339 45.581 38.6373 45.4929 38.9118C45.3581 39.3468 44.8396 39.8128 44.6737 39.6471C44.6426 39.616 44.7826 39.093 44.9951 38.4768C45.2025 37.8657 45.8144 35.7787 46.3536 33.8471C46.8877 31.9155 47.4269 29.9839 47.5462 29.5644C47.6913 29.0569 47.878 28.7462 48.1113 28.6323C48.5002 28.4459 48.6661 28.42 48.6661 28.5443ZM69.318 28.9741C71.506 29.6835 73.5126 31.2993 74.617 33.236C75.9651 35.6026 76.2503 35.9444 77.251 36.426C77.9562 36.7626 78.2569 37.0009 78.4332 37.3737C78.7806 38.0987 78.988 39.9216 78.8791 41.268C78.8221 41.9568 78.848 42.63 78.9309 42.8475C79.0606 43.1789 78.962 43.4378 78.1584 44.8464C76.9243 47.0162 76.3384 47.6532 74.9385 48.3419C73.803 48.9012 73.7926 48.9064 71.392 48.9944C69.9816 49.0462 68.4728 49.1964 67.7469 49.3518C66.6529 49.59 66.3781 49.6003 65.3618 49.4294C64.3559 49.2585 64.247 49.2119 64.4855 49.041C64.89 48.751 64.7085 48.6785 64.0033 48.8546C63.5989 48.953 63.2256 48.9634 62.9612 48.8753C62.5775 48.751 62.6086 48.7251 63.4797 48.5387C64.0656 48.4093 64.4078 48.2643 64.4078 48.14C64.4078 47.8862 64.4959 47.881 62.9819 48.228C62.2767 48.3937 61.3953 48.5284 61.0375 48.5284C60.6798 48.5284 60.0835 48.663 59.7257 48.8235C59.062 49.1187 58.0147 49.186 57.1332 48.9893L56.6821 48.8909L57.2058 48.7925C57.4962 48.7407 59.0517 48.5128 60.6538 48.2901C62.2612 48.0675 63.6093 47.8603 63.6456 47.8344C63.6871 47.8034 63.6559 47.7257 63.5678 47.648C63.4848 47.5703 62.0019 47.7205 59.9746 48.0157C55.8629 48.6164 55.6814 48.6216 54.8311 48.2125L54.157 47.8862L57.9213 47.1768C62.5256 46.3068 62.79 46.2446 62.7278 46.0582C62.6967 45.9701 62.6293 45.9235 62.5567 45.9494C62.3804 46.0064 58.1339 46.8298 55.8525 47.2493L53.8252 47.6221L53.3378 47.2907C53.0682 47.1094 52.8504 46.923 52.8504 46.8712C52.8504 46.7469 61.0116 45.4057 62.1212 45.3487C63.0649 45.2969 63.293 45.1985 63.3811 44.805C63.4434 44.5201 65.4344 42.7646 65.5536 42.8889C65.6107 42.9459 65.3359 43.3239 64.9263 43.7434C64.5167 44.1628 64.2574 44.4943 64.3404 44.4943C64.4233 44.4943 64.8174 44.1628 65.227 43.7434C66.0825 42.8734 66.4247 42.7491 65.7662 43.5466C65.087 44.37 65.3774 44.37 66.1292 43.5466C66.4818 43.1582 66.8188 42.8423 66.8758 42.8423C66.9329 42.8423 66.7047 43.1582 66.3625 43.5466C65.4292 44.603 65.8025 44.5512 66.7773 43.4844C67.244 42.9769 67.8973 42.3348 68.2291 42.0603C68.6698 41.6978 68.5558 41.8739 67.8039 42.7284C67.2077 43.4016 66.8706 43.8884 67.0003 43.8884C67.2802 43.8884 68.8357 42.2416 69.6705 41.0557C70.0179 40.5637 70.3653 40.196 70.4379 40.2426C70.552 40.31 69.9713 41.2214 68.8928 42.6766C68.7009 42.9303 68.5869 43.1737 68.6283 43.2151C68.6698 43.2566 69.1676 42.6455 69.7224 41.8687C70.2772 41.0919 70.832 40.4446 70.946 40.4446C71.2831 40.4446 71.2105 40.5793 70.2875 41.703C69.8105 42.2882 69.3542 42.8682 69.2817 42.9925C68.9913 43.4741 69.6861 42.7801 70.5727 41.703C71.4231 40.6673 71.4905 40.6207 72.2527 40.5171C73.243 40.3825 74.0052 40.0718 74.0052 39.8025C74.0052 39.4348 73.8393 39.4141 73.2119 39.7041C72.5378 40.0148 71.1586 40.1028 71.1586 39.8335C71.1586 39.7403 71.0757 39.6989 70.972 39.7351C70.8683 39.7714 70.5468 39.6834 70.2461 39.5332C69.5824 39.2069 69.4424 39.2898 68.8254 40.3669C68.2343 41.4026 67.5758 42.0551 67.3995 41.7755C67.2958 41.6098 67.2232 41.6305 67.0314 41.905C66.8292 42.1898 66.6581 42.2416 65.9218 42.2416C64.4078 42.2416 62.8626 41.4596 61.9864 40.2478L61.5301 39.6212L62.2197 39.4918C63.2048 39.3053 63.1063 39.0516 62.1004 39.1759C61.3797 39.2639 61.2708 39.2432 61.1308 38.9791C60.9442 38.6321 60.9183 38.6373 62.956 38.3318C63.6922 38.223 64.1122 38.0884 64.1122 37.9693C64.1122 37.8605 63.9982 37.8035 63.8478 37.8346C63.7026 37.8657 62.9352 37.99 62.1212 38.1194C60.7109 38.3421 60.6279 38.3421 59.7672 38.0521C59.2746 37.8864 58.6887 37.7466 58.4554 37.7362C57.7399 37.7103 58.9791 37.5084 61.7271 37.2132C63.8893 36.9801 64.3196 36.9698 64.8537 37.151C65.1959 37.265 65.507 37.41 65.5536 37.4721C65.5951 37.5343 65.2685 37.8243 64.8329 38.1143C64.3974 38.4043 64.133 38.6476 64.247 38.6476C64.3611 38.6476 64.7811 38.4146 65.1855 38.1246C65.7248 37.7362 66.0099 37.6223 66.2899 37.6896C66.5025 37.7414 66.6632 37.8243 66.6632 37.876C66.6632 37.9278 66.2588 38.1971 65.7611 38.4664C65.2633 38.7409 64.8589 39.0309 64.8589 39.1085C64.8589 39.1862 65.367 38.9791 65.984 38.6425C67.6795 37.7103 67.9076 37.9537 66.3314 39.005C65.6107 39.4866 65.0092 39.9475 65.0092 40.0251C65.0092 40.1028 65.6107 39.7559 66.3573 39.2484C67.8402 38.2437 68.1565 38.0832 68.1565 38.3162C68.1565 38.3991 67.6173 38.8444 66.9432 39.3209C66.2692 39.7973 65.7662 40.2064 65.8129 40.2478C65.8596 40.2893 66.4818 39.906 67.1869 39.4037C68.4469 38.5026 69.0328 38.1868 69.4061 38.2075C69.5098 38.2075 69.4787 38.2955 69.3439 38.3939C69.2143 38.4923 68.8202 38.8341 68.4728 39.1448C67.4721 40.051 67.8713 39.9526 68.9239 39.0412C69.4476 38.5855 69.9142 38.2282 69.9713 38.2437C70.132 38.2851 73.2585 35.9393 73.2585 35.7735C73.2585 35.701 72.5845 36.1516 71.7601 36.7782L70.2616 37.9175L70.5779 37.3116C70.7749 36.9387 71.3712 36.3276 72.1541 35.7114C72.8438 35.1676 73.4141 34.655 73.4141 34.5825C73.4141 34.4737 71.9571 35.5457 70.9823 36.3691C70.7697 36.5451 70.7127 36.5141 70.4949 36.0791L70.2461 35.5819L71.3764 34.5566C72.0038 33.9869 72.5067 33.4639 72.5067 33.381C72.5067 33.2982 71.983 33.7073 71.3349 34.2873C69.6861 35.7787 69.6135 35.6234 71.2468 34.0905C71.983 33.4018 72.5326 32.7907 72.4756 32.7285C72.4186 32.6664 71.786 33.1687 71.0808 33.8368C69.9246 34.9294 69.3542 35.2919 69.3542 34.9398C69.3542 34.8725 69.8209 34.3598 70.4068 33.785C70.9927 33.2101 71.4542 32.6871 71.4542 32.5991C71.4542 32.511 71.0342 32.8528 70.5105 33.3551C69.1002 34.7016 68.955 34.8051 68.6802 34.6446C68.4832 34.5307 68.675 34.3028 69.7224 33.4018C70.4275 32.7959 71.0031 32.278 71.0031 32.2573C71.0031 32.0501 70.5209 32.3816 69.4424 33.3396L68.1669 34.4737L66.9692 34.3753C65.5433 34.2562 64.4337 34.4841 63.7908 35.0226C63.4226 35.3334 62.8626 35.4784 60.0264 35.9755C54.8363 36.8869 49.5113 37.7569 49.4542 37.6948C49.4283 37.6689 49.5735 37.498 49.7705 37.3116C50.0764 37.0216 51.3519 36.7368 58.5072 35.3282C63.1115 34.4219 66.9121 33.6555 66.9432 33.6244C67.2284 33.35 65.8025 33.5882 58.782 34.976C54.3592 35.8512 50.709 36.5503 50.6831 36.5244C50.6572 36.4985 50.8542 36.2241 51.1186 35.9082L51.5956 35.3385L55.0022 34.7534C56.8688 34.4323 60.379 33.8626 62.7797 33.4846C65.1803 33.1118 67.1869 32.77 67.2284 32.7285C67.2751 32.6819 67.2751 32.625 67.2284 32.5784C67.1454 32.5007 60.042 33.5882 55.1266 34.4323C53.2963 34.7482 51.8134 34.9812 51.8134 34.9605C51.8134 34.9398 51.9482 34.6912 52.1038 34.4219L52.3941 33.9248L59.0154 32.8218L65.6366 31.7187L65.9373 32.0501C66.1551 32.2884 66.2847 32.335 66.404 32.2159C66.5855 32.0346 66.6581 31.3044 66.4921 31.3044C66.4403 31.3044 66.0566 31.118 65.6211 30.8798L64.8433 30.4551L66.2381 30.191C67.5602 29.9425 68.0113 29.7664 67.8402 29.5851C67.7936 29.5334 66.9432 29.6628 65.9685 29.8648C64.9937 30.0668 63.6715 30.2791 63.0597 30.336C62.4427 30.393 61.4368 30.5432 60.8353 30.6675C60.2338 30.7918 59.6739 30.8332 59.6065 30.7659C59.5339 30.6934 61.2812 30.2118 63.4848 29.6887C65.6885 29.1657 67.5447 28.6841 67.6173 28.6168C67.6847 28.5546 67.8299 28.5184 67.918 28.5443C68.0113 28.5701 68.6439 28.7669 69.3231 28.9896L69.318 28.9741ZM49.0394 29.611C48.8735 30.7451 48.1165 33.9248 47.458 36.2603C46.9862 37.9226 46.7632 38.4923 46.4729 38.7564C46.2603 38.9428 46.0425 39.093 45.9751 39.093C45.9077 39.093 46.3069 37.6637 46.8617 35.9082C47.4165 34.1526 48.1269 31.8689 48.4432 30.8125C48.7594 29.7612 49.0446 28.9016 49.0809 28.9016C49.1172 28.9016 49.0965 29.2175 49.0394 29.6059V29.611ZM47.1002 29.4609C47.0536 29.611 46.5455 31.408 45.9751 33.4743C44.3781 39.2432 44.1085 40.0148 43.5641 40.3203C43.31 40.4653 43.113 40.543 43.113 40.4964C43.113 40.4291 44.9277 33.8885 45.7573 30.9678C46.0529 29.9218 46.2603 29.4712 46.4832 29.3625C46.9654 29.1294 47.1936 29.1657 47.0951 29.4557L47.1002 29.4609ZM45.4514 30.1496C45.0314 31.7653 43.7819 36.0791 43.7404 36.0376C43.6315 35.9289 45.2544 29.8078 45.3892 29.8078C45.4722 29.8078 45.4981 29.958 45.4514 30.1548V30.1496ZM56.4592 29.9425C56.3347 30.015 55.8525 30.1548 55.3703 30.2584C54.8881 30.3619 54.4267 30.5432 54.3178 30.6726C54.157 30.8643 54.1778 30.885 54.4318 30.8073C56.0962 30.2998 57.3925 30.0719 57.7347 30.2273C57.9421 30.3257 58.108 30.4551 58.108 30.5225C58.108 30.5898 57.0295 30.9212 55.6918 31.263L53.2756 31.8844L53.3741 31.4805C53.5296 30.8435 54.1 30.393 55.1214 30.0978C56.1688 29.7923 56.8429 29.7146 56.454 29.9425H56.4592ZM43.7093 34.5514C43.0663 37.0837 42.2678 40.0355 41.936 41.0919C41.4071 42.7853 41.2568 43.096 40.6916 43.676C40.339 44.0385 40.0227 44.3078 39.9968 44.2768C39.9709 44.2457 40.1679 43.443 40.4323 42.516C40.702 41.5787 41.5316 38.425 42.2782 35.5043C43.5641 30.4707 43.6574 30.1859 44.01 30.0875C44.9485 29.8234 44.9588 29.6369 43.7093 34.5514ZM41.9671 34.6343C41.3553 37.0475 40.5049 40.3048 40.0798 41.8843C39.3124 44.7014 39.2916 44.7584 38.8043 44.9862C38.1561 45.2918 38.1147 45.2866 38.3013 44.9448C38.8198 43.9712 40.0642 39.4762 41.1479 34.6394C42.019 30.7607 42.2004 30.305 42.9004 30.2635C43.0145 30.2584 42.6619 31.9051 41.9723 34.6343H41.9671ZM58.8546 31.0766C59.0776 31.3459 59.2487 31.2889 56.0807 32.0243C54.6703 32.3505 53.3482 32.6664 53.1252 32.7234C52.783 32.8114 52.7312 32.7855 52.7934 32.5421C52.8556 32.3143 53.3948 32.1226 55.5985 31.5685C58.7769 30.7659 58.6161 30.7918 58.8495 31.0714L58.8546 31.0766ZM64.6307 31.2164C65.1855 31.3925 65.2011 31.4132 64.8537 31.5012C63.8633 31.755 52.6741 33.5675 52.5963 33.4898C52.3838 33.2775 52.9593 33.0962 56.1533 32.366C62.4064 30.9419 63.3656 30.8125 64.6255 31.2164H64.6307ZM40.1731 36.9491C39.8724 38.2437 39.2605 40.5896 38.8146 42.1328C38.3687 43.676 38.0058 45.0432 38.0058 45.1571C38.0058 45.3539 37.4458 45.618 37.3162 45.4885C37.2851 45.4575 37.5599 44.3493 37.9332 43.0443C38.3065 41.7289 38.8561 39.5539 39.1568 38.1919C39.5768 36.2914 39.8101 35.5509 40.1627 34.9916C40.4168 34.5876 40.6449 34.3339 40.6709 34.4219C40.702 34.51 40.479 35.6441 40.1783 36.9439L40.1731 36.9491ZM68.2291 35.5094C68.9654 35.6907 69.8053 36.3587 69.8053 36.7575C69.8053 36.9076 69.572 37.1096 69.2454 37.2443C68.7009 37.4669 68.6283 37.4618 67.2077 36.9957C66.3988 36.7316 65.7559 36.4934 65.7922 36.4623C65.8233 36.4312 66.3781 36.5451 67.021 36.7109C68.1306 36.9957 68.5402 36.9957 68.2187 36.7109C68.1461 36.6435 67.6484 36.483 67.1091 36.3484C66.5699 36.2137 65.7662 35.9807 65.31 35.8253L64.4855 35.5405L65.1596 35.3748C65.9062 35.1935 67.1973 35.2453 68.2343 35.5043L68.2291 35.5094ZM63.4589 35.9082C63.5108 36.0584 63.6456 36.281 63.7752 36.4312C63.9048 36.5814 63.9619 36.6953 63.91 36.6953C63.8582 36.6953 62.3804 36.8766 60.6227 37.0993C58.8702 37.3219 56.7184 37.5084 55.8525 37.5135C54.5459 37.5187 54.2711 37.5601 54.2348 37.7518C54.1985 37.933 53.5245 38.0884 51.0927 38.456C49.3816 38.715 47.9765 38.9118 47.9506 38.891C47.9247 38.8703 48.1165 38.6994 48.3861 38.5026C48.7957 38.2023 49.8016 37.99 55.3237 37.0475C58.8806 36.4416 62.0849 35.8875 62.453 35.8098C62.8263 35.7373 63.1841 35.67 63.2463 35.6596C63.3137 35.6493 63.4071 35.758 63.4537 35.9082H63.4589ZM43.6626 36.5762C43.6159 36.7005 43.5796 36.6643 43.5745 36.4882C43.5641 36.338 43.6004 36.2448 43.6522 36.2914C43.6989 36.338 43.7093 36.4726 43.6678 36.5762H43.6626ZM38.3013 39.4814C37.6221 42.3866 36.7251 45.5196 36.5021 45.7423C36.2844 45.965 36.3206 45.6543 36.6473 44.3648C36.808 43.7278 37.2176 41.8687 37.5547 40.2219C38.0369 37.8864 38.2443 37.1562 38.4983 36.8818C38.6798 36.685 38.8457 36.5918 38.8717 36.6746C38.8976 36.7523 38.6383 38.0159 38.2961 39.4814H38.3013ZM43.5122 37.1769C43.4656 37.3012 43.4345 37.265 43.4241 37.0889C43.4137 36.9387 43.45 36.8455 43.4967 36.8921C43.5433 36.9387 43.5537 37.0734 43.5122 37.1769ZM37.1191 40.7864C36.1132 45.4885 35.9162 46.1203 35.4288 46.1307C35.377 46.1307 35.5325 45.3746 35.771 44.4476C36.0095 43.5207 36.4503 41.6823 36.751 40.3669C37.2591 38.135 37.5443 37.3271 37.6791 37.731C37.7102 37.8191 37.4562 39.2018 37.1191 40.7864ZM43.2115 38.223C43.1648 38.3473 43.1337 38.311 43.1234 38.135C43.1182 37.9848 43.1493 37.8916 43.1959 37.9382C43.2426 37.9848 43.253 38.1194 43.2115 38.223ZM58.9324 38.425C59.2591 38.5648 55.6348 39.15 48.8061 40.0614C46.6336 40.3514 44.7774 40.6621 44.6892 40.7553C44.5752 40.8744 44.8033 40.8951 45.5085 40.8226C46.8462 40.688 52.1038 40.0096 52.5134 39.9164C52.8037 39.8543 52.8556 39.9112 52.8556 40.2841C52.8556 40.5689 52.7571 40.7553 52.586 40.8071C52.3734 40.8693 49.392 41.2887 44.964 41.8739C44.3626 41.9516 44.347 41.9412 44.2537 41.4751C44.1967 41.2059 44.2174 40.9262 44.29 40.833C44.3626 40.745 45.0937 40.3462 45.9025 39.9578C47.318 39.2743 47.515 39.2225 50.6779 38.7305C53.5867 38.2748 54.2504 38.2178 56.3036 38.2593C57.5791 38.2851 58.7613 38.3628 58.9272 38.4301L58.9324 38.425ZM36.7251 38.5959C34.8844 46.5968 34.9985 46.2291 34.2466 46.431C33.8993 46.5243 33.5985 46.5657 33.557 46.5191C33.3496 46.3119 33.9304 45.24 34.594 44.6185C35.3718 43.8884 35.4496 43.6243 35.0762 42.9976C34.8429 42.6144 34.8585 42.5109 35.3822 40.8019C35.7658 39.5435 36.0407 38.9118 36.3051 38.6735C36.7562 38.2696 36.8028 38.2593 36.7303 38.5907L36.7251 38.5959ZM42.7293 40.0096C42.5115 40.776 42.2626 41.5114 42.1797 41.6357C42.0501 41.8325 42.0397 41.8325 42.0967 41.6357C42.133 41.5114 42.3508 40.7605 42.5841 39.9526C42.8174 39.1448 43.03 38.5182 43.0663 38.5493C43.0974 38.5803 42.9471 39.2484 42.7293 40.0096ZM60.4412 39.0878C60.7835 39.4659 60.9494 39.4193 57.1384 40.0562C53.3119 40.6984 53.343 40.6984 53.3689 40.2116C53.3793 40.0044 53.3897 39.8284 53.3897 39.8232C53.3897 39.7973 59.5702 38.8237 59.8553 38.8082C60.0368 38.7978 60.2857 38.9169 60.4412 39.0878ZM35.0918 40.8796C34.6459 42.2105 34.48 42.5368 34.2518 42.5368C33.8785 42.5368 33.8941 42.4021 34.4281 40.7968C34.7651 39.7921 34.9725 39.3934 35.2111 39.2743C35.3925 39.1862 35.5636 39.1396 35.5947 39.1707C35.6259 39.2018 35.3977 39.963 35.0918 40.8796ZM34.0237 40.4653C33.6296 41.7962 33.4741 42.0914 33.2356 41.9464C33.0437 41.8273 33.0489 41.6926 33.2874 40.9107C33.5311 40.1184 33.7281 39.8646 34.2259 39.6937C34.2415 39.6885 34.1533 40.0303 34.0289 40.4601L34.0237 40.4653ZM60.9649 39.8128C60.9649 39.8853 61.2345 40.2478 61.5819 40.6362L62.199 41.3353H61.5456C61.1879 41.3457 59.3161 41.47 57.3976 41.6098C54.1881 41.8532 53.8874 41.8532 53.6852 41.6305C53.146 41.035 53.3171 40.9676 57.0969 40.3307C59.1087 39.9889 60.7938 39.7093 60.856 39.6989C60.9234 39.6885 60.9701 39.7351 60.9701 39.8128H60.9649ZM69.4839 40.6725C68.8098 41.615 68.7113 41.615 69.2661 40.6725C69.5305 40.2219 69.7898 39.8957 69.852 39.9319C69.9142 39.9682 69.7483 40.2996 69.4839 40.6725ZM32.9711 40.9107C32.8415 41.3457 32.6756 41.8221 32.603 41.9619C32.4578 42.2312 32.1675 42.3296 32.1675 42.1121C32.1675 41.8946 32.6652 40.5068 32.8156 40.3151C33.1267 39.9164 33.1941 40.165 32.9763 40.9159L32.9711 40.9107ZM31.8719 41.5269C31.649 42.2001 31.4623 42.5264 31.2549 42.573C31.089 42.6144 30.9645 42.6351 30.9645 42.6196C30.9645 42.4228 31.7838 40.6362 31.9082 40.5534C32.2038 40.3669 32.1986 40.5378 31.8719 41.5269ZM31.1875 40.9935C31.1305 41.1385 30.949 41.6098 30.7883 42.0396C30.6275 42.4746 30.3631 42.8993 30.2024 42.9821C29.9224 43.1323 29.9224 43.1116 30.2231 42.3451C30.3942 41.9101 30.6068 41.3664 30.6897 41.1385C30.7727 40.9159 30.9438 40.7243 31.0631 40.7243C31.2186 40.7243 31.2549 40.8071 31.1823 40.9884L31.1875 40.9935ZM29.8861 42.1691C29.3676 43.4585 29.3365 43.5103 29.2483 43.4119C29.2172 43.3809 29.3728 42.9148 29.6009 42.3762C29.8238 41.8376 30.052 41.2732 30.109 41.1178C30.1661 40.9676 30.249 40.8693 30.2905 40.9055C30.332 40.9469 30.1505 41.5218 29.8913 42.1639L29.8861 42.1691ZM28.2683 41.3975C28.1906 41.5994 27.9417 42.1225 27.7239 42.5575C27.501 42.9976 26.6299 44.893 25.7795 46.7987C24.7322 49.1498 24.1566 50.258 23.9804 50.2943C23.773 50.3357 23.7367 50.2735 23.8144 49.9732C23.9648 49.388 25.7692 45.1209 26.4484 43.7434C26.9565 42.7076 27.0032 42.5523 26.7336 42.6973C26.3914 42.8785 25.4425 44.8257 24.1411 48.0312C23.6589 49.2171 23.2078 50.1751 23.1248 50.1751C23.0419 50.1751 23.0211 50.0871 23.0678 49.9784C23.4878 49.0048 25.7121 43.4068 25.7121 43.3291C25.7121 43.2669 25.6396 43.298 25.5307 43.4016C25.1107 43.821 25.0848 43.5518 25.5047 43.1012C25.7536 42.8319 26.184 42.2985 26.438 41.9412C26.6921 41.5787 26.9151 41.3768 26.9202 41.4907C26.9202 41.615 26.998 41.5684 27.0914 41.3716C27.221 41.1075 27.3817 41.035 27.8328 41.035C28.3876 41.035 28.4032 41.0505 28.2683 41.4026V41.3975ZM29.0617 42.2675C28.7713 42.9407 28.4913 43.6035 28.4446 43.7278C28.398 43.8521 28.1232 44.1991 27.838 44.4994C27.3921 44.9655 27.3247 45.1209 27.3869 45.5507C27.4439 45.9339 27.2988 46.4103 26.7699 47.5496C26.3914 48.373 26.0232 49.0721 25.9507 49.098C25.8832 49.1239 25.6966 49.4501 25.5462 49.8075C25.3803 50.1959 25.1729 50.4651 25.0277 50.4651C24.7477 50.4651 24.81 50.1493 25.261 49.2534C25.4166 48.9478 25.9507 47.7723 26.4588 46.633C28.3409 42.3918 29.0357 41.0298 29.3209 41.0298C29.5594 41.0298 29.5283 41.1696 29.0617 42.2675ZM53.0734 41.8998C53.0734 41.8998 51.4245 42.1069 49.4594 42.3037C47.4943 42.5005 45.5292 42.7025 45.0937 42.7439C44.3885 42.8164 44.3055 42.7957 44.3055 42.5316C44.3055 42.2985 44.4352 42.2209 44.9433 42.1587C45.2959 42.1121 47.1988 41.8584 49.1794 41.5891L52.7778 41.1023L52.9437 41.4751C53.0371 41.6875 53.0941 41.8687 53.0734 41.8946V41.8998ZM62.7486 41.8118C63.0182 41.9775 62.9871 42.0293 62.2819 42.5005C61.8619 42.7801 61.5612 43.0443 61.6079 43.0857C61.6545 43.1271 61.9916 42.951 62.3649 42.6921C63.0389 42.2209 63.5056 42.0966 63.5056 42.3814C63.5056 42.4643 63.236 42.7076 62.9041 42.9303C62.5723 43.1478 62.3027 43.386 62.3027 43.4637C62.3027 43.6243 62.4064 43.5725 63.3085 42.9614C64.5218 42.138 64.6204 42.5316 63.4278 43.4585C62.5256 44.1576 62.2612 44.6237 63.1271 43.9712C63.4122 43.7589 63.8945 43.4016 64.1796 43.1893C65.087 42.5109 65.0663 42.8785 64.1485 43.676C63.1271 44.5616 62.4012 44.8205 61.4316 44.6393C60.5294 44.4684 60.5086 44.37 61.3123 44.1732C61.6856 44.08 62.0434 43.935 62.0953 43.8521C62.3078 43.5207 61.8671 43.4689 60.9338 43.7278C60.3479 43.8884 59.8553 43.9505 59.7361 43.8728C59.4768 43.7175 59.7205 43.6139 60.4983 43.5518C61.4419 43.4741 60.9805 43.2151 59.9901 43.2669C59.1657 43.3084 59.0102 43.2773 58.8754 43.0184C58.725 42.7387 58.7769 42.7128 59.679 42.6196C60.5812 42.5264 60.9753 42.3607 60.7005 42.195C60.6331 42.1535 59.4042 42.2882 57.9628 42.4901C55.4585 42.8423 55.3185 42.8475 54.774 42.6041C54.4578 42.4643 54.2452 42.3089 54.2918 42.2623C54.3644 42.1898 60.3375 41.7185 61.8827 41.6668C62.199 41.6564 62.5826 41.7289 62.7434 41.8273L62.7486 41.8118ZM43.2582 41.9309C43.2582 42.0189 43.1908 42.081 43.1026 42.081C43.0145 42.081 42.9834 42.0189 43.0352 41.9309C43.0871 41.8428 43.1545 41.7807 43.1908 41.7807C43.2271 41.7807 43.2582 41.8428 43.2582 41.9309ZM4.66625 44.0593C4.86846 44.2871 4.86328 44.3959 4.61958 45.0691C4.46922 45.4885 4.3033 45.8251 4.24626 45.8251C3.97664 45.8251 3.98183 45.4937 4.27219 44.836C4.44329 44.4476 4.54181 44.0955 4.49514 44.0489C4.44848 44.0023 4.3033 44.2509 4.1633 44.5978C3.8522 45.3953 3.59814 45.271 3.88331 44.4632C4.17886 43.6243 4.13738 43.3809 3.81591 44.1007C3.48925 44.836 3.28185 44.5668 3.50999 43.7123C3.66036 43.1582 3.60851 42.6559 3.45296 43.1426C3.41666 43.2566 3.34926 43.4585 3.31296 43.5776C3.27148 43.7019 3.23 43.5155 3.22482 43.1737C3.19889 42.0344 3.34926 41.9826 3.91961 42.9355C4.20478 43.4171 4.54181 43.9194 4.66625 44.0593ZM53.7682 42.5937L54.1985 42.951L53.7163 43.0391C53.1719 43.1375 47.8521 43.8159 46.0373 44.0178C45.3788 44.0903 44.7877 44.1059 44.7307 44.0541C44.6737 44.0023 44.5803 43.7693 44.5285 43.5466C44.4455 43.1841 44.4766 43.1323 44.7929 43.1219C45.0833 43.1116 52.7882 42.3193 53.2082 42.2571C53.286 42.2468 53.5296 42.3969 53.7682 42.5989V42.5937ZM43.2634 42.6818C43.2634 42.8993 43.1597 42.9821 42.89 42.9821C42.4856 42.9821 42.4182 42.8371 42.693 42.5626C42.9678 42.2882 43.2634 42.3503 43.2634 42.6818ZM33.0385 43.386C33.0126 43.5155 32.826 43.733 32.6289 43.8573C32.2815 44.08 32.2712 44.0748 32.3852 43.7123C32.5563 43.1737 33.1371 42.8785 33.0334 43.3809L33.0385 43.386ZM58.3413 43.2825C58.3932 43.3653 58.2532 43.4275 58.0095 43.4223C57.6362 43.4171 57.6206 43.4016 57.8902 43.2825C58.0561 43.21 58.2013 43.1426 58.2221 43.1375C58.2376 43.1375 58.2895 43.1893 58.3413 43.2825ZM43.4759 43.7537C43.5226 44.0075 43.5485 44.2405 43.5278 44.256C43.507 44.2716 42.9523 44.3337 42.2886 44.3907L41.0908 44.4943L41.6819 43.8884C42.1641 43.3964 42.3767 43.2825 42.8278 43.2825C43.3256 43.2825 43.393 43.3343 43.4708 43.7537H43.4759ZM55.8525 43.5207C55.8888 43.5569 55.8836 43.5984 55.8525 43.6294C55.671 43.7744 45.2907 44.7584 45.1714 44.6444C45.0003 44.4735 44.8551 44.4994 50.1646 43.821C53.763 43.3653 55.6088 43.2669 55.8525 43.5207ZM32.1052 43.6709C32.0534 43.8055 32.0171 43.966 32.0171 44.0385C32.0171 44.111 31.8719 44.2405 31.6956 44.3389C31.3949 44.4994 31.3793 44.4839 31.4779 44.0903C31.5816 43.6864 31.7993 43.443 32.0586 43.4326C32.1364 43.4326 32.1519 43.5362 32.1052 43.6709ZM23.747 46.9385C22.6167 49.8126 22.3626 50.3305 22.1552 50.113C22.1138 50.0716 22.5337 48.9737 23.0834 47.6687C24.4989 44.3285 24.7996 43.6709 24.8877 43.7589C24.9292 43.8003 24.4159 45.2244 23.747 46.9334V46.9385ZM58.8495 43.9401C59.088 44.2405 58.922 44.2819 55.3807 44.7843C51.7823 45.2969 51.606 45.3073 51.3623 45.0069C51.0979 44.6807 50.4186 44.7273 49.2313 45.1571C48.6609 45.3643 47.9454 45.5248 47.6395 45.5196C46.9965 45.5041 45.7159 45.126 46.1825 45.0846C46.4003 45.0639 57.0554 43.9143 58.5124 43.7537C58.6058 43.7434 58.7509 43.8262 58.8443 43.9453L58.8495 43.9401ZM31.0319 44.2094C30.9179 44.5668 30.7001 44.7635 30.4098 44.7687C30.1453 44.7687 30.1712 44.3907 30.4564 44.111C30.8246 43.7485 31.1616 43.8055 31.0371 44.2094H31.0319ZM29.5698 44.8826C29.435 45.0173 29.2742 45.095 29.2328 45.0484C29.1861 45.0018 29.2639 44.8464 29.3987 44.7118C29.5335 44.5771 29.689 44.4994 29.7357 44.546C29.7824 44.5926 29.7046 44.748 29.5698 44.8826ZM79.8383 45.4523C80.2272 46.6382 80.2738 48.1555 79.9316 48.6423C79.802 48.8287 79.4909 49.0255 79.2213 49.0928C78.905 49.1705 78.7235 49.3207 78.6976 49.5278C78.6613 49.7816 78.008 50.1234 75.4 51.2678C73.6163 52.0498 71.0083 53.1476 69.6239 53.7018C68.0787 54.3232 67.1558 54.7634 67.2388 54.8462C67.4202 55.0275 71.6616 53.4428 75.5192 51.7546C77.1214 51.0503 78.4954 50.4703 78.5628 50.4703C78.7546 50.4703 78.6872 51.0244 78.4384 51.5475C78.2361 51.9669 78.008 52.1171 76.8984 52.5521C76.1829 52.8318 74.5133 53.5153 73.1911 54.0643L70.7905 55.0689L65.2944 55.421L59.7983 55.7732L58.9272 55.3796C57.885 54.9084 57.8902 54.9032 60.742 54.6753C62.7952 54.5096 63.1789 54.5251 63.8633 54.7996C64.4492 55.0326 64.4752 55.0275 65.0196 54.5769C65.367 54.2869 65.5899 54.2093 65.8907 54.2662C66.264 54.3387 67.4047 54.1109 67.5654 53.9296C67.6069 53.8778 68.5143 53.448 69.5928 52.956C71.3608 52.1534 77.4532 49.1653 77.6036 49.0255C77.6399 48.9944 77.6347 48.9375 77.588 48.896C77.5465 48.8546 75.8614 49.6262 73.8548 50.605C68.4417 53.2409 66.8447 53.9193 66.0566 53.9193C65.424 53.9193 65.3877 53.8934 65.2166 53.36C65.1129 53.0441 65.0507 52.8007 65.0663 52.8007C65.0818 52.8007 66.4818 52.1068 68.1773 51.2575C71.1016 49.7919 71.3038 49.7143 72.0712 49.7609L72.88 49.8075L71.0134 50.781C69.992 51.3144 68.6335 51.9928 68.0217 52.2776C66.6995 52.8887 66.7566 52.8576 66.8655 52.9664C66.9692 53.07 70.8268 51.2419 72.2371 50.4134C72.7608 50.1078 73.6163 49.735 74.1296 49.59C76.1103 49.0359 77.4791 47.8707 78.6717 45.7164C79.045 45.0432 79.3924 44.4891 79.4391 44.4891C79.4857 44.4891 79.6724 44.9241 79.8487 45.4626L79.8383 45.4523ZM5.46474 44.8619C5.46474 44.893 5.29363 45.3021 5.08105 45.7837C4.81661 46.3844 4.66106 46.5916 4.5781 46.4569C4.40181 46.1721 5.01883 44.6393 5.26771 44.7325C5.37141 44.7739 5.46474 44.8309 5.46474 44.8619ZM22.7878 47.2078C21.5538 50.2062 21.4397 50.4289 21.0508 50.6309C20.7605 50.781 20.7553 50.7707 20.9679 50.2943C21.0871 50.025 21.6367 48.751 22.1863 47.4771C23.1093 45.3332 23.5604 44.5201 23.7211 44.691C23.7626 44.7325 23.3426 45.8614 22.7878 47.2078ZM43.8596 44.7687C43.8596 44.9189 43.1545 45.0328 41.3864 45.1726C40.3649 45.2503 40.2146 45.2348 40.3857 45.0535C40.6553 44.7687 43.8648 44.5046 43.8648 44.7687H43.8596ZM60.042 44.8464C60.4516 45.0691 60.5242 45.0535 55.0333 45.9753C52.5445 46.3896 52.4771 46.3948 52.1971 46.1307C51.8238 45.7734 51.6993 45.8044 55.2562 45.328C56.8636 45.1105 58.3828 44.8723 58.6317 44.7998C59.2746 44.6082 59.622 44.6185 60.042 44.8464ZM6.0662 45.3901C6.34619 45.5403 6.34619 45.5766 5.90546 46.4466C5.43881 47.3735 5.26252 47.5134 5.09142 47.0732C5.00327 46.8505 5.53733 45.2296 5.69806 45.2296C5.73954 45.2296 5.90028 45.2969 6.0662 45.385V45.3901ZM22.3575 45.5766C21.5382 47.5082 20.5686 49.8851 20.4027 50.3719C20.2264 50.895 20.0968 51.0348 19.625 51.1901C19.3087 51.2937 19.0339 51.3507 19.0028 51.3196C18.8887 51.2057 21.253 45.6853 21.419 45.6853C21.4604 45.6853 21.3205 46.0737 21.1079 46.5553C20.496 47.9328 19.5627 50.3771 19.5627 50.5998C19.5627 51.1746 19.9775 50.4962 20.6827 48.7562C21.8493 45.8821 22.0878 45.385 22.2797 45.385C22.3678 45.385 22.4093 45.473 22.3626 45.5818L22.3575 45.5766ZM33.5 45.561C33.4741 46.0271 33.0956 46.7366 32.7171 47.0369C32.2452 47.4046 32.2141 47.2855 32.5512 46.4C32.7897 45.7837 33.1215 45.3798 33.3911 45.3798C33.4637 45.3798 33.5052 45.4523 33.5 45.561ZM44.01 45.675C44.01 45.8407 43.9581 46.0012 43.8907 46.0426C43.8233 46.0841 42.5945 46.2239 41.1686 46.3585C39.022 46.5553 38.545 46.5657 38.4465 46.4051C38.1509 45.9287 40.2612 45.4885 43.2322 45.4057C43.9063 45.385 44.01 45.4264 44.01 45.675ZM6.95283 46.0323C6.95283 46.1255 6.72469 46.633 6.46026 47.156C6.02472 48.0105 5.95213 48.083 5.76028 47.85C5.57881 47.6273 5.6151 47.4771 6.06101 46.6537C6.38248 46.053 6.64173 45.7371 6.76617 45.7837C6.86987 45.8251 6.95801 45.9391 6.95283 46.0323ZM20.7086 46.0168C20.662 46.1203 20.3197 46.8919 19.9464 47.7464C19.5679 48.6009 19.1013 49.7712 18.8939 50.3668C18.6917 50.9675 18.4532 51.4698 18.3598 51.4957C18.0902 51.5837 18.1783 51.2937 19.205 48.7148C20.2316 46.1359 20.3872 45.8251 20.6412 45.8251C20.7242 45.8251 20.7553 45.908 20.7086 46.0116V46.0168ZM32.1623 45.9494C32.1623 46.0064 31.9497 46.7003 31.6904 47.4771C31.3742 48.4351 31.0786 49.0255 30.7986 49.2896C30.3994 49.6625 29.3883 50.056 28.3254 50.2632L27.8484 50.3564L28.652 48.4403C29.2535 47.0007 29.5387 46.4932 29.7824 46.3948C29.9638 46.3275 30.1609 46.286 30.2179 46.3068C30.306 46.343 29.6009 48.4248 29.0979 49.621C28.932 50.0146 29.2742 49.9525 29.492 49.5485C29.5957 49.3569 29.9275 48.5284 30.2335 47.705C30.5809 46.7625 30.8764 46.1876 31.0268 46.1618C31.2186 46.1255 31.1564 46.431 30.6897 47.7775C30.3735 48.6889 30.1868 49.4139 30.2749 49.388C30.3631 49.3621 30.7053 48.5957 31.0319 47.6946C31.3586 46.7935 31.6904 46.0064 31.7734 45.9494C31.986 45.8044 32.1623 45.8044 32.1623 45.9494ZM17.8361 46.1618C17.9658 46.2912 15.451 51.3766 15.254 51.3766C15.1503 51.3766 15.057 51.3041 15.057 51.2212C15.057 51.1384 15.5962 49.9473 16.2495 48.6009C16.9028 47.2544 17.3799 46.1359 17.3073 46.1359C17.0791 46.1359 16.7473 46.7366 15.6999 49.01C15.1555 50.1959 14.6992 51.1746 14.6785 51.1953C14.6214 51.2626 13.7089 50.9105 13.7089 50.8225C13.7089 50.7707 14.3155 49.735 15.0673 48.5076C15.8192 47.2803 16.3792 46.2084 16.3221 46.11C16.2443 45.9857 16.4362 45.9598 16.991 46.0116C17.411 46.053 17.7998 46.1203 17.8361 46.1618ZM19.9879 46.1151C19.962 46.1876 19.4642 47.4357 18.8887 48.8857C17.945 51.2523 17.7998 51.5216 17.4836 51.5216C17.2865 51.5216 17.1517 51.475 17.1828 51.418C17.4991 50.7655 17.8465 49.9369 18.5154 48.228C18.9509 47.1198 19.3813 46.1566 19.4694 46.0944C19.6924 45.9443 20.0449 45.9598 19.9879 46.1151ZM51.0201 46.2809C51.1808 46.5398 51.1342 46.576 50.4861 46.6641C50.092 46.7159 49.4335 46.8091 49.0031 46.8764C47.8573 47.0421 47.9091 46.7314 49.0913 46.343C50.3668 45.9235 50.792 45.9132 51.0201 46.286V46.2809ZM7.70984 46.4362C7.70984 46.5035 7.46614 47.011 7.1706 47.5548C6.73506 48.3471 6.58988 48.5076 6.41878 48.373C6.24249 48.228 6.29952 48.026 6.75062 47.1768C7.11875 46.4725 7.35726 46.1773 7.50244 46.2343C7.62169 46.2809 7.71502 46.3689 7.71502 46.4466L7.70984 46.4362ZM14.834 48.1866C14.1392 49.3259 13.5222 50.3305 13.4548 50.4341C13.3719 50.5635 13.2682 50.5791 13.1178 50.4859C12.9363 50.3771 12.9882 50.1855 13.3978 49.4087C14.6629 47.011 15.0311 46.4828 15.5392 46.3171C15.8088 46.2291 16.0473 46.1514 16.0629 46.141C16.0784 46.1307 15.5288 47.0473 14.834 48.1866ZM18.8939 46.3896C18.842 46.5346 18.3443 47.7516 17.7895 49.0876C16.7888 51.5164 16.7836 51.5216 16.2962 51.5216H15.8088L16.0992 51.0451C16.2651 50.7759 16.3636 50.5221 16.3325 50.4703C16.3014 50.4185 16.7369 49.4191 17.3073 48.2539C18.1628 46.5035 18.3961 46.1359 18.6657 46.1359C18.9042 46.1359 18.9613 46.2032 18.8887 46.4L18.8939 46.3896ZM27.3091 48.4818C26.8114 49.6521 26.3966 50.4185 26.2514 50.4444C26.1166 50.4703 26.0129 50.4651 26.0129 50.4289C26.0129 50.1907 28.0143 46.2394 28.0661 46.3844C28.1024 46.4828 27.7602 47.4357 27.3091 48.4818ZM28.9631 46.6226C27.558 50.1751 27.2625 50.7344 26.9721 50.4444C26.8269 50.2994 28.6209 46.431 28.8283 46.431C28.9476 46.431 29.0046 46.5139 28.9631 46.6278V46.6226ZM46.8151 46.5191C47.0121 46.5709 47.1625 46.721 47.1625 46.8712C47.1625 47.0732 46.981 47.156 46.3692 47.2285C44.9433 47.3994 44.7618 47.3684 44.7618 46.9541C44.7618 46.7003 44.8603 46.576 45.0937 46.5346C45.6329 46.431 46.4573 46.4259 46.8203 46.5191H46.8151ZM8.46166 46.6537C8.46166 46.6951 8.22834 47.1923 7.93798 47.7775C7.36763 48.9168 7.34689 48.9737 7.56466 48.9737C7.64762 48.9737 7.94835 48.5076 8.23871 47.9225C8.71573 46.9644 8.99572 46.7003 9.26015 46.9644C9.31719 47.0214 9.08386 47.5807 8.74165 48.1918C8.38389 48.8339 8.2076 49.2844 8.32685 49.2378C8.44092 49.1964 8.80387 48.6941 9.13053 48.1089C9.47274 47.4926 9.79939 47.0835 9.90309 47.1198C10.1157 47.2026 8.94387 49.5641 8.6898 49.5693C8.37352 49.5693 6.9632 48.8339 6.9632 48.6682C6.9632 48.3264 8.04168 46.5709 8.25426 46.5709C8.37352 46.5709 8.46685 46.6019 8.46685 46.6434L8.46166 46.6537ZM14.3466 47.213C14.1859 47.4823 13.7659 48.2384 13.4081 48.896C13.0556 49.5537 12.7497 50.113 12.7341 50.1337C12.7185 50.1544 12.5941 50.1337 12.4541 50.0819C12.2415 50.0043 12.3193 49.7816 12.9726 48.5543C13.7555 47.0887 14.0407 46.7262 14.4244 46.7262C14.5851 46.7262 14.5644 46.8401 14.3414 47.213H14.3466ZM43.8596 47.0991C43.8596 47.5237 43.7974 47.5393 41.2516 47.7723C39.1361 47.9639 39.2554 47.9794 39.0065 47.503L38.7939 47.0991L40.5412 46.9334C41.5005 46.8453 42.6412 46.7573 43.0767 46.7469C43.813 46.7262 43.8648 46.7469 43.8648 47.0991H43.8596ZM12.5837 48.4455C12.2 49.1498 11.8475 49.6987 11.806 49.6573C11.7645 49.6159 12.0497 48.9996 12.4334 48.2953C12.8171 47.591 13.1696 47.0421 13.2111 47.0835C13.2526 47.125 12.9674 47.7412 12.5837 48.4455ZM51.9586 47.3943L52.3008 47.7568L51.943 47.8344C51.4453 47.9432 48.5935 48.373 48.3706 48.373C48.2617 48.373 48.2098 48.1866 48.2358 47.8862C48.2669 47.5617 48.6575 47.3442 49.4076 47.2337C51.2379 46.9593 51.5645 46.9851 51.9638 47.3994L51.9586 47.3943ZM10.6186 48.1814C10.3127 48.7355 9.99642 49.2793 9.91346 49.388C9.7631 49.5848 9.2083 49.6418 9.2083 49.4657C9.2083 49.4139 9.48311 48.8753 9.81495 48.2746C10.3179 47.3632 10.4838 47.1716 10.7949 47.1716H11.1682L10.6134 48.1814H10.6186ZM11.5934 47.7412C10.7275 49.1653 10.5512 49.4191 10.4112 49.4191C10.1935 49.4191 10.2038 49.388 10.8727 48.2332C11.2097 47.648 11.5934 47.1716 11.7127 47.1716C11.8889 47.1716 11.863 47.2907 11.5934 47.7412ZM12.4904 47.2907C11.9564 48.5957 11.0075 49.8593 11.0075 49.2689C11.0075 49.0151 12.2208 47.1716 12.3867 47.1716C12.4748 47.1716 12.5163 47.2182 12.4852 47.2907H12.4904ZM47.3076 47.995C47.3076 48.4455 47.0225 48.5957 45.9284 48.72C45.0885 48.8132 45.0522 48.8028 44.9122 48.43C44.684 47.8396 44.7152 47.7982 45.4048 47.736C47.1573 47.5755 47.3076 47.5962 47.3076 47.995ZM43.9011 48.4093C43.9426 48.6785 43.9581 48.9168 43.9374 48.9426C43.8752 49.01 41.0079 49.4087 40.5464 49.4191C40.2561 49.4191 40.0538 49.2896 39.8361 48.9426C39.665 48.6734 39.5509 48.4351 39.582 48.4041C39.6235 48.3575 42.4234 48.0364 43.59 47.9432C43.7507 47.9276 43.8544 48.083 43.9063 48.4093H43.9011ZM53.2289 48.4766L53.8304 48.8805L50.9268 49.3103C49.335 49.5434 47.9973 49.7091 47.9661 49.678C47.9299 49.6418 47.9765 49.4243 48.0647 49.1705C48.2202 48.7251 48.2358 48.72 50.2009 48.4196C51.2949 48.2539 52.2801 48.1089 52.4045 48.0985C52.5289 48.0882 52.8971 48.2591 53.2289 48.4818V48.4766ZM47.0069 49.1187C47.0069 49.3466 46.4521 49.8696 46.2136 49.8696C46.0944 49.8696 45.8144 49.7194 45.5759 49.533L45.1507 49.1964L45.6018 49.098C46.3069 48.9426 47.0121 48.9582 47.0121 49.1187H47.0069ZM44.3833 49.6573C44.5181 49.8696 44.6011 50.0819 44.5648 50.1234C44.5233 50.1648 43.7922 50.2891 42.9367 50.403C41.4953 50.5894 41.3605 50.5843 41.0183 50.3409C40.8264 50.201 40.6242 50.0043 40.5983 49.9214C40.5672 49.8282 41.236 49.6676 42.2419 49.533C43.17 49.4035 43.9789 49.2948 44.0359 49.2844C44.0878 49.2741 44.2537 49.4501 44.3885 49.6573H44.3833ZM55.137 49.445C55.4533 49.5382 55.7073 49.6625 55.7073 49.7194C55.7073 49.8903 48.4017 51.1901 46.0321 51.4387C45.5396 51.4905 44.7152 51.6044 44.2018 51.6925C43.3152 51.8426 43.2322 51.8271 42.5115 51.4387C42.0915 51.2109 41.7753 51.0037 41.8012 50.9726C41.8271 50.9416 42.5686 50.8276 43.45 50.7085C44.7566 50.5376 45.1611 50.5376 45.6122 50.693C46.2136 50.9001 46.8721 50.7914 47.2921 50.4185C47.4373 50.2891 48.6869 50.025 50.4549 49.7557C53.8148 49.243 54.3333 49.2119 55.137 49.4501V49.445ZM61.2397 49.4709C61.2086 49.5019 60.9079 49.5693 60.5812 49.6262C60.1457 49.7039 60.042 49.6884 60.2079 49.5796C60.405 49.445 61.3901 49.3414 61.2449 49.4709H61.2397ZM63.7285 49.9007C64.2937 50.0664 64.0604 50.1234 59.5287 50.8691C50.3668 52.376 46.4936 52.868 46.898 52.4744C46.9395 52.433 47.7069 52.2984 48.6091 52.1741C51.4297 51.7857 56.874 50.7862 59.5287 50.1751C62.0953 49.5848 62.5515 49.5537 63.7285 49.9007ZM69.9557 50.1078C68.7995 50.7707 65.6936 52.3035 65.2322 52.4382C64.9003 52.5366 64.7344 52.5055 64.527 52.3191C64.1278 51.9514 64.1952 51.8634 64.9315 51.7857C65.2892 51.7494 65.6936 51.6148 65.8181 51.4905C66.2018 51.1073 68.0217 50.1441 68.7424 49.9421C69.1157 49.8385 69.7068 49.7453 70.0335 49.735L70.6349 49.7194L69.9609 50.1078H69.9557ZM57.7243 50.1544C57.8125 50.2943 56.6199 50.5376 52.2541 51.2782C47.9817 51.998 46.4158 52.1896 46.2395 52.0135C46.1514 51.9255 47.2091 51.7028 49.2157 51.3869C50.9268 51.1176 53.2393 50.7034 54.3541 50.4755C56.4695 50.0405 57.5843 49.9369 57.7243 50.1544ZM67.0469 50.4393C67.0106 50.4962 66.5492 50.7655 66.0099 51.04C65.0196 51.5423 64.3922 51.6251 62.4271 51.5112C61.919 51.4801 61.5923 51.5578 61.1723 51.8012C60.7212 52.0653 59.7828 52.2466 56.4695 52.7075C54.1881 53.0234 51.6579 53.36 50.8283 53.448C50.0038 53.536 49.1172 53.65 48.858 53.6966C48.5106 53.7587 48.2772 53.681 47.9817 53.4273L47.5773 53.0751L51.5282 52.5055C53.7059 52.1896 57.5636 51.5837 60.1301 51.1487C64.3455 50.4341 67.2284 50.1389 67.0469 50.4341V50.4393ZM60.5035 52.7748C60.5035 53.0596 60.3998 53.1528 60.0109 53.2253C59.1294 53.3859 52.9593 54.1834 51.1757 54.375C49.5424 54.5459 49.392 54.5407 49.0031 54.2818L48.5832 54.0021L51.4349 53.6655C53.0008 53.4791 55.6036 53.1269 57.211 52.8887C58.8183 52.6453 60.2183 52.4382 60.322 52.433C60.4257 52.4226 60.5086 52.5832 60.5086 52.78L60.5035 52.7748ZM63.0545 52.5625C63.3293 52.7385 63.1737 52.8007 62.1264 52.9353C61.5405 53.0078 61.4057 52.9871 61.4057 52.8059C61.4057 52.4537 62.6034 52.2776 63.0545 52.5676V52.5625ZM77.448 52.7955C77.3443 52.925 76.2192 53.536 74.9592 54.1523C72.8593 55.1776 72.5897 55.2709 71.869 55.2294L71.0808 55.1828L74.2333 53.8778C75.9755 53.158 77.4377 52.5728 77.5102 52.5676C77.5828 52.5676 77.5569 52.6557 77.448 52.7903V52.7955ZM64.0604 53.1943C64.3507 53.5671 64.3974 53.9193 64.1641 54.0073C63.8945 54.1109 61.8567 53.4946 61.8567 53.3134C61.8567 53.0441 63.8633 52.9353 64.0604 53.1943ZM61.2397 53.8882L61.8101 54.3025L56.314 54.7893C51.9067 55.1776 50.7297 55.245 50.372 55.1051C49.9676 54.9498 49.9572 54.9239 50.232 54.8151C50.3979 54.7478 52.0467 54.5148 53.9082 54.2921C55.7696 54.0694 57.8228 53.8053 58.4813 53.7018C60.3583 53.4066 60.5968 53.4273 61.2397 53.8934V53.8882ZM75.654 54.1368C75.654 54.2403 74.3059 54.9032 73.8548 55.0275C73.6474 55.0844 73.943 54.898 74.5289 54.608C75.7422 54.0073 75.654 54.0435 75.654 54.1419V54.1368ZM55.557 55.3382C54.6548 55.5505 53.4104 55.6437 52.4823 55.566C51.8601 55.5143 54.6133 55.1673 55.7799 55.1518C56.3607 55.1466 56.3503 55.1518 55.557 55.3382ZM67.4825 55.8612C67.4306 55.9441 67.078 56.1978 66.6892 56.4205C66.0203 56.8089 65.8959 56.8348 64.1848 56.8244C62.7745 56.8244 62.1886 56.7468 61.4834 56.5034L60.5812 56.1875L61.2553 56.1616C61.8412 56.1409 66.8292 55.7835 67.3736 55.7266C67.4773 55.7162 67.5291 55.7732 67.4773 55.856L67.4825 55.8612Z" fill="#2E2E2E"/>
<path d="M41.8633 2.24235C40.8885 3.77003 39.5404 6.1211 39.6389 6.1211C39.7893 6.1211 42.2521 2.06628 42.1588 1.97307C42.1173 1.93164 41.9877 2.04557 41.8633 2.24235Z" fill="#2E2E2E"/>
<path d="M45.882 3.4179C45.7161 3.4904 45.4724 3.67683 45.3427 3.83218C45.0109 4.22058 42.8073 7.68504 42.8073 7.81968C42.8073 8.15629 43.165 7.78861 43.865 6.72701C44.3006 6.06933 44.6894 5.53076 44.7309 5.53076C44.8087 5.53076 43.4347 8.09415 43.2532 8.28576C43.1806 8.35826 42.9006 8.28576 42.6154 8.10451C41.6407 7.49861 41.4073 7.79897 42.3614 8.42558C42.7814 8.70522 42.9628 8.93308 42.9628 9.18165C42.9628 9.69433 42.4703 10.7093 41.7392 11.714C41.2155 12.4338 41.1481 12.6047 41.3036 12.7911C41.4021 12.9102 41.5784 13.0138 41.6769 13.0138C41.7755 13.0138 42.0451 13.1536 42.2525 13.3193C43.0925 13.977 42.5688 15.2665 40.8422 16.7993L39.94 17.5968L40.1266 18.2856C40.2926 18.8863 40.277 19.0572 40.0281 19.6009C39.6704 20.3881 38.6022 21.3461 37.4667 21.9054C36.7719 22.2472 36.3105 22.3559 35.3357 22.4129C34.0913 22.4854 33.8009 22.6097 34.0913 22.9567C34.2002 23.0861 33.9876 23.5833 33.3343 24.7536C32.8365 25.6391 32.4632 26.4004 32.4995 26.4418C32.541 26.4781 33.0232 25.7375 33.578 24.7795C34.2987 23.5366 34.6617 23.0499 34.8691 23.0499C35.0194 23.0499 35.1542 23.0809 35.1542 23.1172C35.1542 23.1534 34.7757 23.8577 34.3143 24.6811C33.8528 25.5045 33.495 26.2554 33.5261 26.3434C33.5521 26.4315 34.0498 25.6909 34.6202 24.7018C35.3564 23.4279 35.7401 22.8945 35.932 22.8945C36.1601 22.8945 36.046 23.2104 35.2216 24.8572C34.6824 25.9343 34.2676 26.8975 34.2987 26.9908C34.3298 27.084 34.8587 26.1674 35.4705 24.9556C36.1549 23.5936 36.6838 22.7133 36.8497 22.6615C37.2853 22.5216 37.3008 22.6874 36.9171 23.2984C36.129 24.5568 34.3713 27.8556 34.4491 27.9333C34.5372 28.0161 34.952 27.3274 36.7771 24.0959C37.5186 22.7806 37.9593 22.154 38.2393 22.0193L38.6385 21.8329L38.3015 22.4025C36.969 24.65 35.4446 27.4258 35.512 27.4983C35.5587 27.55 35.429 27.8711 35.2268 28.2181C34.6046 29.2797 34.7861 30.129 35.6831 30.3672C36.9327 30.7038 39.5615 29.3263 41.4073 27.3636C42.5532 26.1518 42.7347 25.085 41.9051 24.5102L41.5733 24.2772L42.434 22.8324C42.9058 22.04 43.2636 21.3513 43.2221 21.3099C43.1806 21.2684 42.7502 21.9106 42.2629 22.734C41.7392 23.6195 41.257 24.2616 41.0859 24.3083C40.9199 24.3497 40.7799 24.3704 40.7644 24.3549C40.7488 24.3393 41.1896 23.5884 41.7547 22.677C42.3199 21.7656 42.7451 20.994 42.7036 20.9525C42.6051 20.8438 42.3251 21.2374 41.3555 22.8531C40.5622 24.1736 40.2563 24.5724 40.2563 24.2927C40.2563 24.2202 40.6607 23.4693 41.1584 22.6304C42.0866 21.0561 42.1332 20.9525 41.9206 20.9525C41.8532 20.9525 41.3399 21.7604 40.7799 22.7495C40.0229 24.0856 39.6289 24.6241 39.2504 24.8468C38.9652 25.0125 38.7059 25.1472 38.6645 25.1472C38.5867 25.1472 39.2815 23.8888 40.3444 22.1074C40.7748 21.3875 41.0599 20.8024 40.9873 20.8024C40.8007 20.8024 39.9711 22.1229 38.9859 23.9768C38.4 25.085 38.0319 25.5977 37.6897 25.8049L37.2075 26.0897L37.8504 24.909C38.2082 24.2513 38.8511 23.0758 39.297 22.2627C39.7429 21.4549 40.0903 20.7506 40.0748 20.6884C40.0644 20.6263 40.194 20.2741 40.3755 19.9013C40.7229 19.1659 40.7851 18.5445 40.5518 18.1043C40.4274 17.8661 40.5518 17.6797 41.314 16.9599C42.9784 15.3908 43.5021 14.1065 42.8539 13.1795C42.6206 12.8481 42.6258 12.7808 42.8747 12.3199C43.0199 12.0506 43.2013 11.8175 43.2636 11.8175C43.3258 11.8175 43.9376 11.0408 44.6117 10.0931C45.6694 8.61201 46.0998 8.13558 46.0998 8.44629C46.0998 8.48772 45.5916 9.21272 44.9746 10.0516C43.948 11.4447 43.725 11.8175 43.9272 11.8175C43.9687 11.8175 44.5443 11.0822 45.2183 10.1708C45.8924 9.25933 46.499 8.52397 46.582 8.52397C46.6926 8.52397 46.321 9.16266 45.4672 10.44C44.8968 11.2945 44.4613 12.0558 44.4924 12.149C44.5339 12.2733 46.1931 9.91701 47.4167 8.00093C48.153 6.84611 48.2774 5.56183 47.7745 4.40701C47.5515 3.89951 47.3338 3.66129 46.9449 3.50076C46.3434 3.25219 46.2968 3.24701 45.882 3.42826V3.4179ZM46.1568 5.89844C46.2346 7.00665 46.2294 7.06361 46.0323 6.64933C45.8146 6.18326 45.7368 4.90415 45.9131 4.72808C46.0583 4.58308 46.0635 4.60897 46.1568 5.89844ZM47.0071 5.54111C47.0227 5.74308 47.0279 6.09522 47.0071 6.34897C46.9605 7.12576 46.722 6.3179 46.722 5.3754C46.722 4.77469 46.7531 4.64004 46.8464 4.8679C46.9138 5.03879 46.9864 5.34951 47.0019 5.54111H47.0071ZM44.9072 6.38004C44.9072 6.54576 43.4243 8.81915 43.3154 8.81915C43.2687 8.81915 43.3932 8.52915 43.5954 8.18218C43.8028 7.82486 44.1191 7.2604 44.3161 6.90308C44.6272 6.33343 44.9072 6.08486 44.9072 6.38004ZM44.3006 8.70004C43.1339 10.4349 43.0821 10.4918 43.3569 9.68915C43.6887 8.71558 44.9591 6.84611 45.1042 7.11022C45.182 7.25004 44.9124 7.78343 44.3006 8.70004ZM45.4827 8.38415C43.8132 10.7352 43.4554 11.2013 43.3206 11.2065C43.2325 11.2065 42.9888 11.5431 42.7969 11.9315C42.3562 12.817 42.3821 12.7756 42.2888 12.6824C42.1851 12.5788 42.9162 11.3359 44.3265 9.23861C45.0679 8.1304 45.3376 7.83522 45.4879 7.95951C45.6487 8.08897 45.6487 8.16147 45.4879 8.38415H45.4827ZM42.3562 11.7709C41.9673 12.4131 41.7599 12.6772 41.7599 12.5218C41.7599 12.3872 42.5273 11.2168 42.6154 11.2168C42.6569 11.2168 42.5377 11.4706 42.3562 11.7709ZM39.2452 21.8899C39.0015 22.3249 38.3586 23.5211 37.8141 24.5568C37.2697 25.5925 36.606 26.6386 36.3468 26.8768C36.0772 27.1254 35.9009 27.2549 35.9423 27.1668C35.9838 27.084 36.6994 25.8618 37.5393 24.4429C38.3793 23.0188 39.1311 21.6931 39.2141 21.4859C39.297 21.2736 39.437 21.1027 39.5304 21.1027C39.6237 21.1027 39.4992 21.4549 39.2504 21.8899H39.2452ZM40.4844 25.8204C39.9866 26.2502 36.7771 28.534 36.0875 28.9483C35.6883 29.1916 35.9268 28.7152 36.5386 28.0575C37.3216 27.2186 38.7422 26.1881 39.8207 25.6858C40.9459 25.1575 41.1896 25.2093 40.4792 25.8204H40.4844ZM40.474 26.9597C39.8103 27.6484 38.566 28.534 37.5601 29.0415C36.6423 29.5024 36.886 29.3004 38.7889 28.0058C39.6755 27.405 40.5103 26.7888 40.6503 26.6334C40.7851 26.4833 40.9459 26.3486 40.9873 26.3486C41.034 26.3486 40.8111 26.6179 40.474 26.9649V26.9597Z" fill="#2E2E2E"/>
<path d="M32.1153 7.27575C31.4102 8.58075 30.8761 9.7045 30.9228 9.78217C30.9694 9.85985 31.1613 9.73039 31.3272 9.50253C31.8198 8.84485 33.8004 5.33378 33.8004 5.1111C33.8004 4.46896 33.2405 5.18878 32.1101 7.27057L32.1153 7.27575Z" fill="#2E2E2E"/>
<path d="M33.0075 7.46743C32.4527 8.63778 32.0068 9.61136 32.0068 9.64761C32.0068 9.68386 32.0794 9.71493 32.1728 9.71493C32.3231 9.71493 34.2571 5.82064 34.2571 5.52028C34.2571 5.0335 33.889 5.60832 33.0075 7.46743Z" fill="#2E2E2E"/>
<path d="M34.0441 7.93361C33.1057 10.1966 33.002 10.9734 33.8938 9.02628C34.6871 7.30182 35.1641 5.99682 35.0345 5.91396C34.9671 5.87253 34.5212 6.77878 34.0441 7.93361Z" fill="#2E2E2E"/>
<path d="M36.1389 7.78337C35.5841 8.87605 35.1641 9.78748 35.2004 9.81855C35.273 9.89105 36.4656 7.72641 36.9374 6.65962C37.5855 5.19409 37.1189 5.85177 36.1389 7.78337Z" fill="#2E2E2E"/>
<path d="M35.0871 8.05269C34.5478 9.12983 34.1589 10.0154 34.2263 10.0102C34.3923 10.0102 36.2692 6.28679 36.1603 6.17804C36.1137 6.12626 35.6263 6.97036 35.0871 8.05269Z" fill="#2E2E2E"/>
<path d="M29.2171 12.8428C28.5897 13.2312 28.2423 13.7491 27.4334 15.4839C27.0601 16.2814 26.2461 17.8453 25.6187 18.9535C24.9913 20.0617 24.5195 21.0094 24.5661 21.0612C24.6958 21.1907 24.9809 20.7764 25.8779 19.1607C27.6668 15.9396 27.6253 16.3435 25.7639 20.1964C25.0691 21.636 24.5039 22.8271 24.5039 22.853C24.5039 22.8841 24.5558 22.9048 24.6387 22.9048C24.7113 22.9048 25.3024 21.8483 25.9505 20.5589C26.9357 18.5962 27.1379 18.2855 27.1794 18.648C27.2157 18.9639 26.8786 19.7666 25.9402 21.5791C25.2298 22.9566 24.6491 24.1114 24.6491 24.1632C24.6491 24.5775 25.0846 23.8939 26.1476 21.8276C27.2001 19.7769 27.4127 19.4455 27.5371 19.7096C27.6512 19.953 27.4438 20.4864 26.5416 22.2885C25.9194 23.5314 25.4683 24.5567 25.5461 24.5567C25.6239 24.5567 26.2046 23.578 26.8372 22.3766C27.6823 20.7712 28.0453 20.2171 28.2112 20.2792C28.3304 20.3207 28.4652 20.3621 28.4964 20.3621C28.5275 20.3621 28.289 20.7971 27.9571 21.3357C27.1483 22.6562 25.9661 25.0228 26.0646 25.1264C26.1061 25.1678 26.2461 25.0073 26.3809 24.7691C28.123 21.6257 28.7919 20.5123 28.9578 20.5123C29.0615 20.5123 29.1497 20.5537 29.1497 20.6003C29.1497 20.6469 28.6363 21.6619 28.009 22.8478C27.3816 24.0337 26.8994 25.0901 26.9357 25.1937C26.972 25.2973 27.5371 24.3185 28.1801 23.0291C29.0823 21.2321 29.4348 20.6573 29.6889 20.5951C30.1348 20.4812 30.814 19.4817 31.2392 18.3114C31.5296 17.5087 31.5711 17.1721 31.5192 15.8412C31.4725 14.645 31.3896 14.1633 31.1355 13.6817C30.5859 12.6357 29.9793 12.3716 29.2067 12.8532L29.2171 12.8428ZM30.5133 14.676C30.8763 16.1726 30.5289 18.1146 29.6682 19.4248C29.4556 19.751 29.4193 19.7562 29.0304 19.5232L28.6208 19.2746L29.0978 17.6796C29.3622 16.7941 29.6993 15.5719 29.8548 14.9401C30.0052 14.3135 30.1763 13.8216 30.2281 13.8526C30.28 13.8837 30.4096 14.2566 30.5081 14.676H30.5133ZM28.74 16.0846C28.1904 18.0162 27.9208 18.27 28.2475 16.5507C28.403 15.7273 29.1186 13.9821 29.2482 14.1116C29.2741 14.1375 29.046 15.023 28.74 16.0898V16.0846Z" fill="#2E2E2E"/>
<path d="M43.393 14.6966C42.9627 15.4631 42.2472 16.6127 41.8013 17.2652C41.3605 17.9074 41.0235 18.4822 41.065 18.5236C41.179 18.6375 41.6405 18.0265 42.6205 16.4574C43.8856 14.4222 44.4871 13.314 44.3212 13.314C44.2382 13.314 43.8234 13.9354 43.393 14.7018V14.6966Z" fill="#2E2E2E"/>
<path d="M22.7357 14.0804C22.2276 14.3445 21.5172 14.8572 21.1335 15.2404C20.2676 16.1053 19.3292 17.9799 19.0751 19.3626L18.8884 20.3828L17.9603 20.8022C17.4522 21.0301 16.7937 21.4029 16.5033 21.6204C15.8811 22.0969 15.3626 23.0911 15.3626 23.811C15.3626 24.0906 15.0826 24.9813 14.7353 25.7892C14.1908 27.0631 14.0405 27.2858 13.6101 27.467C12.9205 27.757 11.8731 28.4976 11.2561 29.1294L10.7324 29.6679L11.2354 28.4147C11.5154 27.7208 12.0442 26.5142 12.4227 25.7011C12.8012 24.8933 13.0501 24.2097 12.9827 24.1683C12.7287 24.0129 10.1725 29.9528 9.79395 31.5685C9.64358 32.2106 9.65914 32.4126 9.88209 32.9978C10.0273 33.3706 10.188 33.6813 10.245 33.6865C10.2969 33.6865 10.5302 33.8419 10.7532 34.0231L11.1628 34.3545L10.7221 35.4783C10.4784 36.0945 10.2762 36.7315 10.271 36.8869C10.2554 37.4358 10.6547 36.8558 11.1783 35.556C11.6191 34.4633 11.9561 33.9817 12.1531 34.1785C12.1842 34.2095 12.0079 34.7947 11.7539 35.4835C11.4998 36.1722 11.3183 36.7936 11.3443 36.8765C11.3909 37.0215 11.4894 36.804 12.1998 34.8828C12.3968 34.3442 12.6768 33.9195 12.9827 33.6917C13.2523 33.4897 13.4183 33.4276 13.3716 33.5519C13.3249 33.6658 13.0501 34.3235 12.7546 34.9967C12.4642 35.6699 12.2672 36.2344 12.3242 36.2344C12.3813 36.2344 12.7961 35.4265 13.2316 34.4529C13.6723 33.4794 14.196 32.5161 14.393 32.3245C14.7197 32.0138 14.6938 32.1122 14.1545 33.3603C13.5375 34.7844 13.4546 35.0433 13.6931 34.7999C13.8694 34.6186 15.6582 30.7088 15.6219 30.5742C15.5286 30.1858 16.9285 26.6488 17.1774 26.6488C17.3744 26.6488 17.2966 26.887 16.5552 28.5649C16.213 29.3417 15.9745 30.0149 16.0211 30.0615C16.1611 30.2013 16.3115 29.9269 16.9907 28.3215C17.3485 27.4826 17.6907 26.7938 17.7581 26.7938C18.0848 26.7938 17.8307 26.1983 17.2759 25.6597C15.4923 23.9353 15.8189 22.5836 18.2973 21.4495C18.8832 21.1803 19.4121 20.8799 19.4743 20.7815C19.5366 20.6831 19.6766 20.1238 19.7854 19.5386C20.3143 16.7215 22.2379 14.5672 24.5038 14.2461C25.0897 14.1633 25.3282 14.0597 25.3593 13.8681C25.3956 13.6403 25.2867 13.604 24.5193 13.604C23.8245 13.604 23.4409 13.7024 22.7201 14.0753L22.7357 14.0804ZM15.2019 25.8772C14.7923 26.9388 14.4553 27.4981 14.4501 27.1356C14.4501 26.9388 15.5493 24.5411 15.6115 24.6033C15.6426 24.6395 15.4611 25.204 15.2019 25.8772ZM15.7826 26.4003C15.5908 26.8974 15.373 27.2392 15.2434 27.2392C15.093 27.2392 15.0567 27.1563 15.1293 26.9751C15.1863 26.8353 15.3782 26.3433 15.5441 25.9135C15.7671 25.3283 15.8863 25.1729 15.9796 25.3386C16.0574 25.4785 15.9848 25.8772 15.7826 26.4003ZM16.5552 26.0429C16.5552 26.3278 15.7567 27.7622 15.6945 27.5861C15.6167 27.3635 16.2441 25.8928 16.4204 25.8928C16.5033 25.8928 16.5552 25.9549 16.5552 26.0429ZM16.4256 27.4878C16.1715 28.0574 15.9693 28.3785 15.9641 28.2128C15.9641 27.8554 16.6796 26.2553 16.7937 26.3692C16.8455 26.421 16.6796 26.9181 16.4256 27.4878ZM13.9782 29.1604C13.2783 30.4033 11.4169 33.236 11.3028 33.236C11.1576 33.236 10.8517 32.5317 10.8517 32.2003C10.8517 31.672 11.7798 30.0822 12.4124 29.5281C12.9205 29.0828 14.1908 28.3008 14.4242 28.2904C14.4501 28.2904 14.2479 28.6788 13.9782 29.1553V29.1604ZM14.4138 30.1185C14.1234 30.7192 13.5946 31.5167 13.2523 31.8844C12.6664 32.511 12.6457 32.5213 12.9361 32.0345C13.1072 31.7497 13.6049 30.9108 14.0249 30.191C14.4449 29.4711 14.8338 28.9067 14.8701 28.9481C14.9115 28.9895 14.7041 29.5178 14.4138 30.1185Z" fill="#2E2E2E"/>
<path d="M42.9575 16.1882C41.3554 18.7361 41.3398 18.7619 41.6094 18.6739C41.7961 18.6118 44.6115 14.2566 44.6115 14.0287C44.6115 13.6662 44.2538 14.1323 42.9627 16.1882H42.9575Z" fill="#2E2E2E"/>
<path d="M43.4194 16.7733C42.5691 18.0161 41.9106 19.0674 41.9521 19.1036C41.9935 19.1399 42.6209 18.301 43.3416 17.2549C44.0572 16.2088 44.7831 15.1524 44.9386 14.9245C45.0942 14.7019 45.1667 14.5103 45.0942 14.5103C45.0216 14.5103 44.2697 15.5304 43.4246 16.7733H43.4194Z" fill="#2E2E2E"/>
<path d="M8.31619 25.6236C7.10809 28.244 5.30371 33.5986 5.30371 34.5515C5.30371 35.0745 5.59926 34.4013 6.27331 32.335C7.10809 29.7872 8.12953 27.1461 8.84506 25.6857C9.39467 24.562 9.46208 24.2461 9.15616 24.2461C9.04209 24.2461 8.66359 24.8623 8.31101 25.6236H8.31619Z" fill="#2E2E2E"/>
<path d="M10.5565 26.5246C8.91286 30.538 7.6892 34.5825 8.11437 34.5825C8.19733 34.5825 8.30621 34.2821 8.35806 33.9248C8.49806 32.9098 9.42099 30.1807 10.655 27.1253C11.2668 25.6132 11.7594 24.3548 11.7594 24.3185C11.7594 24.2771 11.7076 24.2512 11.6246 24.2512C11.552 24.2512 11.075 25.2714 10.5565 26.5298V26.5246Z" fill="#2E2E2E"/>
<path d="M9.83616 24.997C9.7532 25.2041 9.45247 25.9395 9.16211 26.6437C8.25992 28.8291 7.29551 31.6152 6.89108 33.1895C6.45554 34.8984 6.46073 34.8828 6.62665 34.8828C6.69924 34.8828 6.80294 34.6291 6.85479 34.3132C7.01034 33.3707 8.12511 30.0305 9.15692 27.405C9.69098 26.0586 10.0902 24.8882 10.0539 24.7898C10.0176 24.6914 9.91912 24.7846 9.83616 24.9918V24.997Z" fill="#2E2E2E"/>
<path d="M21.4604 27.8866C20.5271 30.0616 19.1064 33.7332 19.1064 33.9818C19.1064 34.422 19.3813 33.9973 19.7649 32.9616C20.1279 31.9829 21.7715 28.0161 22.4974 26.3693C22.6685 25.9809 22.6685 25.8877 22.513 25.8877C22.4041 25.8877 21.9323 26.7888 21.4604 27.8814V27.8866Z" fill="#2E2E2E"/>
<path d="M22.9434 27.6638C21.896 29.7456 20.9316 32.0035 20.8124 32.6508C20.6775 33.3758 20.9472 33.0392 21.362 31.962C21.5538 31.4649 22.233 29.9683 22.8864 28.6218C23.5345 27.2754 24.0633 26.1517 24.0633 26.1154C24.0633 26.074 24.0011 26.0481 23.913 26.0481C23.83 26.0481 23.3945 26.7835 22.9486 27.6638H22.9434Z" fill="#2E2E2E"/>
<path d="M23.8867 28.1713C23.0156 29.7611 22.1757 31.7082 22.3053 31.8429C22.4245 31.9672 22.3934 32.0241 23.0778 30.5379C23.4045 29.8336 23.9178 28.8031 24.2341 28.2334C24.5452 27.6638 24.8045 27.1407 24.8045 27.0631C24.8045 26.685 24.4934 27.0631 23.8867 28.1713Z" fill="#2E2E2E"/>
<path d="M27.9733 29.9682C27.4237 31.8481 26.1274 33.0029 23.8046 33.6916C23.2757 33.847 23.089 34.0127 22.6431 34.7325C22.0572 35.675 21.4039 36.2395 20.3513 36.7107C19.7084 36.9956 19.4958 37.0163 17.9974 36.9127C15.4775 36.7366 15.6019 36.7107 14.6841 37.5704C13.7405 38.4559 13.1494 38.7407 12.2265 38.7511C11.3761 38.7615 10.6813 38.4093 9.67544 37.4461C8.92362 36.7315 8.61252 36.6072 8.61252 37.0266C8.61252 37.1147 8.74733 37.3322 8.90288 37.4979C9.19324 37.8034 9.19324 37.8138 8.30142 39.7454C7.81403 40.807 7.43552 41.7132 7.46663 41.7443C7.54441 41.822 8.42586 40.082 8.90806 38.8961C9.10509 38.4145 9.31768 38.0261 9.38508 38.0261C9.73248 38.0261 9.61322 38.5957 8.91843 40.2736C8.49845 41.2938 8.18735 42.1482 8.22883 42.1897C8.30142 42.2622 8.80955 41.185 9.50952 39.4916C9.83618 38.6993 10.1214 38.4352 10.3132 38.7407C10.3547 38.8081 9.96062 39.7661 9.43693 40.8743C8.91325 41.9825 8.52437 42.925 8.56585 42.9665C8.6177 43.0131 8.67474 42.982 8.70585 42.8888C8.73696 42.8059 9.18287 41.879 9.69618 40.8277C10.4532 39.269 10.6658 38.9427 10.8524 39.0618C11.0391 39.1809 10.9198 39.5175 10.111 41.154C9.57693 42.2311 9.17768 43.1373 9.21916 43.1788C9.26064 43.2202 9.72729 42.3761 10.2562 41.3145C10.951 39.9059 11.288 39.3725 11.485 39.3725C11.708 39.3725 11.5991 39.6884 10.8473 41.185C10.3443 42.1897 9.96062 43.07 9.99173 43.1581C10.0228 43.2461 10.4636 42.5056 10.9872 41.5009C11.8687 39.8075 12.3561 39.0929 12.3561 39.5072C12.3561 39.5952 12.0087 40.315 11.5887 41.097C11.1687 41.8738 10.8524 42.604 10.8887 42.7075C10.925 42.8111 11.3346 42.1482 11.8065 41.2161C12.2731 40.2891 12.7864 39.4657 12.9524 39.3725C13.1183 39.2845 13.2531 39.2431 13.2531 39.2897C13.2531 39.3363 12.885 40.1079 12.4287 41.0193C11.9724 41.9307 11.6094 42.749 11.6094 42.8525C11.6094 42.9561 12.0605 42.169 12.605 41.0918C13.5123 39.3104 13.756 38.9324 14.0308 38.922C14.0775 38.922 13.6886 39.7557 13.1546 40.7915C12.6205 41.8272 12.242 42.6661 12.3094 42.6661C12.3768 42.6661 12.885 41.7754 13.4501 40.6827C14.0101 39.59 14.7412 38.4093 15.0678 38.0623C15.3945 37.7206 15.69 37.4254 15.7108 37.4254C15.7315 37.4254 15.1819 38.5491 14.4871 39.9111C13.7923 41.2731 13.2531 42.4331 13.2946 42.4745C13.3775 42.5573 15.9493 37.6066 15.9493 37.3684C15.9493 37.2907 16.1982 37.2752 16.5093 37.3322C16.8255 37.3891 17.1574 37.4306 17.2663 37.4306C17.3855 37.4306 17.1055 38.1193 16.53 39.2275C16.0167 40.2166 15.6382 41.0607 15.6849 41.1073C15.7315 41.154 16.0893 40.5584 16.4782 39.7972C17.5152 37.762 17.7329 37.4306 17.9766 37.529C18.1425 37.5911 18.0907 37.7775 17.7381 38.3731C16.9759 39.6781 16.2345 41.1747 16.3537 41.1747C16.4211 41.1747 16.9085 40.3875 17.4478 39.414C18.044 38.3368 18.5262 37.6325 18.6921 37.6015C18.9099 37.56 18.8114 37.85 18.1996 39.0773C17.7796 39.9163 17.4685 40.6413 17.51 40.6827C17.5514 40.7241 17.9403 40.0457 18.3707 39.1757C18.8995 38.1141 19.2573 37.5704 19.4595 37.5186C19.6254 37.4772 19.7758 37.4616 19.7966 37.4823C19.8173 37.5031 19.6306 37.9484 19.3869 38.4715C19.1381 38.9945 18.967 39.4968 19.0032 39.59C19.0395 39.6832 19.3195 39.2172 19.6306 38.5388C20.118 37.4927 20.2684 37.2959 20.735 37.1147C21.0358 36.9956 21.3158 36.8868 21.3728 36.8609C21.4246 36.835 21.2069 37.3115 20.8906 37.907C20.5743 38.5077 20.3151 39.1032 20.3151 39.2275C20.3151 39.3518 20.6158 38.8806 20.9735 38.1918C21.3365 37.5031 21.6217 36.8868 21.6061 36.8299C21.5906 36.7729 21.8602 36.4466 22.2076 36.11C22.555 35.7734 22.975 35.2297 23.1357 34.9034C23.3431 34.4995 23.5868 34.2613 23.9134 34.1474C24.1831 34.0541 24.4164 34.0075 24.4475 34.0334C24.4786 34.0645 23.9238 35.1727 23.2186 36.5036C22.5135 37.8345 21.9587 39.0359 21.9794 39.1706C22.0054 39.3052 22.6898 38.1763 23.5038 36.659C25.6089 32.7284 25.6712 32.7802 23.7683 36.8816C23.426 37.617 23.1875 38.2488 23.2238 38.2902C23.2653 38.3316 23.8253 37.2545 24.4786 35.8925C25.1267 34.5306 25.7593 33.3809 25.8889 33.3291C26.0341 33.2722 25.7645 33.9868 25.1527 35.2763C24.6186 36.4 24.2142 37.3891 24.2505 37.4772C24.2868 37.5704 24.8312 36.5709 25.4638 35.2504C26.2 33.7227 26.8326 32.6248 27.2215 32.2002C27.8437 31.527 28.5488 30.1495 28.5488 29.6109C28.5488 29.0723 28.1496 29.3106 27.9629 29.9527L27.9733 29.9682Z" fill="#2E2E2E"/>
<path d="M37.2851 33.8626C36.5851 35.3903 36.5489 35.8356 37.2385 34.4789C37.8658 33.236 38.1666 32.4851 38.0369 32.4851C37.9695 32.4851 37.6377 33.1014 37.2851 33.8626Z" fill="#2E2E2E"/>
<path d="M30.2592 35.0641C28.7244 37.6999 28.7866 37.5808 28.9889 37.5808C29.0718 37.5808 29.3363 37.296 29.5696 36.9491C30.2073 36.0221 31.851 33.1376 31.851 32.9512C31.851 32.4748 31.4569 32.9978 30.254 35.0641H30.2592Z" fill="#2E2E2E"/>
<path d="M31.9398 34.2977C31.7065 34.8207 31.2139 35.7891 30.8509 36.4312C30.488 37.0734 30.2235 37.643 30.265 37.6845C30.4569 37.8761 32.5412 33.8627 32.4272 33.5209C32.3961 33.4225 32.1731 33.7746 31.9398 34.2977Z" fill="#2E2E2E"/>
<path d="M33.6036 34.8517C33.2147 35.6596 32.6288 36.773 32.3125 37.296C31.6592 38.3732 31.6799 38.803 32.3436 38.0158C32.8517 37.4151 34.7235 33.6866 34.6094 33.5053C34.4383 33.2308 34.2776 33.4432 33.5984 34.8517H33.6036Z" fill="#2E2E2E"/>
<path d="M35.8334 35.1831C35.3668 36.1101 35.0194 36.9283 35.0453 37.0112C35.0764 37.094 35.4808 36.3742 35.9579 35.4006C36.4349 34.4271 36.7875 33.6089 36.746 33.5726C36.7045 33.5364 36.2949 34.2562 35.8334 35.1831Z" fill="#2E2E2E"/>
<path d="M33.8791 35.7373C33.3347 36.8766 32.8525 37.9744 32.811 38.1816C32.614 39.1292 33.485 37.555 34.7916 34.6187C34.9835 34.1837 35.0768 33.8057 35.0042 33.7591C34.9316 33.7125 34.4235 34.6083 33.8791 35.7425V35.7373Z" fill="#2E2E2E"/>
<path d="M34.8686 35.7217C33.7279 37.9071 33.7434 37.8812 33.9249 37.8812C34.0752 37.8812 36.1078 33.8471 36.0092 33.7487C35.9678 33.7073 35.4493 34.6032 34.8686 35.7269V35.7217Z" fill="#2E2E2E"/>
<path d="M15.3631 39.8956C14.7513 41.0815 14.2794 42.0965 14.3209 42.1379C14.3624 42.1794 14.9224 41.2006 15.5601 39.9733C16.1979 38.746 16.6697 37.731 16.6023 37.731C16.5349 37.731 15.9749 38.7149 15.3631 39.8956Z" fill="#2E2E2E"/>
<path d="M22.7981 40.2063C22.487 40.6724 22.01 41.299 21.7093 41.6304C21.4138 41.9619 21.2426 42.2208 21.3256 42.2208C21.6263 42.2208 23.5966 39.6212 23.4255 39.4503C23.384 39.4088 23.1041 39.7403 22.7981 40.2063Z" fill="#2E2E2E"/>
<path d="M20.5743 40.5586C19.7966 41.5166 19.7447 41.6202 20.0714 41.6202C20.2995 41.6202 21.6632 40.0925 21.6632 39.8387C21.6632 39.4607 21.2484 39.7352 20.5795 40.5586H20.5743Z" fill="#2E2E2E"/>
<path d="M23.6951 41.3923C23.2336 42.1691 22.7877 42.8474 22.7047 42.8992C22.627 42.9458 22.5595 43.1116 22.5647 43.2462C22.5751 43.6191 23.3321 42.6921 24.141 41.3146C24.8358 40.1287 24.898 39.9785 24.6698 39.9785C24.5973 39.9785 24.1565 40.6155 23.6951 41.3923Z" fill="#2E2E2E"/>
<path d="M62.9824 26.2243C60.9292 26.7525 56.4027 28.0161 56.3249 28.0834C56.0449 28.3113 56.6671 28.2129 58.2019 27.7779C59.1818 27.4982 61.0692 26.9907 62.3862 26.6438C63.7083 26.2968 64.8075 25.9965 64.8283 25.9706C65.0305 25.7738 64.3772 25.867 62.9824 26.2243Z" fill="#2E2E2E"/>
<path d="M63.6557 26.8872C58.4499 28.2233 55.7693 28.9327 55.7123 28.9845C55.6811 29.0156 55.6967 29.0726 55.7485 29.1295C55.8678 29.2486 65.6052 26.7629 65.6052 26.6127C65.6052 26.4315 65.2163 26.4885 63.6557 26.8872Z" fill="#2E2E2E"/>
<path d="M71.651 34.914C71.0495 35.4163 70.5881 35.8617 70.6295 35.9031C70.7021 35.9756 72.7398 34.3754 72.8954 34.1217C73.0976 33.7954 72.6569 34.0751 71.651 34.914Z" fill="#2E2E2E"/>
<path d="M72.2269 37.2961C71.7032 37.7932 71.3092 38.2334 71.3507 38.28C71.3921 38.3266 71.8847 37.9227 72.4551 37.3789C73.0254 36.8352 73.4143 36.395 73.3313 36.395C73.2484 36.395 72.7558 36.7989 72.2269 37.2961Z" fill="#2E2E2E"/>
<path d="M75.0633 37.5032C74.5293 38.0418 74.1611 38.4768 74.2441 38.4716C74.5137 38.4664 76.1522 36.8973 76.09 36.7057C76.0537 36.6021 75.6129 36.9439 75.0633 37.498V37.5032Z" fill="#2E2E2E"/>
<path d="M75.5038 38.1038C74.9801 38.6269 74.5757 39.0981 74.6172 39.1395C74.6587 39.181 75.1253 38.7822 75.6542 38.254C76.1779 37.731 76.5823 37.2597 76.5408 37.2183C76.4993 37.1769 76.0327 37.5756 75.5038 38.1038Z" fill="#2E2E2E"/>
<path d="M76.2553 38.2541C75.8146 38.7046 75.5138 39.0774 75.5968 39.0774C75.7938 39.0774 77.2404 37.6016 77.1419 37.5032C77.1004 37.4617 76.7012 37.8035 76.2553 38.2541Z" fill="#2E2E2E"/>
<path d="M78.0544 40.1132C78.0544 40.3048 76.0271 42.4487 75.4879 42.8371L75.0368 43.1582L74.7257 42.8267C74.119 42.1846 73.2946 42.081 71.8272 42.4591C69.3385 43.1012 67.5496 44.4839 67.5496 45.763C67.5496 46.0737 67.3059 46.431 66.6215 47.1198C66.1134 47.6273 65.7452 48.1089 65.8127 48.1762C65.8801 48.2435 66.3519 47.8292 66.8704 47.2648C67.4822 46.5916 67.8452 46.2912 67.9126 46.4051C67.9748 46.5087 67.6844 46.9541 67.1919 47.5082C66.7408 48.0157 66.3986 48.4714 66.44 48.5128C66.4815 48.5542 66.9585 48.1503 67.4978 47.6221L68.4777 46.6537L67.8763 47.4616C67.1089 48.4973 67.2489 48.8132 68.0578 47.881C68.4 47.4926 68.7629 47.1767 68.8718 47.1767C68.9807 47.1767 68.8407 47.446 68.5348 47.8085C67.7881 48.6785 68.037 48.7355 68.8459 47.881C69.214 47.4926 69.6236 47.1767 69.7584 47.1767C69.9399 47.1767 69.8725 47.3114 69.5251 47.6687C68.7474 48.4714 68.9859 48.5024 69.7947 47.7049C70.5725 46.9385 71.0443 46.866 70.3184 47.6221C70.0747 47.8758 69.9607 48.0726 70.054 48.0726C70.1473 48.0726 70.4273 47.8085 70.6917 47.4823C71.0391 47.0524 71.3762 46.8246 71.9465 46.6433C72.382 46.5035 72.942 46.2653 73.2116 46.0944C73.4813 45.9287 73.699 45.8407 73.699 45.8976C73.699 46.0271 74.4509 45.4885 76.0219 44.2249C78.1063 42.5471 78.4329 42.2519 78.3189 42.138C78.2618 42.081 77.6604 42.4953 76.9708 43.0753C76.2812 43.6501 75.4308 44.3441 75.0575 44.6341L74.3886 45.1519L74.6583 44.7014C74.8086 44.4528 75.2131 44.0333 75.5708 43.7589C76.4108 43.1167 78.5314 41.0091 78.4381 40.9107C78.3966 40.8692 77.9041 41.2991 77.3389 41.8687C75.9545 43.2617 75.0523 43.9764 75.0523 43.6657C75.0523 43.531 75.1042 43.4274 75.1716 43.4274C75.3893 43.4274 77.1574 41.7651 77.7693 40.9832C78.3603 40.2323 78.4692 39.9785 78.1996 39.9785C78.1115 39.9785 78.0492 40.0303 78.0492 40.1132H78.0544ZM73.9479 43.4999C74.0723 43.821 73.5694 44.5823 72.9368 45.0173C72.4287 45.3694 70.7695 45.9805 70.3547 45.9649C70.2562 45.9649 70.6399 45.763 71.2258 45.5144C72.2628 45.0742 72.9472 44.5667 72.7554 44.3855C72.7087 44.3389 72.0813 44.546 71.3762 44.8516C70.1888 45.3539 68.4518 45.7578 68.4518 45.5299C68.4518 45.3435 69.5925 44.3544 70.1006 44.0955C71.5421 43.3653 73.7612 43.0287 73.9479 43.5103V43.4999Z" fill="#2E2E2E"/>
<path d="M77.2308 43.7485C76.733 44.1731 75.5353 45.0897 74.5605 45.7888C72.9117 46.9799 72.5072 47.3113 72.7302 47.3113C72.9946 47.3113 76.4063 44.8205 77.6041 43.7485C78.6048 42.8526 78.2781 42.8474 77.2308 43.7433V43.7485Z" fill="#2E2E2E"/>
<path d="M75.053 46.2912C74.1094 46.9437 73.2279 47.5392 73.1035 47.6066C72.9842 47.6739 72.922 47.7775 72.9687 47.8241C73.0516 47.9069 77.153 45.2762 77.153 45.1416C77.153 44.9241 76.5982 45.2244 75.053 46.2912Z" fill="#2E2E2E"/>
<path d="M76.328 46.4207C76.1776 46.5864 75.5087 47.0939 74.8502 47.5445C74.1918 47.995 73.7303 48.3679 73.8392 48.3679C73.9481 48.3679 74.5288 48.0261 75.1302 47.6118C76.2398 46.8454 77.0279 46.1204 76.748 46.1204C76.665 46.1204 76.4783 46.255 76.328 46.4207Z" fill="#2E2E2E"/>
</g>
<defs>
<clipPath id="clip0_371_2484">
<rect width="81" height="58" fill="white"/>
</clipPath>
</defs>
</svg>
